ply
format ascii 1.0
comment VCGLIB generated
element vertex 64
property float x
property float y
property float z
property float nx
property float ny
property float nz
element face 44
property list uchar int vertex_indices
end_header
6.458622 0 3.317153 0 0 3 
6.458622 -1.244841 3.317153 0 0 1 
10.27355 -1.244841 3.317153 0 0 2 
10.27355 0 3.317153 0 0 3 
0 0 3.317153 0 0 3 
0 1.244841 3.317153 0 0 1 
-6.458622 1.244841 3.317153 0 0 2 
-6.458622 0 3.317153 0 0 3 
-6.458622 -1.244841 3.317153 -3 0 0 
-6.458622 0 3.317153 -1 0 0 
-6.458622 1.244841 3.317153 -2 0 0 
-6.458622 1.244841 -3.317153 -2 0 0 
-6.458622 -1.244841 -3.317153 -1 0 0 
-6.458622 -1.244841 -3.317153 0 0 -2 
-6.458622 1.244841 -3.317153 0 0 -1 
6.458622 1.244841 -3.317153 0 0 -3 
6.458622 -1.244841 -3.317153 0 0 -3 
6.458622 -1.244841 3.317153 0 -6 0 
0 -1.244841 3.317153 0 -3 0 
-6.458622 -1.244841 3.317153 0 -2 0 
-6.458622 -1.244841 -3.317153 0 -2 0 
6.458622 -1.244841 -3.317153 0 -2 0 
-6.458622 1.244841 3.317153 0 3 0 
0 1.244841 3.317153 0 2 0 
6.458622 1.244841 3.317153 0 5 0 
6.458622 1.244841 -3.317153 0 4 0 
-6.458622 1.244841 -3.317153 0 1 0 
0 -1.244841 3.317153 0 0 2 
-6.458622 -1.244841 3.317153 0 0 1 
0 1.244841 7.597487 0 2 0 
6.458622 1.244841 7.597487 0 1 0 
6.458622 -1.244841 3.317153 2 0 0 
6.458622 0 3.317153 3 0 0 
6.458622 0 7.597487 3 0 0 
6.458622 -1.244841 7.597487 1 0 0 
6.458622 -1.244841 7.597487 0 0 2 
6.458622 0 7.597487 0 0 3 
0 0 7.597487 0 0 3 
0 -1.244841 7.597487 0 0 1 
6.458622 1.244841 7.597487 0 0 1 
0 1.244841 7.597487 0 0 2 
6.458622 1.244841 3.317153 1 0 0 
6.458622 1.244841 7.597487 2 0 0 
0 1.244841 3.317153 -2 0 0 
0 0 3.317153 -3 0 0 
0 0 7.597487 -3 0 0 
0 1.244841 7.597487 -1 0 0 
6.458622 -1.244841 7.597487 0 -2 0 
0 -1.244841 7.597487 0 -1 0 
0 -1.244841 3.317153 -1 0 0 
0 -1.244841 7.597487 -2 0 0 
10.27355 -1.244841 -3.317153 3 0 0 
10.27355 1.244841 -3.317153 1 0 0 
10.27355 1.244841 3.317153 2 0 0 
10.27355 0 3.317153 2 0 0 
10.27355 -1.244841 3.317153 1 0 0 
6.458622 1.244841 3.317153 0 0 2 
10.27355 1.244841 3.317153 0 0 1 
10.27355 1.244841 -3.317153 0 0 -2 
10.27355 -1.244841 -3.317153 0 0 -1 
10.27355 1.244841 3.317153 0 2 0 
10.27355 1.244841 -3.317153 0 1 0 
10.27355 -1.244841 -3.317153 0 -2 0 
10.27355 -1.244841 3.317153 0 -1 0 
3 0 1 2 
3 0 2 3 
3 4 5 6 
3 4 6 7 
3 8 9 10 
3 8 10 11 
3 8 11 12 
3 13 14 15 
3 13 15 16 
3 17 18 19 
3 17 19 20 
3 17 20 21 
3 22 23 24 
3 22 24 25 
3 22 25 26 
3 27 4 7 
3 27 7 28 
3 24 23 29 
3 24 29 30 
3 31 32 33 
3 31 33 34 
3 35 36 37 
3 35 37 38 
3 36 39 40 
3 36 40 37 
3 32 41 42 
3 32 42 33 
3 43 44 45 
3 43 45 46 
3 18 17 47 
3 18 47 48 
3 44 49 50 
3 44 50 45 
3 51 52 53 
3 51 53 54 
3 51 54 55 
3 56 0 3 
3 56 3 57 
3 16 15 58 
3 16 58 59 
3 25 24 60 
3 25 60 61 
3 17 21 62 
3 17 62 63 
