ply
format ascii 1.0
comment VCGLIB generated
element vertex 48
property float x
property float y
property float z
property float nx
property float ny
property float nz
element face 24
property list uchar int vertex_indices
end_header
6.458622 -1.244841 -3.317153 2 0 0 
6.458622 1.244841 -3.317153 1 0 0 
6.458622 1.244841 3.317153 2 0 0 
6.458622 -1.244841 3.317153 1 0 0 
6.458622 -1.244841 3.317153 0 0 2 
6.458622 1.244841 3.317153 0 0 1 
-6.458622 1.244841 3.317153 0 0 2 
-6.458622 -1.244841 3.317153 0 0 1 
-6.458622 -1.244841 3.317153 -2 0 0 
-6.458622 1.244841 3.317153 -1 0 0 
-6.458622 1.244841 -3.317153 -2 0 0 
-6.458622 -1.244841 -3.317153 -1 0 0 
-6.458622 -1.244841 -3.317153 0 0 -2 
-6.458622 1.244841 -3.317153 0 0 -1 
6.458622 1.244841 -3.317153 0 0 -2 
6.458622 -1.244841 -3.317153 0 0 -1 
6.458622 -1.244841 3.317153 0 -2 0 
-6.458622 -1.244841 3.317153 0 -1 0 
-6.458622 -1.244841 -3.317153 0 -2 0 
6.458622 -1.244841 -3.317153 0 -1 0 
-6.458622 1.244841 3.317153 0 2 0 
6.458622 1.244841 3.317153 0 1 0 
6.458622 1.244841 -3.317153 0 2 0 
-6.458622 1.244841 -3.317153 0 1 0 
13.42984 -0.7490535 -0.07548571 2 0 0 
13.42984 1.740629 -0.07548571 1 0 0 
13.42984 1.740629 6.558819 2 0 0 
13.42984 -0.7490535 6.558819 1 0 0 
13.42984 -0.7490535 6.558819 0 0 2 
13.42984 1.740629 6.558819 0 0 1 
0.5126009 1.740629 6.558819 0 0 2 
0.5126009 -0.7490535 6.558819 0 0 1 
0.5126009 -0.7490535 6.558819 -2 0 0 
0.5126009 1.740629 6.558819 -1 0 0 
0.5126009 1.740629 -0.07548571 -2 0 0 
0.5126009 -0.7490535 -0.07548571 -1 0 0 
0.5126009 -0.7490535 -0.07548571 0 0 -2 
0.5126009 1.740629 -0.07548571 0 0 -1 
13.42984 1.740629 -0.07548571 0 0 -2 
13.42984 -0.7490535 -0.07548571 0 0 -1 
13.42984 -0.7490535 6.558819 0 -2 0 
0.5126009 -0.7490535 6.558819 0 -1 0 
0.5126009 -0.7490535 -0.07548571 0 -2 0 
13.42984 -0.7490535 -0.07548571 0 -1 0 
0.5126009 1.740629 6.558819 0 2 0 
13.42984 1.740629 6.558819 0 1 0 
13.42984 1.740629 -0.07548571 0 2 0 
0.5126009 1.740629 -0.07548571 0 1 0 
3 0 1 2 
3 0 2 3 
3 4 5 6 
3 4 6 7 
3 8 9 10 
3 8 10 11 
3 12 13 14 
3 12 14 15 
3 16 17 18 
3 16 18 19 
3 20 21 22 
3 20 22 23 
3 24 25 26 
3 24 26 27 
3 28 29 30 
3 28 30 31 
3 32 33 34 
3 32 34 35 
3 36 37 38 
3 36 38 39 
3 40 41 42 
3 40 42 43 
3 44 45 46 
3 44 46 47 
