ply
format ascii 1.0
comment VCGLIB generated
element vertex 24
property float x
property float y
property float z
property float nx
property float ny
property float nz
property float texture_u
property float texture_v
element face 12
property list uchar int vertex_indices
end_header
1 -0.01 -0.7582819 2 0 0 0.689453 0.035156
1 0.01 -0.7582819 1 0 0 0.939453 0.035156
1 0.01 0.7434802 2 0 0 0.939453 0.285156
1 -0.01 0.7434802 1 0 0 0.689453 0.285156
1 -0.01 0.7434802 0 0 2 0.644531 0.085938
1 0.01 0.7434802 0 0 1 0.894531 0.085938
-1 0.01 0.7434802 0 0 2 0.894531 0.335938
-1 -0.01 0.7434802 0 0 1 0.644531 0.335938
-1 -0.01 0.7434802 -2 0 0 0.736328 0.011719
-1 0.01 0.7434802 -1 0 0 0.986328 0.011719
-1 0.01 -0.7582819 -2 0 0 0.986328 0.261719
-1 -0.01 -0.7582819 -1 0 0 0.736328 0.261719
-1 -0.01 -0.7582819 0 0 -2 0.683594 0.021484
-1 0.01 -0.7582819 0 0 -1 0.933594 0.021484
1 0.01 -0.7582819 0 0 -2 0.933594 0.271484
1 -0.01 -0.7582819 0 0 -1 0.683594 0.271484
1 -0.01 0.7434802 0 -2 0 0.000000 0.000000
-1 -0.01 0.7434802 0 -1 0 1.000000 0.000000
-1 -0.01 -0.7582819 0 -2 0 1.000000 1.000000
1 -0.01 -0.7582819 0 -1 0 0.000000 1.000000
-1 0.01 0.7434802 0 2 0 0.000000 0.000000
1 0.01 0.7434802 0 1 0 1.000000 0.000000
1 0.01 -0.7582819 0 2 0 1.000000 1.000000
-1 0.01 -0.7582819 0 1 0 0.000000 1.000000
3 0 1 2 
3 0 2 3 
3 4 5 6 
3 4 6 7 
3 8 9 10 
3 8 10 11 
3 12 13 14 
3 12 14 15 
3 16 17 18 
3 16 18 19 
3 20 21 22 
3 20 22 23 
