ply
format ascii 1.0
comment VCGLIB generated
comment TextureFile glass-RGBA.png
element vertex 32
property float x
property float y
property float z
property float nx
property float ny
property float nz
property float texture_u
property float texture_v
element face 20
property list uchar int vertex_indices
end_header
0 0 -1 -0.4082483 -0.4082483 -0.8164966 0.704102 0.895508
0 0 0 -0.7071068 -0.7071068 0 0.719727 0.895508
0 1 0 -0.7071068 0.7071068 0 0.719727 0.911133
0 1 -1 -0.8164966 0.4082483 -0.4082483 0.704102 0.911133
1 0 0 0.7071068 -0.7071068 0 0.719727 0.895508
1 0 -1 0.4082483 -0.8164966 -0.4082483 0.719727 0.911133
1 1 -1 0.5773503 0.5773503 -0.5773503 0.704102 0.911133
1 1 0 0.7071068 0.7071068 0 0.704102 0.911133
0 0 1 -0.5773503 -0.5773503 0.5773503 0.719727 0.895508
0 1 1 -0.4082483 0.8164966 0.4082483 0.719727 0.911133
1 0 1 0.8164966 -0.4082483 0.4082483 0.719727 0.895508
1 1 1 0.4082483 0.4082483 0.8164966 0.704102 0.911133
0 0 0 -0.7071068 -0.7071068 0 0.704102 0.895508
0 0 -1 -0.4082483 -0.4082483 -0.8164966 0.704102 0.911133
0 0 -1 -0.4082483 -0.4082483 -0.8164966 0.719727 0.895508
0 1 -1 -0.8164966 0.4082483 -0.4082483 0.719727 0.911133
1 0 -1 0.4082483 -0.8164966 -0.4082483 0.704102 0.895508
1 0 0 0.7071068 -0.7071068 0 0.704102 0.895508
1 0 -1 0.4082483 -0.8164966 -0.4082483 0.719727 0.895508
1 1 -1 0.5773503 0.5773503 -0.5773503 0.719727 0.911133
0 1 0 -0.7071068 0.7071068 0 0.704102 0.895508
1 1 0 0.7071068 0.7071068 0 0.719727 0.895508
0 1 0 -0.7071068 0.7071068 0 0.704102 0.911133
0 0 1 -0.5773503 -0.5773503 0.5773503 0.704102 0.895508
0 0 0 -0.7071068 -0.7071068 0 0.704102 0.911133
1 0 0 0.7071068 -0.7071068 0 0.719727 0.911133
1 0 1 0.8164966 -0.4082483 0.4082483 0.704102 0.895508
1 1 0 0.7071068 0.7071068 0 0.719727 0.911133
0 1 1 -0.4082483 0.8164966 0.4082483 0.704102 0.895508
1 1 1 0.4082483 0.4082483 0.8164966 0.719727 0.895508
1 1 1 0.4082483 0.4082483 0.8164966 0.719727 0.911133
0 1 1 -0.4082483 0.8164966 0.4082483 0.704102 0.911133
3 1 2 3 
3 1 3 0 
3 12 13 5 
3 12 5 4 
3 14 15 6 
3 14 6 16 
3 17 18 19 
3 17 19 7 
3 20 21 19 
3 20 19 3 
3 8 9 22 
3 8 22 12 
3 23 24 25 
3 23 25 10 
3 26 4 27 
3 26 27 11 
3 28 29 27 
3 28 27 22 
3 23 10 30 
3 23 30 31 
