ply
format ascii 1.0
comment VCGLIB generated
element vertex 81
property float x
property float y
property float z
property float nx
property float ny
property float nz
property float texture_u
property float texture_v
element face 128
property list uchar int vertex_indices
end_header
0.75 1.73 -0 0 0 -1 0.125075 0.874925
0.75 1.98 -0 0 0 -1 0.125075 0.999900
1 1.98 -0 0 0 -1 0.000100 0.999900
1 1.73 -0 0 0 -1 0.000100 0.874925
0.75 0.73 -0 0 0 -1 0.125075 0.375025
0.75 0.98 -0 0 0 -1 0.125075 0.500000
1 0.98 -0 0 0 -1 0.000100 0.500000
1 0.73 -0 0 0 -1 0.000100 0.375025
-0.25 0.73 0 0 0 -1 0.624975 0.375025
-0.25 0.98 0 0 0 -1 0.624975 0.500000
-0 0.98 -0 0 0 -1 0.500000 0.500000
0 0.73 -0 0 0 -1 0.500000 0.375025
-0.25 1.73 0 0 0 -1 0.624975 0.874925
-0.25 1.98 0 0 0 -1 0.624975 0.999900
0 1.98 -0 0 0 -1 0.500000 0.999900
0 1.73 -0 0 0 -1 0.500000 0.874925
-0.25 1.23 0 0 0 -1 0.624975 0.624975
-0.25 1.48 0 0 0 -1 0.624975 0.749950
0 1.48 -0 0 0 -1 0.500000 0.749950
-0 1.23 -0 0 0 -1 0.500000 0.624975
-0.75 1.23 0 0 0 -1 0.874925 0.624975
-0.75 1.48 0 0 0 -1 0.874925 0.749950
-0.5 1.48 0 0 0 -1 0.749950 0.749950
-0.5 1.23 0 0 0 -1 0.749950 0.624975
-0.75 1.73 0 0 0 -1 0.874925 0.874925
-0.75 1.98 0 0 0 -1 0.874925 0.999900
-0.5 1.98 0 0 0 -1 0.749950 0.999900
-0.5 1.73 0 0 0 -1 0.749950 0.874925
-0.25 0.23 0 0 0 -1 0.624975 0.125075
-0.25 0.48 0 0 0 -1 0.624975 0.250050
0 0.48 -0 0 0 -1 0.500000 0.250050
0 0.23 -0 0 0 -1 0.500000 0.125075
-0.75 0.23 0 0 0 -1 0.874925 0.125075
-0.75 0.48 0 0 0 -1 0.874925 0.250050
-0.5 0.48 0 0 0 -1 0.749950 0.250050
-0.5 0.23 0 0 0 -1 0.749950 0.125075
-0.75 0.73 0 0 0 -1 0.874925 0.375025
-0.75 0.98 0 0 0 -1 0.874925 0.500000
-0.5 0.98 0 0 0 -1 0.749950 0.500000
-0.5 0.73 0 0 0 -1 0.749950 0.375025
0.75 0.23 -0 0 0 -1 0.125075 0.125075
0.75 0.48 -0 0 0 -1 0.125075 0.250050
1 0.48 -0 0 0 -1 0.000100 0.250050
1 0.23 -0 0 0 -1 0.000100 0.125075
0.25 0.23 -0 0 0 -1 0.375025 0.125075
0.25 0.48 -0 0 0 -1 0.375025 0.250050
0.5 0.48 -0 0 0 -1 0.250050 0.250050
0.5 0.23 -0 0 0 -1 0.250050 0.125075
0.25 0.73 -0 0 0 -1 0.375025 0.375025
0.25 0.98 -0 0 0 -1 0.375025 0.500000
0.5 0.98 -0 0 0 -1 0.250050 0.500000
0.5 0.73 -0 0 0 -1 0.250050 0.375025
0.75 1.23 -0 0 0 -1 0.125075 0.624975
0.75 1.48 -0 0 0 -1 0.125075 0.749950
1 1.48 -0 0 0 -1 0.000100 0.749950
1 1.23 -0 0 0 -1 0.000100 0.624975
0.25 1.23 -0 0 0 -1 0.375025 0.624975
0.25 1.48 -0 0 0 -1 0.375025 0.749950
0.5 1.48 -0 0 0 -1 0.250050 0.749950
0.5 1.23 -0 0 0 -1 0.250050 0.624975
0.25 1.73 -0 0 0 -1 0.375025 0.874925
0.25 1.98 -0 0 0 -1 0.375025 0.999900
0.5 1.98 -0 0 0 -1 0.250050 0.999900
0.5 1.73 -0 0 0 -1 0.250050 0.874925
0.25 -0.02 -0 0 0 -1 0.375025 0.000100
0.5 -0.02 -0 0 0 -1 0.250050 0.000100
-0 -0.02 -0 0 0 -1 0.500000 0.000100
0.75 -0.02 -0 0 0 -1 0.125075 0.000100
1 -0.02 -0 0 0 -1 0.000100 0.000100
-1 0.48 0 0 0 -1 0.999900 0.250050
-1 0.73 0 0 0 -1 0.999900 0.375025
-1 0.98 0 0 0 -1 0.999900 0.500000
-0.75 -0.02 0 0 0 -1 0.874925 0.000100
-0.5 -0.02 0 0 0 -1 0.749950 0.000100
-1 -0.02 0 0 0 -1 0.999900 0.000100
-1 0.23 0 0 0 -1 0.999900 0.125075
-0.25 -0.02 0 0 0 -1 0.624975 0.000100
-1 1.48 0 0 0 -1 0.999900 0.749950
-1 1.73 0 0 0 -1 0.999900 0.874925
-1 1.98 0 0 0 -1 0.999900 0.999900
-1 1.23 0 0 0 -1 0.999900 0.624975
3 0 1 2 
3 0 2 3 
3 4 5 6 
3 4 6 7 
3 8 9 10 
3 8 10 11 
3 12 13 14 
3 12 14 15 
3 16 17 18 
3 16 18 19 
3 20 21 22 
3 20 22 23 
3 24 25 26 
3 24 26 27 
3 28 29 30 
3 28 30 31 
3 32 33 34 
3 32 34 35 
3 36 37 38 
3 36 38 39 
3 40 41 42 
3 40 42 43 
3 44 45 46 
3 44 46 47 
3 48 49 50 
3 48 50 51 
3 52 53 54 
3 52 54 55 
3 56 57 58 
3 56 58 59 
3 60 61 62 
3 60 62 63 
3 57 60 63 
3 57 63 58 
3 18 15 60 
3 18 60 57 
3 15 14 61 
3 15 61 60 
3 49 56 59 
3 49 59 50 
3 10 19 56 
3 10 56 49 
3 19 18 57 
3 19 57 56 
3 5 52 55 
3 5 55 6 
3 50 59 52 
3 50 52 5 
3 59 58 53 
3 59 53 52 
3 45 48 51 
3 45 51 46 
3 30 11 48 
3 30 48 45 
3 11 10 49 
3 11 49 48 
3 64 44 47 
3 64 47 65 
3 66 31 44 
3 66 44 64 
3 31 30 45 
3 31 45 44 
3 67 40 43 
3 67 43 68 
3 65 47 40 
3 65 40 67 
3 47 46 41 
3 47 41 40 
3 33 36 39 
3 33 39 34 
3 69 70 36 
3 69 36 33 
3 70 71 37 
3 70 37 36 
3 72 32 35 
3 72 35 73 
3 74 75 32 
3 74 32 72 
3 75 69 33 
3 75 33 32 
3 76 28 31 
3 76 31 66 
3 73 35 28 
3 73 28 76 
3 35 34 29 
3 35 29 28 
3 21 24 27 
3 21 27 22 
3 77 78 24 
3 77 24 21 
3 78 79 25 
3 78 25 24 
3 37 20 23 
3 37 23 38 
3 71 80 20 
3 71 20 37 
3 80 77 21 
3 80 21 20 
3 9 16 19 
3 9 19 10 
3 38 23 16 
3 38 16 9 
3 23 22 17 
3 23 17 16 
3 17 12 15 
3 17 15 18 
3 22 27 12 
3 22 12 17 
3 27 26 13 
3 27 13 12 
3 29 8 11 
3 29 11 30 
3 34 39 8 
3 34 8 29 
3 39 38 9 
3 39 9 8 
3 41 4 7 
3 41 7 42 
3 46 51 4 
3 46 4 41 
3 51 50 5 
3 51 5 4 
3 53 0 3 
3 53 3 54 
3 58 63 0 
3 58 0 53 
3 63 62 1 
3 63 1 0 
