ply
format ascii 1.0
comment VCGLIB generated
element vertex 24
property float x
property float y
property float z
property float nx
property float ny
property float nz
property float texture_u
property float texture_v
element face 12
property list uchar int vertex_indices
end_header
3.319577 0.06475252 2.899145 0 0 2 0.625000 0.500000
-3.319577 0.06475252 2.899145 0 0 1 0.875000 0.500000
-3.319577 -0.06475252 2.899145 0 0 2 0.875000 0.750000
3.319577 -0.06475252 2.899145 0 0 1 0.625000 0.750000
3.319577 -0.06475252 -2.899145 0 -2 0 0.001680 0.003082
3.319577 -0.06475252 2.899145 0 -1 0 0.998320 0.003082
-3.319577 -0.06475252 2.899145 0 -2 0 0.998320 0.999723
-3.319577 -0.06475252 -2.899145 0 -1 0 0.001680 0.999723
-3.319577 -0.06475252 -2.899145 -2 0 0 0.375000 0.000000
-3.319577 -0.06475252 2.899145 -1 0 0 0.625000 0.000000
-3.319577 0.06475252 2.899145 -2 0 0 0.625000 0.250000
-3.319577 0.06475252 -2.899145 -1 0 0 0.375000 0.250000
-3.319577 0.06475252 -2.899145 0 0 -2 0.125000 0.500000
3.319577 0.06475252 -2.899145 0 0 -1 0.375000 0.500000
3.319577 -0.06475252 -2.899145 0 0 -2 0.375000 0.750000
-3.319577 -0.06475252 -2.899145 0 0 -1 0.125000 0.750000
3.319577 0.06475252 -2.899145 2 0 0 0.375000 0.500000
3.319577 0.06475252 2.899145 1 0 0 0.625000 0.500000
3.319577 -0.06475252 2.899145 2 0 0 0.625000 0.750000
3.319577 -0.06475252 -2.899145 1 0 0 0.375000 0.750000
-3.319577 0.06475252 -2.899145 0 2 0 0.005151 0.007267
-3.319577 0.06475252 2.899145 0 1 0 0.994849 0.007267
3.319577 0.06475252 2.899145 0 2 0 0.994849 0.996965
3.319577 0.06475252 -2.899145 0 1 0 0.005151 0.996965
3 0 1 2 
3 0 2 3 
3 4 5 6 
3 4 6 7 
3 8 9 10 
3 8 10 11 
3 12 13 14 
3 12 14 15 
3 16 17 18 
3 16 18 19 
3 20 21 22 
3 20 22 23 
