ply
format ascii 1.0
comment VCGLIB generated
comment TextureFile tree4-RGB.png
comment TextureFile tree4-RGBA.png
element vertex 520
property float x
property float y
property float z
property float nx
property float ny
property float nz
property float texture_u
property float texture_v
element face 658
property list uchar int vertex_indices
property int texnumber
end_header
-3 1 -2 -0.4082483 -0.4082483 -0.8164966 0.838135 0.984131
-3 1 -1 -0.7071068 -0.7071068 0 0.853760 0.984131
-3 2 -1 -1 0 0 0.853760 0.999756
-3 2 -2 -0.7071068 0 -0.7071068 0.838135 0.999756
-2 1 -1 -0.164399 -0.9863939 0 0.853760 0.984131
-2 1 -2 0.2294157 -0.6882472 -0.6882472 0.853760 0.999756
-2 2 -2 -0.1622214 -0.1622214 -0.9733285 0.838135 0.999756
-2 2 -1 -0.8944272 0 -0.4472136 0.838135 0.999756
-3 3 -1 -0.6882472 0.6882472 -0.2294157 0.853760 0.999756
-3 3 -2 -0.8164966 0.4082483 -0.4082483 0.838135 0.999756
-2 3 -2 -0.2294157 0.6882472 -0.6882472 0.838135 0.999756
-2 3 -1 0 1 0 0.838135 0.999756
-3 1 0 -0.7071068 -0.7071068 0 0.853760 0.984131
-3 2 0 -1 0 0 0.853760 0.999756
-2 1 0 -0.1622214 -0.9733285 -0.1622214 0.853760 0.984131
-2 2 0 0 -1 0 0.838135 0.999756
-3 3 0 -0.6882472 0.6882472 -0.2294157 0.853760 0.999756
-2 3 0 -0.5570861 0.7427813 -0.3713907 0.838135 0.999756
-3 1 1 -0.6882472 -0.6882472 -0.2294157 0.853760 0.984131
-3 2 1 -0.9863939 0 -0.164399 0.853760 0.999756
-2 1 1 0 -0.9863939 -0.164399 0.853760 0.984131
-2 2 1 -0.7071068 0 -0.7071068 0.838135 0.999756
-3 3 1 -0.6882472 0.6882472 -0.2294157 0.853760 0.999756
-2 3 1 -0.8164966 0.4082483 -0.4082483 0.838135 0.999756
-3 1 2 -0.5773503 -0.5773503 0.5773503 0.853760 0.984131
-3 2 2 -0.9428091 -0.2357023 0.2357023 0.853760 0.999756
-2 1 2 -0.2357023 -0.9428091 0.2357023 0.853760 0.984131
-2 2 2 -0.6882472 -0.6882472 0.2294157 0.838135 0.999756
-3 3 2 -0.7071068 0.7071068 0 0.853760 0.999756
-2 3 2 -0.6882472 0.6882472 0.2294157 0.838135 0.999756
-3 2 3 -0.5773503 -0.5773503 0.5773503 0.853760 0.984131
-3 3 3 -0.4082483 0.8164966 0.4082483 0.853760 0.999756
-2 2 3 -0.4364358 -0.2182179 0.8728716 0.853760 0.984131
-2 3 3 0 0.7071068 0.7071068 0.838135 0.999756
-1 1 -1 0 -0.9863939 0.164399 0.853760 0.984131
-1 1 -2 0.2294157 -0.6882472 -0.6882472 0.853760 0.999756
-1 2 -2 0 0 -1 0.838135 0.999756
-1 2 -1 -0.3333333 -0.6666667 -0.6666667 0.838135 0.999756
-1 3 -2 0 0.7071068 -0.7071068 0.838135 0.999756
-1 3 -1 -0.2981424 0.745356 -0.5962848 0.838135 0.999756
-1 1 0 -0.4242641 -0.7071068 -0.5656855 0.322510 0.999756
-1 2 0 -0.6172134 -0.1543034 -0.7715167 0.322510 0.999756
-1 3 0 -0.7682213 0 -0.6401844 0.322510 0.999756
-1 1 1 -0.5144958 -0.6859944 0.5144958 0.338135 0.999756
-1 2 1 -0.4472136 0 0.8944272 0.338135 0.999756
-1 3 1 -0.5345225 -0.2672613 0.8017837 0.338135 0.999756
-2 4 1 -0.9284767 0 0.3713907 0.853760 0.999756
-2 4 0 -0.7071068 0 -0.7071068 0.838135 0.999756
-1 4 0 -0.7715167 -0.1543034 -0.6172134 0.322510 0.999756
-1 4 1 -0.5773503 0.5773503 0.5773503 0.338135 0.999756
-2 5 1 -0.4082483 0.8164966 0.4082483 0.853760 0.999756
-2 5 0 -0.8164966 0.4082483 -0.4082483 0.838135 0.999756
-1 5 0 -0.1825742 0.9128709 -0.3651484 0.838135 0.999756
-1 5 1 -0.4082483 0.8164966 0.4082483 0.838135 0.999756
-1 1 2 -0.1622214 -0.9733285 -0.1622214 0.853760 0.984131
-1 2 2 0 -0.9486833 -0.3162278 0.838135 0.999756
-1 3 2 -0.4082483 0.8164966 0.4082483 0.838135 0.999756
-2 4 2 -0.4082483 0.8164966 0.4082483 0.853760 0.999756
-1 4 2 -0.5070926 0.1690309 0.8451543 0.838135 0.999756
-2 1 3 -0.5773503 -0.5773503 0.5773503 0.853760 0.984131
-1 1 3 -0.2294157 -0.6882472 0.6882472 0.853760 0.984131
-1 2 3 0 0 1 0.838135 0.999756
-1 3 3 -0.2294157 0.6882472 0.6882472 0.838135 0.999756
0 1 -1 0 -1 0 0.853760 0.984131
0 1 -2 0 -0.7071068 -0.7071068 0.853760 0.999756
0 2 -2 0.1622214 -0.1622214 -0.9733285 0.838135 0.999756
0 2 -1 0 -0.9486833 -0.3162278 0.838135 0.999756
0 3 -2 0 0.7071068 -0.7071068 0.838135 0.999756
0 3 -1 0 0.8944272 -0.4472136 0.838135 0.999756
0 1 0 0.3333333 -0.6666667 -0.6666667 0.322510 0.999756
0 2 0 0.3651484 -0.1825742 -0.9128709 0.322510 0.999756
0 3 0 0.5345225 0.2672613 -0.8017837 0.322510 0.999756
-1 4 -1 -0.7071068 0 -0.7071068 0.838135 0.999756
0 4 -1 0.6882472 -0.2294157 -0.6882472 0.838135 0.999756
0 4 0 0.7001401 0.140028 -0.7001401 0.322510 0.999756
-1 5 -1 -0.8164966 0.4082483 -0.4082483 0.838135 0.999756
0 5 -1 0.5773503 0.5773503 -0.5773503 0.838135 0.999756
0 5 0 0.2357023 0.9428091 -0.2357023 0.838135 0.999756
-1 0 0 -0.4082483 -0.4082483 -0.8164966 0.322510 0.984131
-1 0 1 -0.5773503 -0.5773503 0.5773503 0.338135 0.984131
0 0 1 0.8164966 -0.4082483 0.4082483 0.354248 0.984131
0 0 0 0.4082483 -0.8164966 -0.4082483 0.354248 0.999756
0 1 1 0.3244428 -0.8111071 0.4866643 0.322510 0.999756
0 2 1 0.6396022 -0.4264015 0.6396022 0.322510 0.999756
0 3 1 0.6172134 0.1543034 0.7715167 0.322510 0.999756
0 4 1 0.6172134 0.1543034 0.7715167 0.322510 0.999756
0 5 1 0.3651484 0.9128709 0.1825742 0.838135 0.999756
0 1 2 -0.1561738 -0.9370426 -0.3123476 0.853760 0.984131
0 2 2 -0.3333333 -0.6666667 -0.6666667 0.838135 0.999756
0 3 2 0.1961161 0.9805807 0 0.838135 0.999756
0 4 2 0.6882472 0.2294157 0.6882472 0.838135 0.999756
-1 5 2 -0.4082483 0.8164966 0.4082483 0.853760 0.999756
0 5 2 0.4082483 0.4082483 0.8164966 0.838135 0.999756
0 1 3 -0.2294157 -0.6882472 0.6882472 0.853760 0.984131
0 2 3 -0.1622214 0.1622214 0.9733285 0.838135 0.999756
0 3 3 0 0.7071068 0.7071068 0.838135 0.999756
1 1 -1 0.2182179 -0.8728716 -0.4364358 0.853760 0.984131
1 1 -2 0.4082483 -0.8164966 -0.4082483 0.853760 0.999756
1 2 -2 0.4866643 -0.3244428 -0.8111071 0.838135 0.999756
1 2 -1 -0.1825742 -0.9128709 -0.3651484 0.838135 0.999756
1 3 -2 0 0.7071068 -0.7071068 0.838135 0.999756
1 3 -1 -0.3123476 0.9370426 -0.1561738 0.838135 0.999756
1 1 0 -0.3162278 -0.9486833 0 0.853760 0.984131
1 2 0 -0.4082483 -0.4082483 -0.8164966 0.838135 0.999756
1 3 0 0.1961161 0.7844645 -0.5883484 0.838135 0.999756
1 1 1 0 -0.9863939 -0.164399 0.853760 0.984131
1 2 1 0 -0.7071068 -0.7071068 0.838135 0.999756
1 3 1 0 0.9805807 0.1961161 0.838135 0.999756
1 4 0 0.7071068 0 -0.7071068 0.838135 0.999756
1 4 1 0.7071068 0 0.7071068 0.838135 0.999756
1 5 0 0.5773503 0.5773503 -0.5773503 0.838135 0.999756
1 5 1 0.4082483 0.4082483 0.8164966 0.838135 0.999756
1 1 2 0.1924501 -0.9622505 0.1924501 0.853760 0.984131
1 2 2 0.7071068 0 0.7071068 0.838135 0.999756
1 3 2 0.1961161 0.9805807 0 0.838135 0.999756
1 1 3 0.8164966 -0.4082483 0.4082483 0.853760 0.984131
1 2 3 0.6882472 0.2294157 0.6882472 0.838135 0.999756
1 3 3 0.4082483 0.4082483 0.8164966 0.838135 0.999756
2 2 -1 0.9128709 -0.1825742 -0.3651484 0.853760 0.984131
2 2 -2 0.4082483 -0.8164966 -0.4082483 0.853760 0.999756
2 3 -2 0.5773503 0.5773503 -0.5773503 0.838135 0.999756
2 3 -1 0.7071068 0.7071068 0 0.838135 0.999756
2 1 0 0.6882472 -0.6882472 0.2294157 0.853760 0.984131
2 1 -1 0.4082483 -0.8164966 -0.4082483 0.853760 0.999756
2 2 0 0.9863939 0 0.164399 0.838135 0.999756
2 3 0 0.7071068 0.7071068 0 0.838135 0.999756
2 1 1 0.7071068 -0.7071068 0 0.853760 0.984131
2 2 1 0.9733285 -0.1622214 -0.1622214 0.838135 0.999756
2 3 1 0.7071068 0.7071068 0 0.838135 0.999756
2 1 2 0.8164966 -0.4082483 0.4082483 0.853760 0.984131
2 2 2 0.7071068 0 0.7071068 0.838135 0.999756
2 3 2 0.4082483 0.4082483 0.8164966 0.838135 0.999756
-1 0 1 -0.5773503 -0.5773503 0.5773503 0.338623 0.984131
-1 0 0 -0.4082483 -0.4082483 -0.8164966 0.338623 0.999756
-1 0 0 -0.4082483 -0.4082483 -0.8164966 0.338135 0.984131
-1 1 0 -0.4242641 -0.7071068 -0.5656855 0.338135 0.999756
0 0 0 0.4082483 -0.8164966 -0.4082483 0.322510 0.984131
0 0 1 0.8164966 -0.4082483 0.4082483 0.322510 0.984131
0 0 0 0.4082483 -0.8164966 -0.4082483 0.338135 0.984131
0 1 0 0.3333333 -0.6666667 -0.6666667 0.338135 0.999756
-1 0 1 -0.5773503 -0.5773503 0.5773503 0.322510 0.984131
0 0 1 0.8164966 -0.4082483 0.4082483 0.338135 0.984131
0 1 1 0.3244428 -0.8111071 0.4866643 0.338135 0.999756
-1 1 1 -0.5144958 -0.6859944 0.5144958 0.322510 0.999756
-1 1 1 -0.5144958 -0.6859944 0.5144958 0.338135 0.984131
-1 1 0 -0.4242641 -0.7071068 -0.5656855 0.322510 0.984131
-1 1 0 -0.4242641 -0.7071068 -0.5656855 0.338135 0.984131
-1 2 0 -0.6172134 -0.1543034 -0.7715167 0.338135 0.999756
0 1 0 0.3333333 -0.6666667 -0.6666667 0.322510 0.984131
0 1 1 0.3244428 -0.8111071 0.4866643 0.322510 0.984131
0 1 0 0.3333333 -0.6666667 -0.6666667 0.338135 0.984131
0 2 0 0.3651484 -0.1825742 -0.9128709 0.338135 0.999756
-1 1 1 -0.5144958 -0.6859944 0.5144958 0.322510 0.984131
0 1 1 0.3244428 -0.8111071 0.4866643 0.338135 0.984131
0 2 1 0.6396022 -0.4264015 0.6396022 0.338135 0.999756
-1 2 1 -0.4472136 0 0.8944272 0.322510 0.999756
-1 2 1 -0.4472136 0 0.8944272 0.338135 0.984131
-1 2 0 -0.6172134 -0.1543034 -0.7715167 0.322510 0.984131
-1 2 0 -0.6172134 -0.1543034 -0.7715167 0.338135 0.984131
-1 3 0 -0.7682213 0 -0.6401844 0.338135 0.999756
0 2 0 0.3651484 -0.1825742 -0.9128709 0.322510 0.984131
0 2 1 0.6396022 -0.4264015 0.6396022 0.322510 0.984131
0 2 0 0.3651484 -0.1825742 -0.9128709 0.338135 0.984131
0 3 0 0.5345225 0.2672613 -0.8017837 0.338135 0.999756
-1 2 1 -0.4472136 0 0.8944272 0.322510 0.984131
0 2 1 0.6396022 -0.4264015 0.6396022 0.338135 0.984131
0 3 1 0.6172134 0.1543034 0.7715167 0.338135 0.999756
-1 3 1 -0.5345225 -0.2672613 0.8017837 0.322510 0.999756
-1 3 1 -0.5345225 -0.2672613 0.8017837 0.338135 0.984131
-1 3 0 -0.7682213 0 -0.6401844 0.322510 0.984131
-1 3 0 -0.7682213 0 -0.6401844 0.338135 0.984131
-1 4 0 -0.7715167 -0.1543034 -0.6172134 0.338135 0.999756
0 3 0 0.5345225 0.2672613 -0.8017837 0.322510 0.984131
0 3 1 0.6172134 0.1543034 0.7715167 0.322510 0.984131
0 3 0 0.5345225 0.2672613 -0.8017837 0.338135 0.984131
0 4 0 0.7001401 0.140028 -0.7001401 0.338135 0.999756
-1 4 1 -0.5773503 0.5773503 0.5773503 0.338623 0.984131
0 4 1 0.6172134 0.1543034 0.7715167 0.354248 0.984131
0 4 0 0.7001401 0.140028 -0.7001401 0.354248 0.999756
-1 4 0 -0.7715167 -0.1543034 -0.6172134 0.338623 0.999756
-1 3 1 -0.5345225 -0.2672613 0.8017837 0.322510 0.984131
0 3 1 0.6172134 0.1543034 0.7715167 0.338135 0.984131
0 4 1 0.6172134 0.1543034 0.7715167 0.338135 0.999756
-1 4 1 -0.5773503 0.5773503 0.5773503 0.322510 0.999756
-3 1 -1 -0.7071068 -0.7071068 0 0.838135 0.984131
-3 1 -2 -0.4082483 -0.4082483 -0.8164966 0.838135 0.999756
-3 1 -2 -0.4082483 -0.4082483 -0.8164966 0.853760 0.984131
-3 2 -2 -0.7071068 0 -0.7071068 0.853760 0.999756
-2 1 -2 0.2294157 -0.6882472 -0.6882472 0.838135 0.984131
-2 1 -1 -0.164399 -0.9863939 0 0.838135 0.984131
-2 1 -2 0.2294157 -0.6882472 -0.6882472 0.853760 0.984131
-2 2 -2 -0.1622214 -0.1622214 -0.9733285 0.853760 0.999756
-3 2 -1 -1 0 0 0.838135 0.984131
-2 2 -1 -0.8944272 0 -0.4472136 0.853760 0.984131
-2 2 -1 -0.8944272 0 -0.4472136 0.853760 0.999756
-3 2 -1 -1 0 0 0.838135 0.999756
-3 2 -1 -1 0 0 0.853760 0.984131
-3 2 -2 -0.7071068 0 -0.7071068 0.838135 0.984131
-3 2 -2 -0.7071068 0 -0.7071068 0.853760 0.984131
-3 3 -2 -0.8164966 0.4082483 -0.4082483 0.853760 0.999756
-2 2 -2 -0.1622214 -0.1622214 -0.9733285 0.838135 0.984131
-2 2 -1 -0.8944272 0 -0.4472136 0.838135 0.984131
-2 2 -2 -0.1622214 -0.1622214 -0.9733285 0.853760 0.984131
-2 3 -2 -0.2294157 0.6882472 -0.6882472 0.853760 0.999756
-3 3 -1 -0.6882472 0.6882472 -0.2294157 0.838135 0.984131
-2 3 -1 0 1 0 0.853760 0.984131
-2 3 -1 0 1 0 0.853760 0.999756
-3 3 -1 -0.6882472 0.6882472 -0.2294157 0.838135 0.999756
-3 1 0 -0.7071068 -0.7071068 0 0.838135 0.984131
-3 1 -1 -0.7071068 -0.7071068 0 0.838135 0.999756
-2 1 -1 -0.164399 -0.9863939 0 0.853760 0.999756
-2 1 0 -0.1622214 -0.9733285 -0.1622214 0.838135 0.984131
-3 2 0 -1 0 0 0.838135 0.984131
-2 2 0 0 -1 0 0.853760 0.984131
-2 2 0 0 -1 0 0.853760 0.999756
-3 2 0 -1 0 0 0.838135 0.999756
-3 2 0 -1 0 0 0.853760 0.984131
-2 2 0 0 -1 0 0.838135 0.984131
-3 3 0 -0.6882472 0.6882472 -0.2294157 0.838135 0.984131
-2 3 0 -0.5570861 0.7427813 -0.3713907 0.853760 0.984131
-2 3 0 -0.5570861 0.7427813 -0.3713907 0.853760 0.999756
-3 3 0 -0.6882472 0.6882472 -0.2294157 0.838135 0.999756
-3 1 1 -0.6882472 -0.6882472 -0.2294157 0.838135 0.984131
-3 1 0 -0.7071068 -0.7071068 0 0.838135 0.999756
-2 1 0 -0.1622214 -0.9733285 -0.1622214 0.853760 0.999756
-2 1 1 0 -0.9863939 -0.164399 0.838135 0.984131
-3 2 1 -0.9863939 0 -0.164399 0.838135 0.984131
-2 2 1 -0.7071068 0 -0.7071068 0.853760 0.984131
-2 2 1 -0.7071068 0 -0.7071068 0.853760 0.999756
-3 2 1 -0.9863939 0 -0.164399 0.838135 0.999756
-3 2 1 -0.9863939 0 -0.164399 0.853760 0.984131
-2 2 1 -0.7071068 0 -0.7071068 0.838135 0.984131
-3 3 1 -0.6882472 0.6882472 -0.2294157 0.838135 0.984131
-2 3 1 -0.8164966 0.4082483 -0.4082483 0.853760 0.984131
-2 3 1 -0.8164966 0.4082483 -0.4082483 0.853760 0.999756
-3 3 1 -0.6882472 0.6882472 -0.2294157 0.838135 0.999756
-3 1 2 -0.5773503 -0.5773503 0.5773503 0.838135 0.984131
-3 1 1 -0.6882472 -0.6882472 -0.2294157 0.838135 0.999756
-2 1 1 0 -0.9863939 -0.164399 0.853760 0.999756
-2 1 2 -0.2357023 -0.9428091 0.2357023 0.838135 0.984131
-3 2 2 -0.9428091 -0.2357023 0.2357023 0.838135 0.984131
-2 2 2 -0.6882472 -0.6882472 0.2294157 0.853760 0.984131
-2 2 2 -0.6882472 -0.6882472 0.2294157 0.853760 0.999756
-3 2 2 -0.9428091 -0.2357023 0.2357023 0.838135 0.999756
-3 2 2 -0.9428091 -0.2357023 0.2357023 0.853760 0.984131
-2 2 2 -0.6882472 -0.6882472 0.2294157 0.838135 0.984131
-3 3 2 -0.7071068 0.7071068 0 0.838135 0.984131
-2 3 2 -0.6882472 0.6882472 0.2294157 0.853760 0.984131
-2 3 2 -0.6882472 0.6882472 0.2294157 0.853760 0.999756
-3 3 2 -0.7071068 0.7071068 0 0.838135 0.999756
-3 2 3 -0.5773503 -0.5773503 0.5773503 0.838135 0.984131
-2 2 3 -0.4364358 -0.2182179 0.8728716 0.838135 0.984131
-3 3 3 -0.4082483 0.8164966 0.4082483 0.838135 0.984131
-2 3 3 0 0.7071068 0.7071068 0.853760 0.984131
-2 3 3 0 0.7071068 0.7071068 0.853760 0.999756
-3 3 3 -0.4082483 0.8164966 0.4082483 0.838135 0.999756
-2 1 -2 0.2294157 -0.6882472 -0.6882472 0.838135 0.999756
-1 1 -2 0.2294157 -0.6882472 -0.6882472 0.838135 0.984131
-1 1 -1 0 -0.9863939 0.164399 0.838135 0.984131
-1 1 -2 0.2294157 -0.6882472 -0.6882472 0.853760 0.984131
-1 2 -2 0 0 -1 0.853760 0.999756
-1 2 -1 -0.3333333 -0.6666667 -0.6666667 0.853760 0.984131
-1 2 -1 -0.3333333 -0.6666667 -0.6666667 0.853760 0.999756
-1 2 -2 0 0 -1 0.838135 0.984131
-1 2 -1 -0.3333333 -0.6666667 -0.6666667 0.838135 0.984131
-1 2 -2 0 0 -1 0.853760 0.984131
-1 3 -2 0 0.7071068 -0.7071068 0.853760 0.999756
-2 3 -1 0 1 0 0.838135 0.984131
-1 3 -1 -0.2981424 0.745356 -0.5962848 0.853760 0.984131
-1 3 -1 -0.2981424 0.745356 -0.5962848 0.853760 0.999756
-2 1 -1 -0.164399 -0.9863939 0 0.838135 0.999756
-1 1 -1 0 -0.9863939 0.164399 0.853760 0.999756
-1 1 0 -0.4242641 -0.7071068 -0.5656855 0.853760 0.984131
-1 1 0 -0.4242641 -0.7071068 -0.5656855 0.838135 0.984131
-1 2 0 -0.6172134 -0.1543034 -0.7715167 0.838135 0.999756
-1 2 0 -0.6172134 -0.1543034 -0.7715167 0.853760 0.984131
-1 2 0 -0.6172134 -0.1543034 -0.7715167 0.853760 0.999756
-1 2 0 -0.6172134 -0.1543034 -0.7715167 0.838135 0.984131
-1 3 0 -0.7682213 0 -0.6401844 0.838135 0.999756
-2 3 0 -0.5570861 0.7427813 -0.3713907 0.838135 0.984131
-1 3 0 -0.7682213 0 -0.6401844 0.853760 0.984131
-1 3 0 -0.7682213 0 -0.6401844 0.853760 0.999756
-2 1 0 -0.1622214 -0.9733285 -0.1622214 0.838135 0.999756
-1 1 0 -0.4242641 -0.7071068 -0.5656855 0.853760 0.999756
-1 1 1 -0.5144958 -0.6859944 0.5144958 0.853760 0.984131
-1 2 1 -0.4472136 0 0.8944272 0.853760 0.984131
-1 2 1 -0.4472136 0 0.8944272 0.853760 0.999756
-2 3 1 -0.8164966 0.4082483 -0.4082483 0.838135 0.984131
-1 3 1 -0.5345225 -0.2672613 0.8017837 0.853760 0.984131
-1 3 1 -0.5345225 -0.2672613 0.8017837 0.853760 0.999756
-2 4 0 -0.7071068 0 -0.7071068 0.853760 0.999756
-1 4 0 -0.7715167 -0.1543034 -0.6172134 0.838135 0.999756
-1 3 0 -0.7682213 0 -0.6401844 0.838135 0.984131
-2 4 1 -0.9284767 0 0.3713907 0.838135 0.984131
-1 4 1 -0.5773503 0.5773503 0.5773503 0.853760 0.984131
-1 4 0 -0.7715167 -0.1543034 -0.6172134 0.853760 0.999756
-1 4 1 -0.5773503 0.5773503 0.5773503 0.853760 0.999756
-2 4 1 -0.9284767 0 0.3713907 0.838135 0.999756
-2 4 1 -0.9284767 0 0.3713907 0.853760 0.984131
-2 4 0 -0.7071068 0 -0.7071068 0.838135 0.984131
-2 4 0 -0.7071068 0 -0.7071068 0.853760 0.984131
-2 5 0 -0.8164966 0.4082483 -0.4082483 0.853760 0.999756
-1 4 0 -0.7715167 -0.1543034 -0.6172134 0.838135 0.984131
-1 4 1 -0.5773503 0.5773503 0.5773503 0.838135 0.984131
-1 4 0 -0.7715167 -0.1543034 -0.6172134 0.853760 0.984131
-1 5 0 -0.1825742 0.9128709 -0.3651484 0.853760 0.999756
-2 5 1 -0.4082483 0.8164966 0.4082483 0.838135 0.984131
-1 5 1 -0.4082483 0.8164966 0.4082483 0.853760 0.984131
-1 5 1 -0.4082483 0.8164966 0.4082483 0.853760 0.999756
-2 5 1 -0.4082483 0.8164966 0.4082483 0.838135 0.999756
-2 1 1 0 -0.9863939 -0.164399 0.838135 0.999756
-1 1 1 -0.5144958 -0.6859944 0.5144958 0.853760 0.999756
-1 2 1 -0.4472136 0 0.8944272 0.838135 0.999756
-1 1 1 -0.5144958 -0.6859944 0.5144958 0.838135 0.984131
-1 1 2 -0.1622214 -0.9733285 -0.1622214 0.838135 0.984131
-1 2 2 0 -0.9486833 -0.3162278 0.853760 0.984131
-1 2 2 0 -0.9486833 -0.3162278 0.853760 0.999756
-1 3 1 -0.5345225 -0.2672613 0.8017837 0.838135 0.999756
-1 2 1 -0.4472136 0 0.8944272 0.838135 0.984131
-1 2 2 0 -0.9486833 -0.3162278 0.838135 0.984131
-2 3 2 -0.6882472 0.6882472 0.2294157 0.838135 0.984131
-1 3 2 -0.4082483 0.8164966 0.4082483 0.853760 0.984131
-1 3 2 -0.4082483 0.8164966 0.4082483 0.853760 0.999756
-1 4 1 -0.5773503 0.5773503 0.5773503 0.838135 0.999756
-1 3 1 -0.5345225 -0.2672613 0.8017837 0.838135 0.984131
-1 3 2 -0.4082483 0.8164966 0.4082483 0.838135 0.984131
-2 4 2 -0.4082483 0.8164966 0.4082483 0.838135 0.984131
-1 4 2 -0.5070926 0.1690309 0.8451543 0.853760 0.984131
-1 4 2 -0.5070926 0.1690309 0.8451543 0.853760 0.999756
-2 4 2 -0.4082483 0.8164966 0.4082483 0.838135 0.999756
-2 2 3 -0.4364358 -0.2182179 0.8728716 0.853760 0.999756
-2 1 3 -0.5773503 -0.5773503 0.5773503 0.838135 0.984131
-2 1 2 -0.2357023 -0.9428091 0.2357023 0.838135 0.999756
-1 1 2 -0.1622214 -0.9733285 -0.1622214 0.853760 0.999756
-1 1 3 -0.2294157 -0.6882472 0.6882472 0.838135 0.984131
-1 2 3 0 0 1 0.853760 0.984131
-1 2 3 0 0 1 0.853760 0.999756
-2 2 3 -0.4364358 -0.2182179 0.8728716 0.838135 0.999756
-1 2 3 0 0 1 0.838135 0.984131
-2 3 3 0 0.7071068 0.7071068 0.838135 0.984131
-1 3 3 -0.2294157 0.6882472 0.6882472 0.853760 0.984131
-1 3 3 -0.2294157 0.6882472 0.6882472 0.853760 0.999756
-1 1 -2 0.2294157 -0.6882472 -0.6882472 0.838135 0.999756
0 1 -2 0 -0.7071068 -0.7071068 0.838135 0.984131
0 1 -1 0 -1 0 0.838135 0.984131
0 1 -2 0 -0.7071068 -0.7071068 0.853760 0.984131
0 2 -2 0.1622214 -0.1622214 -0.9733285 0.853760 0.999756
0 2 -1 0 -0.9486833 -0.3162278 0.853760 0.984131
0 2 -1 0 -0.9486833 -0.3162278 0.853760 0.999756
0 2 -2 0.1622214 -0.1622214 -0.9733285 0.838135 0.984131
0 2 -1 0 -0.9486833 -0.3162278 0.838135 0.984131
0 2 -2 0.1622214 -0.1622214 -0.9733285 0.853760 0.984131
0 3 -2 0 0.7071068 -0.7071068 0.853760 0.999756
-1 3 -1 -0.2981424 0.745356 -0.5962848 0.838135 0.984131
0 3 -1 0 0.8944272 -0.4472136 0.853760 0.984131
0 3 -1 0 0.8944272 -0.4472136 0.853760 0.999756
-1 1 -1 0 -0.9863939 0.164399 0.838135 0.999756
0 1 -1 0 -1 0 0.853760 0.999756
0 1 0 0.3333333 -0.6666667 -0.6666667 0.853760 0.984131
0 1 0 0.3333333 -0.6666667 -0.6666667 0.838135 0.984131
0 2 0 0.3651484 -0.1825742 -0.9128709 0.838135 0.999756
0 2 0 0.3651484 -0.1825742 -0.9128709 0.853760 0.984131
0 2 0 0.3651484 -0.1825742 -0.9128709 0.838135 0.984131
0 3 0 0.5345225 0.2672613 -0.8017837 0.838135 0.999756
0 3 0 0.5345225 0.2672613 -0.8017837 0.853760 0.984131
-1 4 -1 -0.7071068 0 -0.7071068 0.853760 0.999756
0 3 -1 0 0.8944272 -0.4472136 0.838135 0.984131
0 3 0 0.5345225 0.2672613 -0.8017837 0.838135 0.984131
0 4 -1 0.6882472 -0.2294157 -0.6882472 0.853760 0.999756
0 4 0 0.7001401 0.140028 -0.7001401 0.838135 0.999756
0 4 0 0.7001401 0.140028 -0.7001401 0.853760 0.984131
-1 4 -1 -0.7071068 0 -0.7071068 0.838135 0.984131
-1 4 -1 -0.7071068 0 -0.7071068 0.853760 0.984131
-1 5 -1 -0.8164966 0.4082483 -0.4082483 0.853760 0.999756
0 4 -1 0.6882472 -0.2294157 -0.6882472 0.838135 0.984131
0 4 0 0.7001401 0.140028 -0.7001401 0.838135 0.984131
0 4 -1 0.6882472 -0.2294157 -0.6882472 0.853760 0.984131
0 5 -1 0.5773503 0.5773503 -0.5773503 0.853760 0.999756
-1 5 0 -0.1825742 0.9128709 -0.3651484 0.838135 0.984131
0 5 0 0.2357023 0.9428091 -0.2357023 0.853760 0.984131
0 5 0 0.2357023 0.9428091 -0.2357023 0.853760 0.999756
0 4 1 0.6172134 0.1543034 0.7715167 0.838135 0.984131
-1 5 1 -0.4082483 0.8164966 0.4082483 0.838135 0.984131
0 5 1 0.3651484 0.9128709 0.1825742 0.853760 0.984131
0 4 1 0.6172134 0.1543034 0.7715167 0.853760 0.984131
0 5 1 0.3651484 0.9128709 0.1825742 0.853760 0.999756
-1 1 1 -0.5144958 -0.6859944 0.5144958 0.838135 0.999756
0 1 1 0.3244428 -0.8111071 0.4866643 0.853760 0.999756
0 1 2 -0.1561738 -0.9370426 -0.3123476 0.838135 0.984131
0 1 1 0.3244428 -0.8111071 0.4866643 0.853760 0.984131
0 2 1 0.6396022 -0.4264015 0.6396022 0.853760 0.999756
0 2 2 -0.3333333 -0.6666667 -0.6666667 0.853760 0.984131
0 2 2 -0.3333333 -0.6666667 -0.6666667 0.853760 0.999756
0 2 2 -0.3333333 -0.6666667 -0.6666667 0.838135 0.984131
0 2 1 0.6396022 -0.4264015 0.6396022 0.853760 0.984131
0 3 1 0.6172134 0.1543034 0.7715167 0.853760 0.999756
0 3 2 0.1961161 0.9805807 0 0.853760 0.984131
0 3 2 0.1961161 0.9805807 0 0.853760 0.999756
0 3 2 0.1961161 0.9805807 0 0.838135 0.984131
0 3 1 0.6172134 0.1543034 0.7715167 0.853760 0.984131
0 4 1 0.6172134 0.1543034 0.7715167 0.853760 0.999756
-1 4 2 -0.5070926 0.1690309 0.8451543 0.838135 0.984131
0 4 2 0.6882472 0.2294157 0.6882472 0.853760 0.984131
0 4 2 0.6882472 0.2294157 0.6882472 0.853760 0.999756
0 4 2 0.6882472 0.2294157 0.6882472 0.838135 0.984131
-1 5 2 -0.4082483 0.8164966 0.4082483 0.838135 0.984131
0 5 2 0.4082483 0.4082483 0.8164966 0.853760 0.984131
0 5 2 0.4082483 0.4082483 0.8164966 0.853760 0.999756
-1 5 2 -0.4082483 0.8164966 0.4082483 0.838135 0.999756
-1 1 2 -0.1622214 -0.9733285 -0.1622214 0.838135 0.999756
0 1 2 -0.1561738 -0.9370426 -0.3123476 0.853760 0.999756
0 1 3 -0.2294157 -0.6882472 0.6882472 0.838135 0.984131
0 2 3 -0.1622214 0.1622214 0.9733285 0.853760 0.984131
0 2 3 -0.1622214 0.1622214 0.9733285 0.853760 0.999756
0 2 3 -0.1622214 0.1622214 0.9733285 0.838135 0.984131
-1 3 3 -0.2294157 0.6882472 0.6882472 0.838135 0.984131
0 3 3 0 0.7071068 0.7071068 0.853760 0.984131
0 3 3 0 0.7071068 0.7071068 0.853760 0.999756
0 1 -2 0 -0.7071068 -0.7071068 0.838135 0.999756
1 1 -2 0.4082483 -0.8164966 -0.4082483 0.838135 0.984131
1 1 -1 0.2182179 -0.8728716 -0.4364358 0.838135 0.984131
1 1 -2 0.4082483 -0.8164966 -0.4082483 0.853760 0.984131
1 2 -2 0.4866643 -0.3244428 -0.8111071 0.853760 0.999756
1 2 -1 -0.1825742 -0.9128709 -0.3651484 0.853760 0.984131
1 2 -1 -0.1825742 -0.9128709 -0.3651484 0.853760 0.999756
1 2 -2 0.4866643 -0.3244428 -0.8111071 0.838135 0.984131
1 2 -1 -0.1825742 -0.9128709 -0.3651484 0.838135 0.984131
1 2 -2 0.4866643 -0.3244428 -0.8111071 0.853760 0.984131
1 3 -2 0 0.7071068 -0.7071068 0.853760 0.999756
1 3 -1 -0.3123476 0.9370426 -0.1561738 0.853760 0.984131
1 3 -1 -0.3123476 0.9370426 -0.1561738 0.853760 0.999756
0 2 0 0.3651484 -0.1825742 -0.9128709 0.853760 0.999756
0 1 -1 0 -1 0 0.838135 0.999756
1 1 -1 0.2182179 -0.8728716 -0.4364358 0.853760 0.999756
1 1 0 -0.3162278 -0.9486833 0 0.838135 0.984131
1 2 0 -0.4082483 -0.4082483 -0.8164966 0.853760 0.984131
1 2 0 -0.4082483 -0.4082483 -0.8164966 0.853760 0.999756
0 3 0 0.5345225 0.2672613 -0.8017837 0.853760 0.999756
1 2 0 -0.4082483 -0.4082483 -0.8164966 0.838135 0.984131
1 3 0 0.1961161 0.7844645 -0.5883484 0.853760 0.984131
1 3 0 0.1961161 0.7844645 -0.5883484 0.853760 0.999756
0 1 1 0.3244428 -0.8111071 0.4866643 0.838135 0.984131
0 1 0 0.3333333 -0.6666667 -0.6666667 0.838135 0.999756
1 1 0 -0.3162278 -0.9486833 0 0.853760 0.999756
1 1 1 0 -0.9863939 -0.164399 0.838135 0.984131
0 2 1 0.6396022 -0.4264015 0.6396022 0.838135 0.984131
1 2 1 0 -0.7071068 -0.7071068 0.853760 0.984131
1 2 1 0 -0.7071068 -0.7071068 0.853760 0.999756
0 2 1 0.6396022 -0.4264015 0.6396022 0.838135 0.999756
1 2 1 0 -0.7071068 -0.7071068 0.838135 0.984131
0 3 1 0.6172134 0.1543034 0.7715167 0.838135 0.984131
1 3 1 0 0.9805807 0.1961161 0.853760 0.984131
1 3 1 0 0.9805807 0.1961161 0.853760 0.999756
0 3 1 0.6172134 0.1543034 0.7715167 0.838135 0.999756
0 4 0 0.7001401 0.140028 -0.7001401 0.853760 0.999756
1 3 0 0.1961161 0.7844645 -0.5883484 0.838135 0.984131
1 3 1 0 0.9805807 0.1961161 0.838135 0.984131
1 4 0 0.7071068 0 -0.7071068 0.853760 0.999756
1 4 1 0.7071068 0 0.7071068 0.853760 0.984131
1 4 1 0.7071068 0 0.7071068 0.853760 0.999756
0 4 1 0.6172134 0.1543034 0.7715167 0.838135 0.999756
1 4 0 0.7071068 0 -0.7071068 0.838135 0.984131
1 4 1 0.7071068 0 0.7071068 0.838135 0.984131
1 4 0 0.7071068 0 -0.7071068 0.853760 0.984131
1 5 0 0.5773503 0.5773503 -0.5773503 0.853760 0.999756
0 5 1 0.3651484 0.9128709 0.1825742 0.838135 0.984131
1 5 1 0.4082483 0.4082483 0.8164966 0.853760 0.984131
1 5 1 0.4082483 0.4082483 0.8164966 0.853760 0.999756
0 1 1 0.3244428 -0.8111071 0.4866643 0.838135 0.999756
1 1 1 0 -0.9863939 -0.164399 0.853760 0.999756
1 1 2 0.1924501 -0.9622505 0.1924501 0.838135 0.984131
1 2 2 0.7071068 0 0.7071068 0.853760 0.984131
1 2 2 0.7071068 0 0.7071068 0.853760 0.999756
1 2 2 0.7071068 0 0.7071068 0.838135 0.984131
1 3 2 0.1961161 0.9805807 0 0.853760 0.984131
1 3 2 0.1961161 0.9805807 0 0.853760 0.999756
0 1 2 -0.1561738 -0.9370426 -0.3123476 0.838135 0.999756
1 1 2 0.1924501 -0.9622505 0.1924501 0.853760 0.999756
1 1 3 0.8164966 -0.4082483 0.4082483 0.838135 0.984131
1 2 3 0.6882472 0.2294157 0.6882472 0.853760 0.984131
1 2 3 0.6882472 0.2294157 0.6882472 0.853760 0.999756
1 2 3 0.6882472 0.2294157 0.6882472 0.838135 0.984131
0 3 3 0 0.7071068 0.7071068 0.838135 0.984131
1 3 3 0.4082483 0.4082483 0.8164966 0.853760 0.984131
1 3 3 0.4082483 0.4082483 0.8164966 0.853760 0.999756
2 2 -2 0.4082483 -0.8164966 -0.4082483 0.838135 0.984131
2 2 -1 0.9128709 -0.1825742 -0.3651484 0.838135 0.984131
2 2 -2 0.4082483 -0.8164966 -0.4082483 0.853760 0.984131
2 3 -2 0.5773503 0.5773503 -0.5773503 0.853760 0.999756
1 3 -1 -0.3123476 0.9370426 -0.1561738 0.838135 0.984131
2 3 -1 0.7071068 0.7071068 0 0.853760 0.984131
2 3 -1 0.7071068 0.7071068 0 0.853760 0.999756
1 1 -1 0.2182179 -0.8728716 -0.4364358 0.838135 0.999756
2 2 -1 0.9128709 -0.1825742 -0.3651484 0.838135 0.999756
2 1 -1 0.4082483 -0.8164966 -0.4082483 0.838135 0.984131
2 1 0 0.6882472 -0.6882472 0.2294157 0.838135 0.984131
2 1 -1 0.4082483 -0.8164966 -0.4082483 0.853760 0.984131
2 2 -1 0.9128709 -0.1825742 -0.3651484 0.853760 0.999756
2 2 0 0.9863939 0 0.164399 0.853760 0.984131
2 2 0 0.9863939 0 0.164399 0.853760 0.999756
2 2 0 0.9863939 0 0.164399 0.838135 0.984131
2 3 0 0.7071068 0.7071068 0 0.853760 0.984131
2 3 0 0.7071068 0.7071068 0 0.853760 0.999756
1 1 0 -0.3162278 -0.9486833 0 0.838135 0.999756
2 1 0 0.6882472 -0.6882472 0.2294157 0.853760 0.999756
2 1 1 0.7071068 -0.7071068 0 0.838135 0.984131
2 2 1 0.9733285 -0.1622214 -0.1622214 0.853760 0.984131
2 2 1 0.9733285 -0.1622214 -0.1622214 0.853760 0.999756
2 2 1 0.9733285 -0.1622214 -0.1622214 0.838135 0.984131
2 3 1 0.7071068 0.7071068 0 0.853760 0.984131
2 3 1 0.7071068 0.7071068 0 0.853760 0.999756
1 1 1 0 -0.9863939 -0.164399 0.838135 0.999756
2 1 1 0.7071068 -0.7071068 0 0.853760 0.999756
2 1 2 0.8164966 -0.4082483 0.4082483 0.838135 0.984131
2 2 2 0.7071068 0 0.7071068 0.853760 0.984131
2 2 2 0.7071068 0 0.7071068 0.853760 0.999756
2 2 2 0.7071068 0 0.7071068 0.838135 0.984131
1 3 2 0.1961161 0.9805807 0 0.838135 0.984131
2 3 2 0.4082483 0.4082483 0.8164966 0.853760 0.984131
2 3 2 0.4082483 0.4082483 0.8164966 0.853760 0.999756
3 79 43 40 0 
3 79 40 78 0 
3 132 133 81 0 
3 132 81 80 0 
3 134 135 69 0 
3 134 69 136 0 
3 137 138 139 0 
3 137 139 82 0 
3 140 141 142 0 
3 140 142 143 0 
3 144 44 41 0 
3 144 41 145 0 
3 146 147 70 0 
3 146 70 148 0 
3 149 150 151 0 
3 149 151 83 0 
3 152 153 154 0 
3 152 154 155 0 
3 156 45 42 0 
3 156 42 157 0 
3 158 159 71 0 
3 158 71 160 0 
3 161 162 163 0 
3 161 163 84 0 
3 164 165 166 0 
3 164 166 167 0 
3 168 49 48 0 
3 168 48 169 0 
3 170 171 74 0 
3 170 74 172 0 
3 173 174 175 0 
3 173 175 85 0 
3 176 177 178 0 
3 176 178 179 0 
3 180 181 182 0 
3 180 182 183 0 
3 1 2 3 1 
3 1 3 0 1 
3 184 185 5 1 
3 184 5 4 1 
3 186 187 6 1 
3 186 6 188 1 
3 189 190 191 1 
3 189 191 7 1 
3 192 193 191 1 
3 192 191 3 1 
3 184 4 194 1 
3 184 194 195 1 
3 196 8 9 1 
3 196 9 197 1 
3 192 3 191 1 
3 192 191 193 1 
3 198 199 10 1 
3 198 10 200 1 
3 201 202 203 1 
3 201 203 11 1 
3 204 205 203 1 
3 204 203 9 1 
3 192 193 206 1 
3 192 206 207 1 
3 12 13 195 1 
3 12 195 184 1 
3 208 209 210 1 
3 208 210 14 1 
3 1 2 7 1 
3 1 7 189 1 
3 211 4 194 1 
3 211 194 15 1 
3 212 213 194 1 
3 212 194 195 1 
3 208 14 214 1 
3 208 214 215 1 
3 216 16 207 1 
3 216 207 192 1 
3 212 195 194 1 
3 212 194 213 1 
3 196 8 11 1 
3 196 11 201 1 
3 217 193 206 1 
3 217 206 17 1 
3 218 219 206 1 
3 218 206 207 1 
3 212 213 220 1 
3 212 220 221 1 
3 18 19 215 1 
3 18 215 208 1 
3 222 223 224 1 
3 222 224 20 1 
3 12 13 15 1 
3 12 15 211 1 
3 225 14 214 1 
3 225 214 21 1 
3 226 227 214 1 
3 226 214 215 1 
3 222 20 228 1 
3 222 228 229 1 
3 230 22 221 1 
3 230 221 212 1 
3 226 215 214 1 
3 226 214 227 1 
3 216 16 17 1 
3 216 17 217 1 
3 231 213 220 1 
3 231 220 23 1 
3 232 233 220 1 
3 232 220 221 1 
3 226 227 234 1 
3 226 234 235 1 
3 24 25 229 1 
3 24 229 222 1 
3 236 237 238 1 
3 236 238 26 1 
3 18 19 21 1 
3 18 21 225 1 
3 239 20 228 1 
3 239 228 27 1 
3 240 241 228 1 
3 240 228 229 1 
3 236 26 242 1 
3 236 242 243 1 
3 244 28 235 1 
3 244 235 226 1 
3 240 229 228 1 
3 240 228 241 1 
3 230 22 23 1 
3 230 23 231 1 
3 245 227 234 1 
3 245 234 29 1 
3 246 247 234 1 
3 246 234 235 1 
3 240 241 248 1 
3 240 248 249 1 
3 30 31 249 1 
3 30 249 240 1 
3 250 243 242 1 
3 250 242 32 1 
3 244 28 29 1 
3 244 29 245 1 
3 251 241 248 1 
3 251 248 33 1 
3 252 253 248 1 
3 252 248 249 1 
3 250 32 254 1 
3 250 254 255 1 
3 4 194 6 1 
3 4 6 188 1 
3 189 256 35 1 
3 189 35 34 1 
3 190 191 36 1 
3 190 36 257 1 
3 258 259 260 1 
3 258 260 37 1 
3 201 261 260 1 
3 201 260 6 1 
3 189 34 262 1 
3 189 262 7 1 
3 193 206 10 1 
3 193 10 200 1 
3 201 6 260 1 
3 201 260 261 1 
3 202 203 38 1 
3 202 38 263 1 
3 264 265 266 1 
3 264 266 39 1 
3 267 268 266 1 
3 267 266 10 1 
3 201 261 269 1 
3 201 269 11 1 
3 14 214 7 1 
3 14 7 189 1 
3 211 270 271 1 
3 211 271 272 1 
3 4 194 37 1 
3 4 37 258 1 
3 273 34 262 1 
3 273 262 274 1 
3 217 275 262 1 
3 217 262 7 1 
3 211 272 276 1 
3 211 276 15 1 
3 213 220 11 1 
3 213 11 201 1 
3 217 7 262 1 
3 217 262 275 1 
3 193 206 39 1 
3 193 39 264 1 
3 277 261 269 1 
3 277 269 278 1 
3 279 280 269 1 
3 279 269 11 1 
3 217 275 281 1 
3 217 281 17 1 
3 20 228 15 1 
3 20 15 211 1 
3 225 282 283 1 
3 225 283 284 1 
3 14 214 274 1 
3 14 274 273 1 
3 231 285 276 1 
3 231 276 15 1 
3 225 284 286 1 
3 225 286 21 1 
3 227 234 17 1 
3 227 17 217 1 
3 231 15 276 1 
3 231 276 285 1 
3 213 220 278 1 
3 213 278 277 1 
3 287 288 281 1 
3 287 281 17 1 
3 231 285 289 1 
3 231 289 23 1 
3 233 46 47 1 
3 233 47 279 1 
3 287 17 281 1 
3 287 281 288 1 
3 219 290 291 1 
3 219 291 292 1 
3 293 294 295 1 
3 293 295 47 1 
3 287 288 296 1 
3 287 296 297 1 
3 298 50 51 1 
3 298 51 299 1 
3 293 47 295 1 
3 293 295 294 1 
3 300 301 52 1 
3 300 52 302 1 
3 303 304 305 1 
3 303 305 53 1 
3 306 307 305 1 
3 306 305 51 1 
3 293 294 308 1 
3 293 308 309 1 
3 26 242 21 1 
3 26 21 225 1 
3 239 310 311 1 
3 239 311 54 1 
3 20 228 312 1 
3 20 312 313 1 
3 314 284 286 1 
3 314 286 55 1 
3 245 315 286 1 
3 245 286 21 1 
3 239 54 316 1 
3 239 316 27 1 
3 241 248 23 1 
3 241 23 231 1 
3 245 21 286 1 
3 245 286 315 1 
3 227 234 317 1 
3 227 317 318 1 
3 319 285 289 1 
3 319 289 56 1 
3 320 321 289 1 
3 320 289 23 1 
3 245 315 322 1 
3 245 322 29 1 
3 247 57 297 1 
3 247 297 287 1 
3 320 23 289 1 
3 320 289 321 1 
3 233 46 323 1 
3 233 323 324 1 
3 325 288 296 1 
3 325 296 58 1 
3 326 327 296 1 
3 326 296 297 1 
3 320 321 328 1 
3 320 328 329 1 
3 59 330 27 1 
3 59 27 239 1 
3 331 332 333 1 
3 331 333 60 1 
3 26 242 55 1 
3 26 55 314 1 
3 334 54 316 1 
3 334 316 61 1 
3 251 335 316 1 
3 251 316 27 1 
3 331 60 336 1 
3 331 336 337 1 
3 32 254 29 1 
3 32 29 245 1 
3 251 27 316 1 
3 251 316 335 1 
3 241 248 56 1 
3 241 56 319 1 
3 338 315 322 1 
3 338 322 62 1 
3 339 340 322 1 
3 339 322 29 1 
3 251 335 341 1 
3 251 341 33 1 
3 34 262 36 1 
3 34 36 257 1 
3 258 342 64 1 
3 258 64 63 1 
3 259 260 65 1 
3 259 65 343 1 
3 344 345 346 1 
3 344 346 66 1 
3 264 347 346 1 
3 264 346 36 1 
3 258 63 348 1 
3 258 348 37 1 
3 261 269 38 1 
3 261 38 263 1 
3 264 36 346 1 
3 264 346 347 1 
3 265 266 67 1 
3 265 67 349 1 
3 350 351 352 1 
3 350 352 68 1 
3 353 354 352 1 
3 353 352 38 1 
3 264 347 355 1 
3 264 355 39 1 
3 272 276 37 1 
3 272 37 258 1 
3 273 356 357 1 
3 273 357 358 1 
3 34 262 66 1 
3 34 66 344 1 
3 359 63 348 1 
3 359 348 360 1 
3 277 361 348 1 
3 277 348 37 1 
3 275 281 39 1 
3 275 39 264 1 
3 277 37 348 1 
3 277 348 361 1 
3 261 269 68 1 
3 261 68 350 1 
3 362 347 355 1 
3 362 355 363 1 
3 292 364 355 1 
3 292 355 39 1 
3 280 295 72 1 
3 280 72 353 1 
3 292 39 355 1 
3 292 355 364 1 
3 268 365 73 1 
3 268 73 366 1 
3 367 354 368 1 
3 367 368 369 1 
3 302 370 368 1 
3 302 368 72 1 
3 304 305 75 1 
3 304 75 371 1 
3 302 72 368 1 
3 302 368 370 1 
3 372 373 76 1 
3 372 76 374 1 
3 375 376 377 1 
3 375 377 77 1 
3 378 379 377 1 
3 378 377 75 1 
3 302 370 380 1 
3 302 380 52 1 
3 294 308 52 1 
3 294 52 302 1 
3 304 305 77 1 
3 304 77 375 1 
3 381 370 380 1 
3 381 380 86 1 
3 382 383 380 1 
3 382 380 52 1 
3 303 384 385 1 
3 303 385 53 1 
3 54 316 312 1 
3 54 312 313 1 
3 314 386 387 1 
3 314 387 87 1 
3 388 389 390 1 
3 388 390 88 1 
3 319 391 390 1 
3 319 390 312 1 
3 314 87 392 1 
3 314 392 55 1 
3 315 322 317 1 
3 315 317 318 1 
3 319 312 390 1 
3 319 390 391 1 
3 393 394 395 1 
3 393 395 89 1 
3 325 396 395 1 
3 325 395 317 1 
3 319 391 397 1 
3 319 397 56 1 
3 321 328 323 1 
3 321 323 324 1 
3 325 317 395 1 
3 325 395 396 1 
3 398 399 400 1 
3 398 400 90 1 
3 401 402 400 1 
3 401 400 323 1 
3 325 396 403 1 
3 325 403 58 1 
3 327 91 53 1 
3 327 53 303 1 
3 401 323 400 1 
3 401 400 402 1 
3 294 308 86 1 
3 294 86 381 1 
3 404 384 385 1 
3 404 385 92 1 
3 405 406 385 1 
3 405 385 53 1 
3 401 402 407 1 
3 401 407 408 1 
3 60 336 55 1 
3 60 55 314 1 
3 334 409 410 1 
3 334 410 93 1 
3 54 316 88 1 
3 54 88 388 1 
3 411 87 392 1 
3 411 392 94 1 
3 338 412 392 1 
3 338 392 55 1 
3 334 93 413 1 
3 334 413 61 1 
3 335 341 56 1 
3 335 56 319 1 
3 338 55 392 1 
3 338 392 412 1 
3 315 322 89 1 
3 315 89 393 1 
3 414 391 397 1 
3 414 397 95 1 
3 415 416 397 1 
3 415 397 56 1 
3 338 412 417 1 
3 338 417 62 1 
3 63 348 65 1 
3 63 65 343 1 
3 344 418 97 1 
3 344 97 96 1 
3 345 346 98 1 
3 345 98 419 1 
3 420 421 422 1 
3 420 422 99 1 
3 350 423 422 1 
3 350 422 65 1 
3 344 96 424 1 
3 344 424 66 1 
3 347 355 67 1 
3 347 67 349 1 
3 350 65 422 1 
3 350 422 423 1 
3 351 352 100 1 
3 351 100 425 1 
3 426 427 428 1 
3 426 428 101 1 
3 366 429 428 1 
3 366 428 67 1 
3 350 423 430 1 
3 350 430 68 1 
3 358 431 66 1 
3 358 66 344 1 
3 359 432 433 1 
3 359 433 102 1 
3 63 348 99 1 
3 63 99 420 1 
3 434 96 424 1 
3 434 424 103 1 
3 362 435 424 1 
3 362 424 66 1 
3 359 102 436 1 
3 359 436 360 1 
3 361 437 68 1 
3 361 68 350 1 
3 362 66 424 1 
3 362 424 435 1 
3 347 355 101 1 
3 347 101 426 1 
3 438 423 430 1 
3 438 430 104 1 
3 367 439 430 1 
3 367 430 68 1 
3 362 435 440 1 
3 362 440 363 1 
3 441 442 443 1 
3 441 443 105 1 
3 358 431 103 1 
3 358 103 434 1 
3 444 102 436 1 
3 444 436 106 1 
3 445 446 436 1 
3 445 436 360 1 
3 441 105 447 1 
3 441 447 448 1 
3 445 360 436 1 
3 445 436 446 1 
3 361 437 104 1 
3 361 104 438 1 
3 449 435 440 1 
3 449 440 107 1 
3 450 451 440 1 
3 450 440 363 1 
3 445 446 452 1 
3 445 452 453 1 
3 450 363 440 1 
3 450 440 451 1 
3 364 454 108 1 
3 364 108 455 1 
3 456 439 457 1 
3 456 457 109 1 
3 381 458 457 1 
3 381 457 369 1 
3 450 451 459 1 
3 450 459 460 1 
3 384 385 77 1 
3 384 77 375 1 
3 381 369 457 1 
3 381 457 458 1 
3 370 380 110 1 
3 370 110 461 1 
3 462 463 464 1 
3 462 464 111 1 
3 465 466 464 1 
3 465 464 77 1 
3 381 458 467 1 
3 381 467 86 1 
3 87 392 448 1 
3 87 448 441 1 
3 388 468 469 1 
3 388 469 112 1 
3 389 390 106 1 
3 389 106 444 1 
3 470 105 447 1 
3 470 447 113 1 
3 393 471 447 1 
3 393 447 448 1 
3 388 112 472 1 
3 388 472 88 1 
3 391 397 453 1 
3 391 453 445 1 
3 393 448 447 1 
3 393 447 471 1 
3 394 395 107 1 
3 394 107 449 1 
3 473 446 452 1 
3 473 452 114 1 
3 398 474 452 1 
3 398 452 453 1 
3 393 471 475 1 
3 393 475 89 1 
3 93 413 88 1 
3 93 88 388 1 
3 411 476 477 1 
3 411 477 115 1 
3 87 392 113 1 
3 87 113 470 1 
3 478 112 472 1 
3 478 472 116 1 
3 414 479 472 1 
3 414 472 88 1 
3 411 115 480 1 
3 411 480 94 1 
3 412 417 89 1 
3 412 89 393 1 
3 414 88 472 1 
3 414 472 479 1 
3 391 397 114 1 
3 391 114 473 1 
3 481 471 475 1 
3 481 475 117 1 
3 482 483 475 1 
3 482 475 89 1 
3 414 479 484 1 
3 414 484 95 1 
3 423 430 100 1 
3 423 100 425 1 
3 426 98 119 1 
3 426 119 118 1 
3 427 428 120 1 
3 427 120 485 1 
3 486 487 488 1 
3 486 488 121 1 
3 489 490 488 1 
3 489 488 100 1 
3 426 118 491 1 
3 426 491 101 1 
3 102 436 99 1 
3 102 99 420 1 
3 434 492 123 1 
3 434 123 122 1 
3 96 424 493 1 
3 96 493 494 1 
3 495 496 497 1 
3 495 497 124 1 
3 438 498 497 1 
3 438 497 99 1 
3 434 122 499 1 
3 434 499 103 1 
3 435 440 101 1 
3 435 101 426 1 
3 438 99 497 1 
3 438 497 498 1 
3 423 430 121 1 
3 423 121 486 1 
3 500 118 491 1 
3 500 491 125 1 
3 455 501 491 1 
3 455 491 101 1 
3 438 498 502 1 
3 438 502 104 1 
3 105 447 103 1 
3 105 103 434 1 
3 444 503 504 1 
3 444 504 126 1 
3 102 436 124 1 
3 102 124 495 1 
3 505 122 499 1 
3 505 499 127 1 
3 449 506 499 1 
3 449 499 103 1 
3 444 126 507 1 
3 444 507 106 1 
3 446 452 104 1 
3 446 104 438 1 
3 449 103 499 1 
3 449 499 506 1 
3 435 440 125 1 
3 435 125 500 1 
3 508 498 502 1 
3 508 502 128 1 
3 456 509 502 1 
3 456 502 104 1 
3 449 506 510 1 
3 449 510 107 1 
3 112 472 106 1 
3 112 106 444 1 
3 470 511 512 1 
3 470 512 129 1 
3 105 447 127 1 
3 105 127 505 1 
3 513 126 507 1 
3 513 507 130 1 
3 473 514 507 1 
3 473 507 106 1 
3 470 129 515 1 
3 470 515 113 1 
3 471 475 107 1 
3 471 107 449 1 
3 473 106 507 1 
3 473 507 514 1 
3 446 452 128 1 
3 446 128 508 1 
3 516 506 510 1 
3 516 510 131 1 
3 517 518 510 1 
3 517 510 107 1 
3 473 514 519 1 
3 473 519 114 1 
