ply
format ascii 1.0
comment VCGLIB generated
comment TextureFile tree3-RGB.png
comment TextureFile tree3-RGBA.png
element vertex 527
property float x
property float y
property float z
property float nx
property float ny
property float nz
property float texture_u
property float texture_v
element face 642
property list uchar int vertex_indices
property int texnumber
end_header
-2 2 -2 -0.4082483 -0.4082483 -0.8164966 0.838135 0.984131
-2 2 -1 -0.6882472 -0.6882472 -0.2294157 0.853760 0.984131
-2 3 -1 -0.904534 -0.3015113 -0.3015113 0.853760 0.999756
-2 3 -2 -0.6882472 -0.2294157 -0.6882472 0.838135 0.999756
-1 2 -1 0 -1 0 0.853760 0.984131
-1 2 -2 0 -0.7071068 -0.7071068 0.853760 0.999756
-1 3 -2 -0.1561738 -0.3123476 -0.9370426 0.838135 0.999756
-1 3 -1 -0.5345225 -0.2672613 -0.8017837 0.838135 0.999756
-2 4 -1 -0.7071068 0.7071068 0 0.853760 0.999756
-2 4 -2 -0.8164966 0.4082483 -0.4082483 0.838135 0.999756
-1 4 -2 0 0.7071068 -0.7071068 0.838135 0.999756
-1 4 -1 -0.1561738 0.9370426 -0.3123476 0.838135 0.999756
-2 2 0 -0.6882472 -0.6882472 -0.2294157 0.853760 0.984131
-2 3 0 -0.9733285 -0.1622214 -0.1622214 0.853760 0.999756
-1 2 0 0 -0.9863939 -0.164399 0.853760 0.984131
-1 3 0 -0.7071068 0 -0.7071068 0.838135 0.999756
-2 4 0 -0.7071068 0.7071068 0 0.853760 0.999756
-1 4 0 -0.1690309 0.8451543 -0.5070926 0.838135 0.999756
-2 2 1 -0.6882472 -0.6882472 -0.2294157 0.853760 0.984131
-2 3 1 -0.9486833 0 -0.3162278 0.853760 0.999756
-1 2 1 -0.1622214 -0.9733285 -0.1622214 0.853760 0.984131
-1 3 1 0 -0.4472136 -0.8944272 0.838135 0.999756
-2 4 1 -0.7071068 0.7071068 0 0.853760 0.999756
-1 4 1 -0.7071068 0.7071068 0 0.838135 0.999756
-2 2 2 -0.5773503 -0.5773503 0.5773503 0.853760 0.984131
-2 3 2 -0.6882472 -0.2294157 0.6882472 0.853760 0.999756
-1 2 2 -0.2425356 -0.9701425 0 0.853760 0.984131
-1 3 2 -0.7276069 -0.4850713 0.4850713 0.838135 0.999756
-2 4 2 -0.4082483 0.8164966 0.4082483 0.853760 0.999756
-1 4 2 -0.5883484 0.7844645 0.1961161 0.838135 0.999756
0 2 -1 -0.3123476 -0.9370426 -0.1561738 0.853760 0.984131
0 2 -2 0 -0.7071068 -0.7071068 0.853760 0.999756
0 3 -2 -0.1561738 -0.3123476 -0.9370426 0.838135 0.999756
0 3 -1 -0.6666667 -0.6666667 -0.3333333 0.838135 0.999756
0 4 -2 0 0.7071068 -0.7071068 0.838135 0.999756
0 4 -1 -0.3333333 0.6666667 -0.6666667 0.838135 0.999756
0 2 0 -0.5656855 -0.7071068 -0.4242641 0.322510 0.999756
0 3 0 -0.7844645 -0.1961161 -0.5883484 0.322510 0.999756
0 4 0 -0.8241634 -0.1373606 -0.5494422 0.322510 0.999756
0 2 1 -0.5570861 -0.7427813 0.3713907 0.338135 0.999756
0 3 1 -0.6396022 -0.4264015 0.6396022 0.338135 0.999756
0 4 1 -0.6963106 0.1740777 0.6963106 0.338135 0.999756
-1 5 1 -0.7071068 0 0.7071068 0.853760 0.999756
-1 5 0 -0.7071068 0 -0.7071068 0.838135 0.999756
0 5 0 -0.7071068 0 -0.7071068 0.322510 0.999756
0 5 1 -0.7715167 0.1543034 0.6172134 0.338135 0.999756
-1 6 1 -0.4082483 0.8164966 0.4082483 0.853760 0.999756
-1 6 0 -0.8164966 0.4082483 -0.4082483 0.838135 0.999756
0 6 0 -0.3481553 0.8703883 -0.3481553 0.838135 0.999756
0 6 1 -0.5570861 0.7427813 0.3713907 0.838135 0.999756
0 2 2 0 -0.9863939 -0.164399 0.853760 0.984131
0 3 2 -0.4082483 -0.8164966 -0.4082483 0.838135 0.999756
0 4 2 -0.4364358 0.8728716 0.2182179 0.838135 0.999756
-1 2 3 -0.5773503 -0.5773503 0.5773503 0.853760 0.984131
-1 3 3 -0.6882472 -0.2294157 0.6882472 0.853760 0.999756
0 2 3 -0.2294157 -0.6882472 0.6882472 0.853760 0.984131
0 3 3 -0.1561738 -0.3123476 0.9370426 0.838135 0.999756
-1 4 3 -0.4082483 0.8164966 0.4082483 0.853760 0.999756
0 4 3 0 0.7071068 0.7071068 0.838135 0.999756
1 2 -1 0 -1 0 0.853760 0.984131
1 2 -2 0 -0.7071068 -0.7071068 0.853760 0.999756
1 3 -2 0 0 -1 0.838135 0.999756
1 3 -1 -0.7071068 0 -0.7071068 0.838135 0.999756
1 4 -2 0 0.7071068 -0.7071068 0.838135 0.999756
1 4 -1 0 0.9486833 -0.3162278 0.838135 0.999756
1 2 0 0.4685213 -0.6246951 -0.6246951 0.322510 0.999756
1 3 0 0.3651484 0.1825742 -0.9128709 0.322510 0.999756
1 4 0 0.6201737 0.2480695 -0.7442084 0.322510 0.999756
0 5 -1 -0.7071068 0 -0.7071068 0.838135 0.999756
1 5 -1 0.6882472 -0.2294157 -0.6882472 0.838135 0.999756
1 5 0 0.6401844 0 -0.7682213 0.322510 0.999756
0 6 -1 -0.8164966 0.4082483 -0.4082483 0.838135 0.999756
1 6 -1 0.5773503 0.5773503 -0.5773503 0.838135 0.999756
1 6 0 0 0.8944272 -0.4472136 0.838135 0.999756
0 0 0 -0.4082483 -0.4082483 -0.8164966 0.322510 0.984131
0 0 1 -0.5773503 -0.5773503 0.5773503 0.338135 0.984131
0 1 1 -0.7071068 0 0.7071068 0.338135 0.999756
0 1 0 -0.7071068 0 -0.7071068 0.322510 0.999756
1 0 1 0.8164966 -0.4082483 0.4082483 0.354248 0.984131
1 0 0 0.4082483 -0.8164966 -0.4082483 0.354248 0.999756
1 1 0 0.7071068 0 -0.7071068 0.322510 0.999756
1 1 1 0.7071068 0 0.7071068 0.322510 0.999756
1 2 1 0.4866643 -0.8111071 0.3244428 0.322510 0.999756
1 3 1 0.904534 -0.3015113 0.3015113 0.322510 0.999756
1 4 1 0.7071068 0 0.7071068 0.322510 0.999756
1 5 1 0.5070926 -0.1690309 0.8451543 0.322510 0.999756
1 6 1 0.1924501 0.9622505 0.1924501 0.838135 0.999756
1 2 2 0 -1 0 0.853760 0.984131
1 3 2 0.7071068 -0.7071068 0 0.838135 0.999756
1 4 2 0.3651484 0.9128709 0.1825742 0.838135 0.999756
0 5 2 -0.6882472 -0.2294157 0.6882472 0.853760 0.999756
1 5 2 0.7071068 0 0.7071068 0.838135 0.999756
0 6 2 -0.4082483 0.8164966 0.4082483 0.853760 0.999756
1 6 2 0.4082483 0.4082483 0.8164966 0.838135 0.999756
1 2 3 0 -0.7071068 0.7071068 0.853760 0.984131
1 3 3 0 -0.164399 0.9863939 0.838135 0.999756
1 4 3 -0.2294157 0.6882472 0.6882472 0.838135 0.999756
2 2 -1 0.4364358 -0.8728716 -0.2182179 0.853760 0.984131
2 2 -2 0.4082483 -0.8164966 -0.4082483 0.853760 0.999756
2 3 -2 0.3481553 -0.3481553 -0.8703883 0.838135 0.999756
2 3 -1 0.2357023 -0.9428091 -0.2357023 0.838135 0.999756
2 4 -2 0 0.7071068 -0.7071068 0.838135 0.999756
2 4 -1 0 1 0 0.838135 0.999756
2 2 0 0.1622214 -0.9733285 -0.1622214 0.853760 0.984131
2 3 0 0.3015114 -0.3015114 -0.904534 0.838135 0.999756
2 4 0 0.2294157 0.6882472 -0.6882472 0.838135 0.999756
2 2 1 0.164399 -0.9863939 0 0.853760 0.984131
2 3 1 -0.2672613 -0.8017837 -0.5345225 0.838135 0.999756
2 4 1 0.2357023 0.9428091 -0.2357023 0.838135 0.999756
2 5 0 0.6882472 -0.2294157 -0.6882472 0.838135 0.999756
2 5 1 0.7071068 0 0.7071068 0.838135 0.999756
2 6 0 0.5773503 0.5773503 -0.5773503 0.838135 0.999756
2 6 1 0.4082483 0.4082483 0.8164966 0.838135 0.999756
2 2 2 0.1825742 -0.9128709 0.3651484 0.853760 0.984131
2 3 2 0.4264015 -0.6396022 0.6396022 0.838135 0.999756
2 4 2 0.3651484 0.9128709 0.1825742 0.838135 0.999756
2 2 3 0.8164966 -0.4082483 0.4082483 0.853760 0.984131
2 3 3 0.6882472 -0.2294157 0.6882472 0.838135 0.999756
2 4 3 0.4082483 0.4082483 0.8164966 0.838135 0.999756
3 3 -1 0.9128709 -0.1825742 -0.3651484 0.853760 0.984131
3 3 -2 0.4082483 -0.8164966 -0.4082483 0.853760 0.999756
3 4 -2 0.5773503 0.5773503 -0.5773503 0.838135 0.999756
3 4 -1 0.7071068 0.7071068 0 0.838135 0.999756
3 2 0 0.7071068 -0.7071068 0 0.853760 0.984131
3 2 -1 0.4082483 -0.8164966 -0.4082483 0.853760 0.999756
3 3 0 0.9733285 0.1622214 -0.1622214 0.838135 0.999756
3 4 0 0.6882472 0.6882472 -0.2294157 0.838135 0.999756
3 2 1 0.6882472 -0.6882472 0.2294157 0.853760 0.984131
3 3 1 0.9733285 -0.1622214 0.1622214 0.838135 0.999756
3 4 1 0.7071068 0.7071068 0 0.838135 0.999756
3 2 2 0.8164966 -0.4082483 0.4082483 0.853760 0.984131
3 3 2 0.7071068 0 0.7071068 0.838135 0.999756
3 4 2 0.4082483 0.4082483 0.8164966 0.838135 0.999756
0 0 1 -0.5773503 -0.5773503 0.5773503 0.338623 0.984131
0 0 0 -0.4082483 -0.4082483 -0.8164966 0.338623 0.999756
0 0 0 -0.4082483 -0.4082483 -0.8164966 0.338135 0.984131
0 1 0 -0.7071068 0 -0.7071068 0.338135 0.999756
1 0 0 0.4082483 -0.8164966 -0.4082483 0.322510 0.984131
1 0 1 0.8164966 -0.4082483 0.4082483 0.322510 0.984131
1 0 0 0.4082483 -0.8164966 -0.4082483 0.338135 0.984131
1 1 0 0.7071068 0 -0.7071068 0.338135 0.999756
0 0 1 -0.5773503 -0.5773503 0.5773503 0.322510 0.984131
1 0 1 0.8164966 -0.4082483 0.4082483 0.338135 0.984131
1 1 1 0.7071068 0 0.7071068 0.338135 0.999756
0 1 1 -0.7071068 0 0.7071068 0.322510 0.999756
0 1 1 -0.7071068 0 0.7071068 0.338135 0.984131
0 1 0 -0.7071068 0 -0.7071068 0.322510 0.984131
0 1 0 -0.7071068 0 -0.7071068 0.338135 0.984131
0 2 0 -0.5656855 -0.7071068 -0.4242641 0.338135 0.999756
1 1 0 0.7071068 0 -0.7071068 0.322510 0.984131
1 1 1 0.7071068 0 0.7071068 0.322510 0.984131
1 1 0 0.7071068 0 -0.7071068 0.338135 0.984131
1 2 0 0.4685213 -0.6246951 -0.6246951 0.338135 0.999756
0 1 1 -0.7071068 0 0.7071068 0.322510 0.984131
1 1 1 0.7071068 0 0.7071068 0.338135 0.984131
1 2 1 0.4866643 -0.8111071 0.3244428 0.338135 0.999756
0 2 1 -0.5570861 -0.7427813 0.3713907 0.322510 0.999756
0 2 1 -0.5570861 -0.7427813 0.3713907 0.338135 0.984131
0 2 0 -0.5656855 -0.7071068 -0.4242641 0.322510 0.984131
0 2 0 -0.5656855 -0.7071068 -0.4242641 0.338135 0.984131
0 3 0 -0.7844645 -0.1961161 -0.5883484 0.338135 0.999756
1 2 0 0.4685213 -0.6246951 -0.6246951 0.322510 0.984131
1 2 1 0.4866643 -0.8111071 0.3244428 0.322510 0.984131
1 2 0 0.4685213 -0.6246951 -0.6246951 0.338135 0.984131
1 3 0 0.3651484 0.1825742 -0.9128709 0.338135 0.999756
0 2 1 -0.5570861 -0.7427813 0.3713907 0.322510 0.984131
1 2 1 0.4866643 -0.8111071 0.3244428 0.338135 0.984131
1 3 1 0.904534 -0.3015113 0.3015113 0.338135 0.999756
0 3 1 -0.6396022 -0.4264015 0.6396022 0.322510 0.999756
0 3 1 -0.6396022 -0.4264015 0.6396022 0.338135 0.984131
0 3 0 -0.7844645 -0.1961161 -0.5883484 0.322510 0.984131
0 3 0 -0.7844645 -0.1961161 -0.5883484 0.338135 0.984131
0 4 0 -0.8241634 -0.1373606 -0.5494422 0.338135 0.999756
1 3 0 0.3651484 0.1825742 -0.9128709 0.322510 0.984131
1 3 1 0.904534 -0.3015113 0.3015113 0.322510 0.984131
1 3 0 0.3651484 0.1825742 -0.9128709 0.338135 0.984131
1 4 0 0.6201737 0.2480695 -0.7442084 0.338135 0.999756
0 3 1 -0.6396022 -0.4264015 0.6396022 0.322510 0.984131
1 3 1 0.904534 -0.3015113 0.3015113 0.338135 0.984131
1 4 1 0.7071068 0 0.7071068 0.338135 0.999756
0 4 1 -0.6963106 0.1740777 0.6963106 0.322510 0.999756
0 4 1 -0.6963106 0.1740777 0.6963106 0.338135 0.984131
0 4 0 -0.8241634 -0.1373606 -0.5494422 0.322510 0.984131
0 4 0 -0.8241634 -0.1373606 -0.5494422 0.338135 0.984131
0 5 0 -0.7071068 0 -0.7071068 0.338135 0.999756
1 4 0 0.6201737 0.2480695 -0.7442084 0.322510 0.984131
1 4 1 0.7071068 0 0.7071068 0.322510 0.984131
1 4 0 0.6201737 0.2480695 -0.7442084 0.338135 0.984131
1 5 0 0.6401844 0 -0.7682213 0.338135 0.999756
0 5 1 -0.7715167 0.1543034 0.6172134 0.338623 0.984131
1 5 1 0.5070926 -0.1690309 0.8451543 0.354248 0.984131
1 5 0 0.6401844 0 -0.7682213 0.354248 0.999756
0 5 0 -0.7071068 0 -0.7071068 0.338623 0.999756
0 4 1 -0.6963106 0.1740777 0.6963106 0.322510 0.984131
1 4 1 0.7071068 0 0.7071068 0.338135 0.984131
1 5 1 0.5070926 -0.1690309 0.8451543 0.338135 0.999756
0 5 1 -0.7715167 0.1543034 0.6172134 0.322510 0.999756
-2 2 -1 -0.6882472 -0.6882472 -0.2294157 0.838135 0.984131
-2 2 -2 -0.4082483 -0.4082483 -0.8164966 0.838135 0.999756
-2 2 -2 -0.4082483 -0.4082483 -0.8164966 0.853760 0.984131
-2 3 -2 -0.6882472 -0.2294157 -0.6882472 0.853760 0.999756
-1 2 -2 0 -0.7071068 -0.7071068 0.838135 0.984131
-1 2 -1 0 -1 0 0.838135 0.984131
-1 2 -2 0 -0.7071068 -0.7071068 0.853760 0.984131
-1 3 -2 -0.1561738 -0.3123476 -0.9370426 0.853760 0.999756
-2 3 -1 -0.904534 -0.3015113 -0.3015113 0.838135 0.984131
-1 3 -1 -0.5345225 -0.2672613 -0.8017837 0.853760 0.984131
-1 3 -1 -0.5345225 -0.2672613 -0.8017837 0.853760 0.999756
-2 3 -1 -0.904534 -0.3015113 -0.3015113 0.838135 0.999756
-2 3 -1 -0.904534 -0.3015113 -0.3015113 0.853760 0.984131
-2 3 -2 -0.6882472 -0.2294157 -0.6882472 0.838135 0.984131
-2 3 -2 -0.6882472 -0.2294157 -0.6882472 0.853760 0.984131
-2 4 -2 -0.8164966 0.4082483 -0.4082483 0.853760 0.999756
-1 3 -2 -0.1561738 -0.3123476 -0.9370426 0.838135 0.984131
-1 3 -1 -0.5345225 -0.2672613 -0.8017837 0.838135 0.984131
-1 3 -2 -0.1561738 -0.3123476 -0.9370426 0.853760 0.984131
-1 4 -2 0 0.7071068 -0.7071068 0.853760 0.999756
-2 4 -1 -0.7071068 0.7071068 0 0.838135 0.984131
-1 4 -1 -0.1561738 0.9370426 -0.3123476 0.853760 0.984131
-1 4 -1 -0.1561738 0.9370426 -0.3123476 0.853760 0.999756
-2 4 -1 -0.7071068 0.7071068 0 0.838135 0.999756
-2 2 0 -0.6882472 -0.6882472 -0.2294157 0.838135 0.984131
-2 2 -1 -0.6882472 -0.6882472 -0.2294157 0.838135 0.999756
-1 2 -1 0 -1 0 0.853760 0.999756
-1 2 0 0 -0.9863939 -0.164399 0.838135 0.984131
-2 3 0 -0.9733285 -0.1622214 -0.1622214 0.838135 0.984131
-1 3 0 -0.7071068 0 -0.7071068 0.853760 0.984131
-1 3 0 -0.7071068 0 -0.7071068 0.853760 0.999756
-2 3 0 -0.9733285 -0.1622214 -0.1622214 0.838135 0.999756
-2 3 0 -0.9733285 -0.1622214 -0.1622214 0.853760 0.984131
-1 3 0 -0.7071068 0 -0.7071068 0.838135 0.984131
-2 4 0 -0.7071068 0.7071068 0 0.838135 0.984131
-1 4 0 -0.1690309 0.8451543 -0.5070926 0.853760 0.984131
-1 4 0 -0.1690309 0.8451543 -0.5070926 0.853760 0.999756
-2 4 0 -0.7071068 0.7071068 0 0.838135 0.999756
-2 2 1 -0.6882472 -0.6882472 -0.2294157 0.838135 0.984131
-2 2 0 -0.6882472 -0.6882472 -0.2294157 0.838135 0.999756
-1 2 0 0 -0.9863939 -0.164399 0.853760 0.999756
-1 2 1 -0.1622214 -0.9733285 -0.1622214 0.838135 0.984131
-2 3 1 -0.9486833 0 -0.3162278 0.838135 0.984131
-1 3 1 0 -0.4472136 -0.8944272 0.853760 0.984131
-1 3 1 0 -0.4472136 -0.8944272 0.853760 0.999756
-2 3 1 -0.9486833 0 -0.3162278 0.838135 0.999756
-2 3 1 -0.9486833 0 -0.3162278 0.853760 0.984131
-1 3 1 0 -0.4472136 -0.8944272 0.838135 0.984131
-2 4 1 -0.7071068 0.7071068 0 0.838135 0.984131
-1 4 1 -0.7071068 0.7071068 0 0.853760 0.984131
-1 4 1 -0.7071068 0.7071068 0 0.853760 0.999756
-2 4 1 -0.7071068 0.7071068 0 0.838135 0.999756
-2 2 2 -0.5773503 -0.5773503 0.5773503 0.838135 0.984131
-2 2 1 -0.6882472 -0.6882472 -0.2294157 0.838135 0.999756
-1 2 1 -0.1622214 -0.9733285 -0.1622214 0.853760 0.999756
-1 2 2 -0.2425356 -0.9701425 0 0.838135 0.984131
-2 3 2 -0.6882472 -0.2294157 0.6882472 0.838135 0.984131
-1 3 2 -0.7276069 -0.4850713 0.4850713 0.853760 0.984131
-1 3 2 -0.7276069 -0.4850713 0.4850713 0.853760 0.999756
-2 3 2 -0.6882472 -0.2294157 0.6882472 0.838135 0.999756
-2 3 2 -0.6882472 -0.2294157 0.6882472 0.853760 0.984131
-1 3 2 -0.7276069 -0.4850713 0.4850713 0.838135 0.984131
-2 4 2 -0.4082483 0.8164966 0.4082483 0.838135 0.984131
-1 4 2 -0.5883484 0.7844645 0.1961161 0.853760 0.984131
-1 4 2 -0.5883484 0.7844645 0.1961161 0.853760 0.999756
-2 4 2 -0.4082483 0.8164966 0.4082483 0.838135 0.999756
-1 2 -2 0 -0.7071068 -0.7071068 0.838135 0.999756
0 2 -2 0 -0.7071068 -0.7071068 0.838135 0.984131
0 2 -1 -0.3123476 -0.9370426 -0.1561738 0.838135 0.984131
0 2 -2 0 -0.7071068 -0.7071068 0.853760 0.984131
0 3 -2 -0.1561738 -0.3123476 -0.9370426 0.853760 0.999756
0 3 -1 -0.6666667 -0.6666667 -0.3333333 0.853760 0.984131
0 3 -1 -0.6666667 -0.6666667 -0.3333333 0.853760 0.999756
0 3 -2 -0.1561738 -0.3123476 -0.9370426 0.838135 0.984131
0 3 -1 -0.6666667 -0.6666667 -0.3333333 0.838135 0.984131
0 3 -2 -0.1561738 -0.3123476 -0.9370426 0.853760 0.984131
0 4 -2 0 0.7071068 -0.7071068 0.853760 0.999756
-1 4 -1 -0.1561738 0.9370426 -0.3123476 0.838135 0.984131
0 4 -1 -0.3333333 0.6666667 -0.6666667 0.853760 0.984131
0 4 -1 -0.3333333 0.6666667 -0.6666667 0.853760 0.999756
-1 2 -1 0 -1 0 0.838135 0.999756
0 2 -1 -0.3123476 -0.9370426 -0.1561738 0.853760 0.999756
0 2 0 -0.5656855 -0.7071068 -0.4242641 0.853760 0.984131
0 2 0 -0.5656855 -0.7071068 -0.4242641 0.838135 0.984131
0 3 0 -0.7844645 -0.1961161 -0.5883484 0.838135 0.999756
0 3 0 -0.7844645 -0.1961161 -0.5883484 0.853760 0.984131
0 3 0 -0.7844645 -0.1961161 -0.5883484 0.853760 0.999756
0 3 0 -0.7844645 -0.1961161 -0.5883484 0.838135 0.984131
0 4 0 -0.8241634 -0.1373606 -0.5494422 0.838135 0.999756
-1 4 0 -0.1690309 0.8451543 -0.5070926 0.838135 0.984131
0 4 0 -0.8241634 -0.1373606 -0.5494422 0.853760 0.984131
0 4 0 -0.8241634 -0.1373606 -0.5494422 0.853760 0.999756
-1 2 0 0 -0.9863939 -0.164399 0.838135 0.999756
0 2 0 -0.5656855 -0.7071068 -0.4242641 0.853760 0.999756
0 2 1 -0.5570861 -0.7427813 0.3713907 0.853760 0.984131
0 3 1 -0.6396022 -0.4264015 0.6396022 0.853760 0.984131
0 3 1 -0.6396022 -0.4264015 0.6396022 0.853760 0.999756
-1 4 1 -0.7071068 0.7071068 0 0.838135 0.984131
0 4 1 -0.6963106 0.1740777 0.6963106 0.853760 0.984131
0 4 1 -0.6963106 0.1740777 0.6963106 0.853760 0.999756
-1 5 0 -0.7071068 0 -0.7071068 0.853760 0.999756
0 5 0 -0.7071068 0 -0.7071068 0.838135 0.999756
0 4 0 -0.8241634 -0.1373606 -0.5494422 0.838135 0.984131
-1 5 1 -0.7071068 0 0.7071068 0.838135 0.984131
0 5 1 -0.7715167 0.1543034 0.6172134 0.853760 0.984131
0 5 0 -0.7071068 0 -0.7071068 0.853760 0.999756
0 5 1 -0.7715167 0.1543034 0.6172134 0.853760 0.999756
-1 5 1 -0.7071068 0 0.7071068 0.838135 0.999756
-1 5 1 -0.7071068 0 0.7071068 0.853760 0.984131
-1 5 0 -0.7071068 0 -0.7071068 0.838135 0.984131
-1 5 0 -0.7071068 0 -0.7071068 0.853760 0.984131
-1 6 0 -0.8164966 0.4082483 -0.4082483 0.853760 0.999756
0 5 0 -0.7071068 0 -0.7071068 0.838135 0.984131
0 5 1 -0.7715167 0.1543034 0.6172134 0.838135 0.984131
0 5 0 -0.7071068 0 -0.7071068 0.853760 0.984131
0 6 0 -0.3481553 0.8703883 -0.3481553 0.853760 0.999756
-1 6 1 -0.4082483 0.8164966 0.4082483 0.838135 0.984131
0 6 1 -0.5570861 0.7427813 0.3713907 0.853760 0.984131
0 6 1 -0.5570861 0.7427813 0.3713907 0.853760 0.999756
-1 6 1 -0.4082483 0.8164966 0.4082483 0.838135 0.999756
-1 2 1 -0.1622214 -0.9733285 -0.1622214 0.838135 0.999756
0 2 1 -0.5570861 -0.7427813 0.3713907 0.853760 0.999756
0 3 1 -0.6396022 -0.4264015 0.6396022 0.838135 0.999756
0 2 1 -0.5570861 -0.7427813 0.3713907 0.838135 0.984131
0 2 2 0 -0.9863939 -0.164399 0.838135 0.984131
0 3 2 -0.4082483 -0.8164966 -0.4082483 0.853760 0.984131
0 3 2 -0.4082483 -0.8164966 -0.4082483 0.853760 0.999756
0 4 1 -0.6963106 0.1740777 0.6963106 0.838135 0.999756
0 3 1 -0.6396022 -0.4264015 0.6396022 0.838135 0.984131
0 3 2 -0.4082483 -0.8164966 -0.4082483 0.838135 0.984131
-1 4 2 -0.5883484 0.7844645 0.1961161 0.838135 0.984131
0 4 2 -0.4364358 0.8728716 0.2182179 0.853760 0.984131
0 4 2 -0.4364358 0.8728716 0.2182179 0.853760 0.999756
-1 2 3 -0.5773503 -0.5773503 0.5773503 0.838135 0.984131
-1 2 2 -0.2425356 -0.9701425 0 0.838135 0.999756
0 2 2 0 -0.9863939 -0.164399 0.853760 0.999756
0 2 3 -0.2294157 -0.6882472 0.6882472 0.838135 0.984131
-1 3 3 -0.6882472 -0.2294157 0.6882472 0.838135 0.984131
0 3 3 -0.1561738 -0.3123476 0.9370426 0.853760 0.984131
0 3 3 -0.1561738 -0.3123476 0.9370426 0.853760 0.999756
-1 3 3 -0.6882472 -0.2294157 0.6882472 0.838135 0.999756
-1 3 3 -0.6882472 -0.2294157 0.6882472 0.853760 0.984131
0 3 3 -0.1561738 -0.3123476 0.9370426 0.838135 0.984131
-1 4 3 -0.4082483 0.8164966 0.4082483 0.838135 0.984131
0 4 3 0 0.7071068 0.7071068 0.853760 0.984131
0 4 3 0 0.7071068 0.7071068 0.853760 0.999756
-1 4 3 -0.4082483 0.8164966 0.4082483 0.838135 0.999756
0 2 -2 0 -0.7071068 -0.7071068 0.838135 0.999756
1 2 -2 0 -0.7071068 -0.7071068 0.838135 0.984131
1 2 -1 0 -1 0 0.838135 0.984131
1 2 -2 0 -0.7071068 -0.7071068 0.853760 0.984131
1 3 -2 0 0 -1 0.853760 0.999756
1 3 -1 -0.7071068 0 -0.7071068 0.853760 0.984131
1 3 -1 -0.7071068 0 -0.7071068 0.853760 0.999756
1 3 -2 0 0 -1 0.838135 0.984131
1 3 -1 -0.7071068 0 -0.7071068 0.838135 0.984131
1 3 -2 0 0 -1 0.853760 0.984131
1 4 -2 0 0.7071068 -0.7071068 0.853760 0.999756
0 4 -1 -0.3333333 0.6666667 -0.6666667 0.838135 0.984131
1 4 -1 0 0.9486833 -0.3162278 0.853760 0.984131
1 4 -1 0 0.9486833 -0.3162278 0.853760 0.999756
0 2 -1 -0.3123476 -0.9370426 -0.1561738 0.838135 0.999756
1 2 -1 0 -1 0 0.853760 0.999756
1 2 0 0.4685213 -0.6246951 -0.6246951 0.853760 0.984131
1 2 0 0.4685213 -0.6246951 -0.6246951 0.838135 0.984131
1 3 0 0.3651484 0.1825742 -0.9128709 0.838135 0.999756
1 3 0 0.3651484 0.1825742 -0.9128709 0.853760 0.984131
1 3 0 0.3651484 0.1825742 -0.9128709 0.838135 0.984131
1 4 0 0.6201737 0.2480695 -0.7442084 0.838135 0.999756
1 4 0 0.6201737 0.2480695 -0.7442084 0.853760 0.984131
0 5 -1 -0.7071068 0 -0.7071068 0.853760 0.999756
1 4 -1 0 0.9486833 -0.3162278 0.838135 0.984131
1 4 0 0.6201737 0.2480695 -0.7442084 0.838135 0.984131
1 5 -1 0.6882472 -0.2294157 -0.6882472 0.853760 0.999756
1 5 0 0.6401844 0 -0.7682213 0.838135 0.999756
1 5 0 0.6401844 0 -0.7682213 0.853760 0.984131
0 5 -1 -0.7071068 0 -0.7071068 0.838135 0.984131
0 5 -1 -0.7071068 0 -0.7071068 0.853760 0.984131
0 6 -1 -0.8164966 0.4082483 -0.4082483 0.853760 0.999756
1 5 -1 0.6882472 -0.2294157 -0.6882472 0.838135 0.984131
1 5 0 0.6401844 0 -0.7682213 0.838135 0.984131
1 5 -1 0.6882472 -0.2294157 -0.6882472 0.853760 0.984131
1 6 -1 0.5773503 0.5773503 -0.5773503 0.853760 0.999756
0 6 0 -0.3481553 0.8703883 -0.3481553 0.838135 0.984131
1 6 0 0 0.8944272 -0.4472136 0.853760 0.984131
1 6 0 0 0.8944272 -0.4472136 0.853760 0.999756
1 5 1 0.5070926 -0.1690309 0.8451543 0.838135 0.984131
0 6 1 -0.5570861 0.7427813 0.3713907 0.838135 0.984131
1 6 1 0.1924501 0.9622505 0.1924501 0.853760 0.984131
1 5 1 0.5070926 -0.1690309 0.8451543 0.853760 0.984131
1 6 1 0.1924501 0.9622505 0.1924501 0.853760 0.999756
0 2 1 -0.5570861 -0.7427813 0.3713907 0.838135 0.999756
1 2 1 0.4866643 -0.8111071 0.3244428 0.853760 0.999756
1 2 2 0 -1 0 0.838135 0.984131
1 2 1 0.4866643 -0.8111071 0.3244428 0.853760 0.984131
1 3 1 0.904534 -0.3015113 0.3015113 0.853760 0.999756
1 3 2 0.7071068 -0.7071068 0 0.853760 0.984131
1 3 2 0.7071068 -0.7071068 0 0.853760 0.999756
1 3 2 0.7071068 -0.7071068 0 0.838135 0.984131
1 3 1 0.904534 -0.3015113 0.3015113 0.853760 0.984131
1 4 1 0.7071068 0 0.7071068 0.853760 0.999756
0 4 2 -0.4364358 0.8728716 0.2182179 0.838135 0.984131
1 4 2 0.3651484 0.9128709 0.1825742 0.853760 0.984131
1 4 2 0.3651484 0.9128709 0.1825742 0.853760 0.999756
0 5 1 -0.7715167 0.1543034 0.6172134 0.838135 0.999756
0 4 1 -0.6963106 0.1740777 0.6963106 0.838135 0.984131
1 4 2 0.3651484 0.9128709 0.1825742 0.838135 0.984131
1 4 1 0.7071068 0 0.7071068 0.853760 0.984131
1 5 1 0.5070926 -0.1690309 0.8451543 0.853760 0.999756
0 5 2 -0.6882472 -0.2294157 0.6882472 0.838135 0.984131
1 5 2 0.7071068 0 0.7071068 0.853760 0.984131
1 5 2 0.7071068 0 0.7071068 0.853760 0.999756
0 5 2 -0.6882472 -0.2294157 0.6882472 0.838135 0.999756
0 5 2 -0.6882472 -0.2294157 0.6882472 0.853760 0.984131
1 5 2 0.7071068 0 0.7071068 0.838135 0.984131
0 6 2 -0.4082483 0.8164966 0.4082483 0.838135 0.984131
1 6 2 0.4082483 0.4082483 0.8164966 0.853760 0.984131
1 6 2 0.4082483 0.4082483 0.8164966 0.853760 0.999756
0 6 2 -0.4082483 0.8164966 0.4082483 0.838135 0.999756
0 2 2 0 -0.9863939 -0.164399 0.838135 0.999756
1 2 2 0 -1 0 0.853760 0.999756
1 2 3 0 -0.7071068 0.7071068 0.838135 0.984131
1 3 3 0 -0.164399 0.9863939 0.853760 0.984131
1 3 3 0 -0.164399 0.9863939 0.853760 0.999756
1 3 3 0 -0.164399 0.9863939 0.838135 0.984131
0 4 3 0 0.7071068 0.7071068 0.838135 0.984131
1 4 3 -0.2294157 0.6882472 0.6882472 0.853760 0.984131
1 4 3 -0.2294157 0.6882472 0.6882472 0.853760 0.999756
1 2 -2 0 -0.7071068 -0.7071068 0.838135 0.999756
2 2 -2 0.4082483 -0.8164966 -0.4082483 0.838135 0.984131
2 2 -1 0.4364358 -0.8728716 -0.2182179 0.838135 0.984131
2 2 -2 0.4082483 -0.8164966 -0.4082483 0.853760 0.984131
2 3 -2 0.3481553 -0.3481553 -0.8703883 0.853760 0.999756
2 3 -1 0.2357023 -0.9428091 -0.2357023 0.853760 0.984131
2 3 -1 0.2357023 -0.9428091 -0.2357023 0.853760 0.999756
2 3 -2 0.3481553 -0.3481553 -0.8703883 0.838135 0.984131
2 3 -1 0.2357023 -0.9428091 -0.2357023 0.838135 0.984131
2 3 -2 0.3481553 -0.3481553 -0.8703883 0.853760 0.984131
2 4 -2 0 0.7071068 -0.7071068 0.853760 0.999756
2 4 -1 0 1 0 0.853760 0.984131
2 4 -1 0 1 0 0.853760 0.999756
1 3 0 0.3651484 0.1825742 -0.9128709 0.853760 0.999756
1 2 -1 0 -1 0 0.838135 0.999756
2 2 -1 0.4364358 -0.8728716 -0.2182179 0.853760 0.999756
2 2 0 0.1622214 -0.9733285 -0.1622214 0.838135 0.984131
2 3 0 0.3015114 -0.3015114 -0.904534 0.853760 0.984131
2 3 0 0.3015114 -0.3015114 -0.904534 0.853760 0.999756
1 4 0 0.6201737 0.2480695 -0.7442084 0.853760 0.999756
2 3 0 0.3015114 -0.3015114 -0.904534 0.838135 0.984131
2 4 0 0.2294157 0.6882472 -0.6882472 0.853760 0.984131
2 4 0 0.2294157 0.6882472 -0.6882472 0.853760 0.999756
1 2 1 0.4866643 -0.8111071 0.3244428 0.838135 0.984131
1 2 0 0.4685213 -0.6246951 -0.6246951 0.838135 0.999756
2 2 0 0.1622214 -0.9733285 -0.1622214 0.853760 0.999756
2 2 1 0.164399 -0.9863939 0 0.838135 0.984131
1 3 1 0.904534 -0.3015113 0.3015113 0.838135 0.984131
2 3 1 -0.2672613 -0.8017837 -0.5345225 0.853760 0.984131
2 3 1 -0.2672613 -0.8017837 -0.5345225 0.853760 0.999756
1 3 1 0.904534 -0.3015113 0.3015113 0.838135 0.999756
2 3 1 -0.2672613 -0.8017837 -0.5345225 0.838135 0.984131
1 4 1 0.7071068 0 0.7071068 0.838135 0.984131
2 4 1 0.2357023 0.9428091 -0.2357023 0.853760 0.984131
2 4 1 0.2357023 0.9428091 -0.2357023 0.853760 0.999756
1 4 1 0.7071068 0 0.7071068 0.838135 0.999756
1 5 0 0.6401844 0 -0.7682213 0.853760 0.999756
2 4 0 0.2294157 0.6882472 -0.6882472 0.838135 0.984131
2 4 1 0.2357023 0.9428091 -0.2357023 0.838135 0.984131
2 5 0 0.6882472 -0.2294157 -0.6882472 0.853760 0.999756
2 5 1 0.7071068 0 0.7071068 0.853760 0.984131
2 5 1 0.7071068 0 0.7071068 0.853760 0.999756
1 5 1 0.5070926 -0.1690309 0.8451543 0.838135 0.999756
2 5 0 0.6882472 -0.2294157 -0.6882472 0.838135 0.984131
2 5 1 0.7071068 0 0.7071068 0.838135 0.984131
2 5 0 0.6882472 -0.2294157 -0.6882472 0.853760 0.984131
2 6 0 0.5773503 0.5773503 -0.5773503 0.853760 0.999756
1 6 1 0.1924501 0.9622505 0.1924501 0.838135 0.984131
2 6 1 0.4082483 0.4082483 0.8164966 0.853760 0.984131
2 6 1 0.4082483 0.4082483 0.8164966 0.853760 0.999756
1 2 1 0.4866643 -0.8111071 0.3244428 0.838135 0.999756
2 2 1 0.164399 -0.9863939 0 0.853760 0.999756
2 2 2 0.1825742 -0.9128709 0.3651484 0.838135 0.984131
2 3 2 0.4264015 -0.6396022 0.6396022 0.853760 0.984131
2 3 2 0.4264015 -0.6396022 0.6396022 0.853760 0.999756
2 3 2 0.4264015 -0.6396022 0.6396022 0.838135 0.984131
2 4 2 0.3651484 0.9128709 0.1825742 0.853760 0.984131
2 4 2 0.3651484 0.9128709 0.1825742 0.853760 0.999756
1 2 2 0 -1 0 0.838135 0.999756
2 2 2 0.1825742 -0.9128709 0.3651484 0.853760 0.999756
2 2 3 0.8164966 -0.4082483 0.4082483 0.838135 0.984131
2 3 3 0.6882472 -0.2294157 0.6882472 0.853760 0.984131
2 3 3 0.6882472 -0.2294157 0.6882472 0.853760 0.999756
2 3 3 0.6882472 -0.2294157 0.6882472 0.838135 0.984131
1 4 3 -0.2294157 0.6882472 0.6882472 0.838135 0.984131
2 4 3 0.4082483 0.4082483 0.8164966 0.853760 0.984131
2 4 3 0.4082483 0.4082483 0.8164966 0.853760 0.999756
3 3 -2 0.4082483 -0.8164966 -0.4082483 0.838135 0.984131
3 3 -1 0.9128709 -0.1825742 -0.3651484 0.838135 0.984131
3 3 -2 0.4082483 -0.8164966 -0.4082483 0.853760 0.984131
3 4 -2 0.5773503 0.5773503 -0.5773503 0.853760 0.999756
2 4 -1 0 1 0 0.838135 0.984131
3 4 -1 0.7071068 0.7071068 0 0.853760 0.984131
3 4 -1 0.7071068 0.7071068 0 0.853760 0.999756
2 2 -1 0.4364358 -0.8728716 -0.2182179 0.838135 0.999756
3 3 -1 0.9128709 -0.1825742 -0.3651484 0.838135 0.999756
3 2 -1 0.4082483 -0.8164966 -0.4082483 0.838135 0.984131
3 2 0 0.7071068 -0.7071068 0 0.838135 0.984131
3 2 -1 0.4082483 -0.8164966 -0.4082483 0.853760 0.984131
3 3 -1 0.9128709 -0.1825742 -0.3651484 0.853760 0.999756
3 3 0 0.9733285 0.1622214 -0.1622214 0.853760 0.984131
3 3 0 0.9733285 0.1622214 -0.1622214 0.853760 0.999756
3 3 0 0.9733285 0.1622214 -0.1622214 0.838135 0.984131
3 4 0 0.6882472 0.6882472 -0.2294157 0.853760 0.984131
3 4 0 0.6882472 0.6882472 -0.2294157 0.853760 0.999756
2 2 0 0.1622214 -0.9733285 -0.1622214 0.838135 0.999756
3 2 0 0.7071068 -0.7071068 0 0.853760 0.999756
3 2 1 0.6882472 -0.6882472 0.2294157 0.838135 0.984131
3 3 1 0.9733285 -0.1622214 0.1622214 0.853760 0.984131
3 3 1 0.9733285 -0.1622214 0.1622214 0.853760 0.999756
3 3 1 0.9733285 -0.1622214 0.1622214 0.838135 0.984131
3 4 1 0.7071068 0.7071068 0 0.853760 0.984131
3 4 1 0.7071068 0.7071068 0 0.853760 0.999756
2 2 1 0.164399 -0.9863939 0 0.838135 0.999756
3 2 1 0.6882472 -0.6882472 0.2294157 0.853760 0.999756
3 2 2 0.8164966 -0.4082483 0.4082483 0.838135 0.984131
3 3 2 0.7071068 0 0.7071068 0.853760 0.984131
3 3 2 0.7071068 0 0.7071068 0.853760 0.999756
3 3 2 0.7071068 0 0.7071068 0.838135 0.984131
2 4 2 0.3651484 0.9128709 0.1825742 0.838135 0.984131
3 4 2 0.4082483 0.4082483 0.8164966 0.853760 0.984131
3 4 2 0.4082483 0.4082483 0.8164966 0.853760 0.999756
3 75 76 77 0 
3 75 77 74 0 
3 133 134 79 0 
3 133 79 78 0 
3 135 136 80 0 
3 135 80 137 0 
3 138 139 140 0 
3 138 140 81 0 
3 141 142 143 0 
3 141 143 144 0 
3 145 39 36 0 
3 145 36 146 0 
3 147 148 65 0 
3 147 65 149 0 
3 150 151 152 0 
3 150 152 82 0 
3 153 154 155 0 
3 153 155 156 0 
3 157 40 37 0 
3 157 37 158 0 
3 159 160 66 0 
3 159 66 161 0 
3 162 163 164 0 
3 162 164 83 0 
3 165 166 167 0 
3 165 167 168 0 
3 169 41 38 0 
3 169 38 170 0 
3 171 172 67 0 
3 171 67 173 0 
3 174 175 176 0 
3 174 176 84 0 
3 177 178 179 0 
3 177 179 180 0 
3 181 45 44 0 
3 181 44 182 0 
3 183 184 70 0 
3 183 70 185 0 
3 186 187 188 0 
3 186 188 85 0 
3 189 190 191 0 
3 189 191 192 0 
3 193 194 195 0 
3 193 195 196 0 
3 1 2 3 1 
3 1 3 0 1 
3 197 198 5 1 
3 197 5 4 1 
3 199 200 6 1 
3 199 6 201 1 
3 202 203 204 1 
3 202 204 7 1 
3 205 206 204 1 
3 205 204 3 1 
3 197 4 207 1 
3 197 207 208 1 
3 209 8 9 1 
3 209 9 210 1 
3 205 3 204 1 
3 205 204 206 1 
3 211 212 10 1 
3 211 10 213 1 
3 214 215 216 1 
3 214 216 11 1 
3 217 218 216 1 
3 217 216 9 1 
3 205 206 219 1 
3 205 219 220 1 
3 12 13 208 1 
3 12 208 197 1 
3 221 222 223 1 
3 221 223 14 1 
3 1 2 7 1 
3 1 7 202 1 
3 224 4 207 1 
3 224 207 15 1 
3 225 226 207 1 
3 225 207 208 1 
3 221 14 227 1 
3 221 227 228 1 
3 229 16 220 1 
3 229 220 205 1 
3 225 208 207 1 
3 225 207 226 1 
3 209 8 11 1 
3 209 11 214 1 
3 230 206 219 1 
3 230 219 17 1 
3 231 232 219 1 
3 231 219 220 1 
3 225 226 233 1 
3 225 233 234 1 
3 18 19 228 1 
3 18 228 221 1 
3 235 236 237 1 
3 235 237 20 1 
3 12 13 15 1 
3 12 15 224 1 
3 238 14 227 1 
3 238 227 21 1 
3 239 240 227 1 
3 239 227 228 1 
3 235 20 241 1 
3 235 241 242 1 
3 243 22 234 1 
3 243 234 225 1 
3 239 228 227 1 
3 239 227 240 1 
3 229 16 17 1 
3 229 17 230 1 
3 244 226 233 1 
3 244 233 23 1 
3 245 246 233 1 
3 245 233 234 1 
3 239 240 247 1 
3 239 247 248 1 
3 24 25 242 1 
3 24 242 235 1 
3 249 250 251 1 
3 249 251 26 1 
3 18 19 21 1 
3 18 21 238 1 
3 252 20 241 1 
3 252 241 27 1 
3 253 254 241 1 
3 253 241 242 1 
3 249 26 255 1 
3 249 255 256 1 
3 257 28 248 1 
3 257 248 239 1 
3 253 242 241 1 
3 253 241 254 1 
3 243 22 23 1 
3 243 23 244 1 
3 258 240 247 1 
3 258 247 29 1 
3 259 260 247 1 
3 259 247 248 1 
3 253 254 261 1 
3 253 261 262 1 
3 4 207 6 1 
3 4 6 201 1 
3 202 263 31 1 
3 202 31 30 1 
3 203 204 32 1 
3 203 32 264 1 
3 265 266 267 1 
3 265 267 33 1 
3 214 268 267 1 
3 214 267 6 1 
3 202 30 269 1 
3 202 269 7 1 
3 206 219 10 1 
3 206 10 213 1 
3 214 6 267 1 
3 214 267 268 1 
3 215 216 34 1 
3 215 34 270 1 
3 271 272 273 1 
3 271 273 35 1 
3 274 275 273 1 
3 274 273 10 1 
3 214 268 276 1 
3 214 276 11 1 
3 14 227 7 1 
3 14 7 202 1 
3 224 277 278 1 
3 224 278 279 1 
3 4 207 33 1 
3 4 33 265 1 
3 280 30 269 1 
3 280 269 281 1 
3 230 282 269 1 
3 230 269 7 1 
3 224 279 283 1 
3 224 283 15 1 
3 226 233 11 1 
3 226 11 214 1 
3 230 7 269 1 
3 230 269 282 1 
3 206 219 35 1 
3 206 35 271 1 
3 284 268 276 1 
3 284 276 285 1 
3 286 287 276 1 
3 286 276 11 1 
3 230 282 288 1 
3 230 288 17 1 
3 20 241 15 1 
3 20 15 224 1 
3 238 289 290 1 
3 238 290 291 1 
3 14 227 281 1 
3 14 281 280 1 
3 244 292 283 1 
3 244 283 15 1 
3 238 291 293 1 
3 238 293 21 1 
3 240 247 17 1 
3 240 17 230 1 
3 244 15 283 1 
3 244 283 292 1 
3 226 233 285 1 
3 226 285 284 1 
3 294 295 288 1 
3 294 288 17 1 
3 244 292 296 1 
3 244 296 23 1 
3 246 42 43 1 
3 246 43 286 1 
3 294 17 288 1 
3 294 288 295 1 
3 232 297 298 1 
3 232 298 299 1 
3 300 301 302 1 
3 300 302 43 1 
3 294 295 303 1 
3 294 303 304 1 
3 305 46 47 1 
3 305 47 306 1 
3 300 43 302 1 
3 300 302 301 1 
3 307 308 48 1 
3 307 48 309 1 
3 310 311 312 1 
3 310 312 49 1 
3 313 314 312 1 
3 313 312 47 1 
3 300 301 315 1 
3 300 315 316 1 
3 26 255 21 1 
3 26 21 238 1 
3 252 317 318 1 
3 252 318 50 1 
3 20 241 319 1 
3 20 319 320 1 
3 321 291 293 1 
3 321 293 51 1 
3 258 322 293 1 
3 258 293 21 1 
3 252 50 323 1 
3 252 323 27 1 
3 254 261 23 1 
3 254 23 244 1 
3 258 21 293 1 
3 258 293 322 1 
3 240 247 324 1 
3 240 324 325 1 
3 326 292 296 1 
3 326 296 52 1 
3 327 328 296 1 
3 327 296 23 1 
3 258 322 329 1 
3 258 329 29 1 
3 53 54 27 1 
3 53 27 252 1 
3 330 331 332 1 
3 330 332 55 1 
3 26 255 51 1 
3 26 51 321 1 
3 333 50 323 1 
3 333 323 56 1 
3 334 335 323 1 
3 334 323 27 1 
3 330 55 336 1 
3 330 336 337 1 
3 338 57 29 1 
3 338 29 258 1 
3 334 27 323 1 
3 334 323 335 1 
3 254 261 52 1 
3 254 52 326 1 
3 339 322 329 1 
3 339 329 58 1 
3 340 341 329 1 
3 340 329 29 1 
3 334 335 342 1 
3 334 342 343 1 
3 30 269 32 1 
3 30 32 264 1 
3 265 344 60 1 
3 265 60 59 1 
3 266 267 61 1 
3 266 61 345 1 
3 346 347 348 1 
3 346 348 62 1 
3 271 349 348 1 
3 271 348 32 1 
3 265 59 350 1 
3 265 350 33 1 
3 268 276 34 1 
3 268 34 270 1 
3 271 32 348 1 
3 271 348 349 1 
3 272 273 63 1 
3 272 63 351 1 
3 352 353 354 1 
3 352 354 64 1 
3 355 356 354 1 
3 355 354 34 1 
3 271 349 357 1 
3 271 357 35 1 
3 279 283 33 1 
3 279 33 265 1 
3 280 358 359 1 
3 280 359 360 1 
3 30 269 62 1 
3 30 62 346 1 
3 361 59 350 1 
3 361 350 362 1 
3 284 363 350 1 
3 284 350 33 1 
3 282 288 35 1 
3 282 35 271 1 
3 284 33 350 1 
3 284 350 363 1 
3 268 276 64 1 
3 268 64 352 1 
3 364 349 357 1 
3 364 357 365 1 
3 299 366 357 1 
3 299 357 35 1 
3 287 302 68 1 
3 287 68 355 1 
3 299 35 357 1 
3 299 357 366 1 
3 275 367 69 1 
3 275 69 368 1 
3 369 356 370 1 
3 369 370 371 1 
3 309 372 370 1 
3 309 370 68 1 
3 311 312 71 1 
3 311 71 373 1 
3 309 68 370 1 
3 309 370 372 1 
3 374 375 72 1 
3 374 72 376 1 
3 377 378 379 1 
3 377 379 73 1 
3 380 381 379 1 
3 380 379 71 1 
3 309 372 382 1 
3 309 382 48 1 
3 301 315 48 1 
3 301 48 309 1 
3 311 312 73 1 
3 311 73 377 1 
3 383 372 382 1 
3 383 382 86 1 
3 384 385 382 1 
3 384 382 48 1 
3 310 386 387 1 
3 310 387 49 1 
3 50 323 319 1 
3 50 319 320 1 
3 321 388 389 1 
3 321 389 87 1 
3 390 391 392 1 
3 390 392 88 1 
3 326 393 392 1 
3 326 392 319 1 
3 321 87 394 1 
3 321 394 51 1 
3 322 329 324 1 
3 322 324 325 1 
3 326 319 392 1 
3 326 392 393 1 
3 395 396 397 1 
3 395 397 89 1 
3 398 399 397 1 
3 398 397 324 1 
3 326 393 400 1 
3 326 400 52 1 
3 328 90 401 1 
3 328 401 402 1 
3 398 324 397 1 
3 398 397 399 1 
3 403 404 405 1 
3 403 405 91 1 
3 406 407 405 1 
3 406 405 401 1 
3 398 399 408 1 
3 398 408 409 1 
3 410 92 49 1 
3 410 49 310 1 
3 406 401 405 1 
3 406 405 407 1 
3 301 315 86 1 
3 301 86 383 1 
3 411 386 387 1 
3 411 387 93 1 
3 412 413 387 1 
3 412 387 49 1 
3 406 407 414 1 
3 406 414 415 1 
3 55 336 51 1 
3 55 51 321 1 
3 333 416 417 1 
3 333 417 94 1 
3 50 323 88 1 
3 50 88 390 1 
3 418 87 394 1 
3 418 394 95 1 
3 339 419 394 1 
3 339 394 51 1 
3 333 94 420 1 
3 333 420 56 1 
3 335 342 52 1 
3 335 52 326 1 
3 339 51 394 1 
3 339 394 419 1 
3 322 329 89 1 
3 322 89 395 1 
3 421 393 400 1 
3 421 400 96 1 
3 422 423 400 1 
3 422 400 52 1 
3 339 419 424 1 
3 339 424 58 1 
3 59 350 61 1 
3 59 61 345 1 
3 346 425 98 1 
3 346 98 97 1 
3 347 348 99 1 
3 347 99 426 1 
3 427 428 429 1 
3 427 429 100 1 
3 352 430 429 1 
3 352 429 61 1 
3 346 97 431 1 
3 346 431 62 1 
3 349 357 63 1 
3 349 63 351 1 
3 352 61 429 1 
3 352 429 430 1 
3 353 354 101 1 
3 353 101 432 1 
3 433 434 435 1 
3 433 435 102 1 
3 368 436 435 1 
3 368 435 63 1 
3 352 430 437 1 
3 352 437 64 1 
3 360 438 62 1 
3 360 62 346 1 
3 361 439 440 1 
3 361 440 103 1 
3 59 350 100 1 
3 59 100 427 1 
3 441 97 431 1 
3 441 431 104 1 
3 364 442 431 1 
3 364 431 62 1 
3 361 103 443 1 
3 361 443 362 1 
3 363 444 64 1 
3 363 64 352 1 
3 364 62 431 1 
3 364 431 442 1 
3 349 357 102 1 
3 349 102 433 1 
3 445 430 437 1 
3 445 437 105 1 
3 369 446 437 1 
3 369 437 64 1 
3 364 442 447 1 
3 364 447 365 1 
3 448 449 450 1 
3 448 450 106 1 
3 360 438 104 1 
3 360 104 441 1 
3 451 103 443 1 
3 451 443 107 1 
3 452 453 443 1 
3 452 443 362 1 
3 448 106 454 1 
3 448 454 455 1 
3 452 362 443 1 
3 452 443 453 1 
3 363 444 105 1 
3 363 105 445 1 
3 456 442 447 1 
3 456 447 108 1 
3 457 458 447 1 
3 457 447 365 1 
3 452 453 459 1 
3 452 459 460 1 
3 457 365 447 1 
3 457 447 458 1 
3 366 461 109 1 
3 366 109 462 1 
3 463 446 464 1 
3 463 464 110 1 
3 383 465 464 1 
3 383 464 371 1 
3 457 458 466 1 
3 457 466 467 1 
3 386 387 73 1 
3 386 73 377 1 
3 383 371 464 1 
3 383 464 465 1 
3 372 382 111 1 
3 372 111 468 1 
3 469 470 471 1 
3 469 471 112 1 
3 472 473 471 1 
3 472 471 73 1 
3 383 465 474 1 
3 383 474 86 1 
3 87 394 455 1 
3 87 455 448 1 
3 390 475 476 1 
3 390 476 113 1 
3 391 392 107 1 
3 391 107 451 1 
3 477 106 454 1 
3 477 454 114 1 
3 395 478 454 1 
3 395 454 455 1 
3 390 113 479 1 
3 390 479 88 1 
3 393 400 460 1 
3 393 460 452 1 
3 395 455 454 1 
3 395 454 478 1 
3 396 397 108 1 
3 396 108 456 1 
3 480 453 459 1 
3 480 459 115 1 
3 403 481 459 1 
3 403 459 460 1 
3 395 478 482 1 
3 395 482 89 1 
3 94 420 88 1 
3 94 88 390 1 
3 418 483 484 1 
3 418 484 116 1 
3 87 394 114 1 
3 87 114 477 1 
3 485 113 479 1 
3 485 479 117 1 
3 421 486 479 1 
3 421 479 88 1 
3 418 116 487 1 
3 418 487 95 1 
3 419 424 89 1 
3 419 89 395 1 
3 421 88 479 1 
3 421 479 486 1 
3 393 400 115 1 
3 393 115 480 1 
3 488 478 482 1 
3 488 482 118 1 
3 489 490 482 1 
3 489 482 89 1 
3 421 486 491 1 
3 421 491 96 1 
3 430 437 101 1 
3 430 101 432 1 
3 433 99 120 1 
3 433 120 119 1 
3 434 435 121 1 
3 434 121 492 1 
3 493 494 495 1 
3 493 495 122 1 
3 496 497 495 1 
3 496 495 101 1 
3 433 119 498 1 
3 433 498 102 1 
3 103 443 100 1 
3 103 100 427 1 
3 441 499 124 1 
3 441 124 123 1 
3 97 431 500 1 
3 97 500 501 1 
3 502 503 504 1 
3 502 504 125 1 
3 445 505 504 1 
3 445 504 100 1 
3 441 123 506 1 
3 441 506 104 1 
3 442 447 102 1 
3 442 102 433 1 
3 445 100 504 1 
3 445 504 505 1 
3 430 437 122 1 
3 430 122 493 1 
3 507 119 498 1 
3 507 498 126 1 
3 462 508 498 1 
3 462 498 102 1 
3 445 505 509 1 
3 445 509 105 1 
3 106 454 104 1 
3 106 104 441 1 
3 451 510 511 1 
3 451 511 127 1 
3 103 443 125 1 
3 103 125 502 1 
3 512 123 506 1 
3 512 506 128 1 
3 456 513 506 1 
3 456 506 104 1 
3 451 127 514 1 
3 451 514 107 1 
3 453 459 105 1 
3 453 105 445 1 
3 456 104 506 1 
3 456 506 513 1 
3 442 447 126 1 
3 442 126 507 1 
3 515 505 509 1 
3 515 509 129 1 
3 463 516 509 1 
3 463 509 105 1 
3 456 513 517 1 
3 456 517 108 1 
3 113 479 107 1 
3 113 107 451 1 
3 477 518 519 1 
3 477 519 130 1 
3 106 454 128 1 
3 106 128 512 1 
3 520 127 514 1 
3 520 514 131 1 
3 480 521 514 1 
3 480 514 107 1 
3 477 130 522 1 
3 477 522 114 1 
3 478 482 108 1 
3 478 108 456 1 
3 480 107 514 1 
3 480 514 521 1 
3 453 459 129 1 
3 453 129 515 1 
3 523 513 517 1 
3 523 517 132 1 
3 524 525 517 1 
3 524 517 108 1 
3 480 521 526 1 
3 480 526 115 1 
