ply
format ascii 1.0
comment VCGLIB generated
comment TextureFile tree-RGB.png
comment TextureFile tree-RGBA.png
element vertex 548
property float x
property float y
property float z
property float nx
property float ny
property float nz
property float texture_u
property float texture_v
element face 702
property list uchar int vertex_indices
property int texnumber
end_header
-3 3 -2 -0.4082483 -0.4082483 -0.8164966 0.915039 0.983398
-3 3 -1 -0.9128709 -0.3651484 -0.1825742 0.930664 0.983398
-3 4 -1 -0.6882472 0.6882472 -0.2294157 0.930664 0.999023
-3 4 -2 -0.8164966 0.4082483 -0.4082483 0.915039 0.999023
-2 3 -1 -0.5345225 -0.8017837 -0.2672613 0.930664 0.983398
-2 3 -2 -0.4082483 -0.4082483 -0.8164966 0.930664 0.999023
-2 4 -2 -0.2294157 0.6882472 -0.6882472 0.915039 0.999023
-2 4 -1 -0.1622214 0.9733285 -0.1622214 0.915039 0.999023
-3 2 -1 -0.4082483 -0.4082483 -0.8164966 0.915039 0.983398
-3 2 0 -0.6882472 -0.6882472 -0.2294157 0.930664 0.983398
-3 3 0 -0.9370426 -0.1561738 -0.3123476 0.930664 0.999023
-2 2 0 0 -1 0 0.930664 0.983398
-2 2 -1 -0.3651484 -0.9128709 -0.1825742 0.930664 0.999023
-2 3 0 -0.6666667 -0.3333333 -0.6666667 0.915039 0.999023
-3 4 0 -0.6882472 0.6882472 -0.2294157 0.930664 0.999023
-2 4 0 -0.2981424 0.745356 -0.5962848 0.915039 0.999023
-3 2 1 -0.7071068 -0.7071068 0 0.930664 0.983398
-3 3 1 -0.9733285 -0.1622214 -0.1622214 0.930664 0.999023
-2 2 1 0 -1 0 0.930664 0.983398
-2 3 1 -0.8944272 -0.4472136 0 0.915039 0.999023
-3 4 1 -0.6882472 0.6882472 -0.2294157 0.930664 0.999023
-2 4 1 -0.8728716 0.4364358 -0.2182179 0.915039 0.999023
-3 2 2 -0.7071068 -0.7071068 0 0.930664 0.983398
-3 3 2 -0.9486833 0 -0.3162278 0.930664 0.999023
-2 2 2 -0.1622214 -0.9733285 0.1622214 0.930664 0.983398
-2 3 2 -0.904534 -0.3015113 -0.3015113 0.915039 0.999023
-3 4 2 -0.7071068 0.7071068 0 0.930664 0.999023
-2 4 2 -0.6963106 0.6963106 0.1740777 0.915039 0.999023
-3 2 3 -0.5773503 -0.5773503 0.5773503 0.930664 0.983398
-3 3 3 -0.7071068 0 0.7071068 0.930664 0.999023
-2 2 3 -0.2294157 -0.6882472 0.6882472 0.930664 0.983398
-2 3 3 -0.1622214 -0.1622214 0.9733285 0.915039 0.999023
-3 4 3 -0.4082483 0.8164966 0.4082483 0.930664 0.999023
-2 4 3 -0.2294157 0.6882472 0.6882472 0.915039 0.999023
-2 2 -2 -0.4082483 -0.4082483 -0.8164966 0.915039 0.983398
-1 2 -1 0 -0.9863939 -0.164399 0.930664 0.983398
-1 2 -2 0 -0.7071068 -0.7071068 0.930664 0.999023
-1 3 -2 0 -0.164399 -0.9863939 0.915039 0.999023
-1 3 -1 -0.7071068 -0.7071068 0 0.915039 0.999023
-1 4 -2 0 0.7071068 -0.7071068 0.915039 0.999023
-1 4 -1 -0.4082483 0.8164966 -0.4082483 0.915039 0.999023
-1 2 0 -0.4574957 -0.7624929 -0.4574957 0.352539 0.999023
-1 3 0 -0.7844645 0.1961161 -0.5883484 0.352539 0.999023
-1 4 0 -0.7071068 0 -0.7071068 0.352539 0.999023
-1 2 1 -0.5144958 -0.6859944 0.5144958 0.368164 0.999023
-1 3 1 -0.6882472 -0.2294157 0.6882472 0.368164 0.999023
-1 4 1 -0.7071068 0 0.7071068 0.368164 0.999023
-2 5 1 -0.9284767 0 0.3713907 0.930664 0.999023
-2 5 0 -0.6882472 -0.2294157 -0.6882472 0.915039 0.999023
-1 5 0 -0.7808688 0 -0.6246951 0.352539 0.999023
-1 5 1 -0.5570861 0.7427813 0.3713907 0.368164 0.999023
-2 6 1 -0.4082483 0.8164966 0.4082483 0.930664 0.999023
-2 6 0 -0.8164966 0.4082483 -0.4082483 0.915039 0.999023
-1 6 0 -0.3244428 0.8111071 -0.4866643 0.915039 0.999023
-1 6 1 -0.5570861 0.7427813 0.3713907 0.915039 0.999023
-1 2 2 0.164399 -0.9863939 0 0.930664 0.983398
-1 3 2 0.4082483 -0.4082483 -0.8164966 0.915039 0.999023
-1 4 2 0 0.7071068 0.7071068 0.915039 0.999023
-2 5 2 -0.4082483 0.8164966 0.4082483 0.930664 0.999023
-1 5 2 -0.3651484 0.1825742 0.9128709 0.915039 0.999023
-1 2 3 0 -0.7071068 0.7071068 0.930664 0.983398
-1 3 3 -0.1622214 -0.1622214 0.9733285 0.915039 0.999023
-1 4 3 -0.2294157 0.6882472 0.6882472 0.915039 0.999023
0 2 -1 0 -0.9863939 -0.164399 0.930664 0.983398
0 2 -2 -0.2294157 -0.6882472 -0.6882472 0.930664 0.999023
0 3 -2 -0.164399 0 -0.9863939 0.915039 0.999023
0 3 -1 -0.5773503 -0.5773503 -0.5773503 0.915039 0.999023
0 4 -2 -0.2294157 0.6882472 -0.6882472 0.915039 0.999023
0 4 -1 -0.2672613 0.5345225 -0.8017837 0.915039 0.999023
0 2 0 0.5144958 -0.6859944 -0.5144958 0.352539 0.999023
0 3 0 0.2425356 0 -0.9701425 0.352539 0.999023
0 4 0 0.4364358 -0.2182179 -0.8728716 0.352539 0.999023
-1 5 -1 -0.7071068 0 -0.7071068 0.915039 0.999023
0 5 -1 0.2357023 0.2357023 -0.9428091 0.915039 0.999023
0 5 0 0.5144958 0.6859944 -0.5144958 0.352539 0.999023
-1 6 -1 -0.8164966 0.4082483 -0.4082483 0.915039 0.999023
0 6 -1 0.5773503 0.5773503 -0.5773503 0.915039 0.999023
0 6 0 0 0.9701425 -0.2425356 0.915039 0.999023
-1 0 0 -0.4082483 -0.4082483 -0.8164966 0.352539 0.983398
-1 0 1 -0.5773503 -0.5773503 0.5773503 0.368164 0.983398
-1 1 1 -0.7071068 0 0.7071068 0.368164 0.999023
-1 1 0 -0.7071068 0 -0.7071068 0.352539 0.999023
0 0 1 0.8164966 -0.4082483 0.4082483 0.385742 0.983398
0 0 0 0.4082483 -0.8164966 -0.4082483 0.385742 0.999023
0 1 0 0.7071068 0 -0.7071068 0.352539 0.999023
0 1 1 0.7071068 0 0.7071068 0.352539 0.999023
0 2 1 0.4866643 -0.8111071 0.3244428 0.352539 0.999023
0 3 1 0.6666667 -0.3333333 0.6666667 0.352539 0.999023
0 4 1 0.7276069 -0.4850713 0.4850713 0.352539 0.999023
0 5 1 0.2672613 0.5345225 0.8017837 0.352539 0.999023
0 6 1 0.1924501 0.9622505 0.1924501 0.915039 0.999023
0 2 2 -0.1622214 -0.9733285 0.1622214 0.930664 0.983398
0 3 2 -0.9486833 0 -0.3162278 0.915039 0.999023
0 4 2 -0.5773503 0.5773503 0.5773503 0.915039 0.999023
0 5 2 0.2182179 0.4364358 0.8728716 0.915039 0.999023
-1 6 2 -0.4082483 0.8164966 0.4082483 0.930664 0.999023
0 6 2 0.4082483 0.4082483 0.8164966 0.915039 0.999023
0 2 3 -0.2294157 -0.6882472 0.6882472 0.930664 0.983398
0 3 3 -0.164399 0 0.9863939 0.915039 0.999023
0 4 3 0 0.7071068 0.7071068 0.915039 0.999023
1 2 -1 0.1961161 -0.7844645 -0.5883484 0.930664 0.983398
1 2 -2 0.4082483 -0.8164966 -0.4082483 0.930664 0.999023
1 3 -2 0.7071068 0 -0.7071068 0.915039 0.999023
1 3 -1 0.4364358 -0.2182179 -0.8728716 0.915039 0.999023
1 4 -2 0.5773503 0.5773503 -0.5773503 0.915039 0.999023
1 4 -1 0.4082483 0.4082483 -0.8164966 0.915039 0.999023
1 2 0 -0.3123476 -0.9370426 -0.1561738 0.930664 0.983398
1 3 0 -0.6666667 -0.3333333 -0.6666667 0.915039 0.999023
1 4 0 0.5345225 0.2672613 -0.8017837 0.915039 0.999023
1 5 -1 0.5773503 0.5773503 -0.5773503 0.915039 0.999023
1 5 0 0.8728716 0.2182179 -0.4364358 0.915039 0.999023
1 2 1 0 -0.9486833 -0.3162278 0.930664 0.983398
1 3 1 0 -0.4472136 -0.8944272 0.915039 0.999023
1 4 1 0.8164966 0.4082483 -0.4082483 0.915039 0.999023
1 5 1 0.9128709 0.3651484 0.1825742 0.915039 0.999023
1 6 0 0.5773503 0.5773503 -0.5773503 0.915039 0.999023
1 6 1 0.4082483 0.4082483 0.8164966 0.915039 0.999023
1 2 2 0 -1 0 0.930664 0.983398
1 3 2 -0.8164966 -0.4082483 -0.4082483 0.915039 0.999023
1 4 2 0.2425356 0.9701425 0 0.915039 0.999023
1 5 2 0.4082483 0.4082483 0.8164966 0.915039 0.999023
1 2 3 0 -0.7071068 0.7071068 0.930664 0.983398
1 3 3 0 -0.164399 0.9863939 0.915039 0.999023
1 4 3 0 0.7071068 0.7071068 0.915039 0.999023
2 2 0 0.7071068 -0.7071068 0 0.930664 0.983398
2 2 -1 0.4082483 -0.8164966 -0.4082483 0.930664 0.999023
2 3 -1 0.7071068 0 -0.7071068 0.915039 0.999023
2 3 0 0.9863939 0.164399 0 0.915039 0.999023
2 4 -1 0.5773503 0.5773503 -0.5773503 0.915039 0.999023
2 4 0 0.7071068 0.7071068 0 0.915039 0.999023
2 2 1 0.7071068 -0.7071068 0 0.930664 0.983398
2 3 1 0.9863939 0.164399 0 0.915039 0.999023
2 4 1 0.7071068 0.7071068 0 0.915039 0.999023
2 2 2 0.6882472 -0.6882472 0.2294157 0.930664 0.983398
2 3 2 0.9863939 -0.164399 0 0.915039 0.999023
2 4 2 0.6882472 0.6882472 -0.2294157 0.915039 0.999023
2 2 3 0.8164966 -0.4082483 0.4082483 0.930664 0.983398
2 3 3 0.7071068 0 0.7071068 0.915039 0.999023
2 4 3 0.4082483 0.4082483 0.8164966 0.915039 0.999023
-1 0 1 -0.5773503 -0.5773503 0.5773503 0.370117 0.983398
-1 0 0 -0.4082483 -0.4082483 -0.8164966 0.370117 0.999023
-1 0 0 -0.4082483 -0.4082483 -0.8164966 0.368164 0.983398
-1 1 0 -0.7071068 0 -0.7071068 0.368164 0.999023
0 0 0 0.4082483 -0.8164966 -0.4082483 0.352539 0.983398
0 0 1 0.8164966 -0.4082483 0.4082483 0.352539 0.983398
0 0 0 0.4082483 -0.8164966 -0.4082483 0.368164 0.983398
0 1 0 0.7071068 0 -0.7071068 0.368164 0.999023
-1 0 1 -0.5773503 -0.5773503 0.5773503 0.352539 0.983398
0 0 1 0.8164966 -0.4082483 0.4082483 0.368164 0.983398
0 1 1 0.7071068 0 0.7071068 0.368164 0.999023
-1 1 1 -0.7071068 0 0.7071068 0.352539 0.999023
-1 1 1 -0.7071068 0 0.7071068 0.368164 0.983398
-1 1 0 -0.7071068 0 -0.7071068 0.352539 0.983398
-1 1 0 -0.7071068 0 -0.7071068 0.368164 0.983398
-1 2 0 -0.4574957 -0.7624929 -0.4574957 0.368164 0.999023
0 1 0 0.7071068 0 -0.7071068 0.352539 0.983398
0 1 1 0.7071068 0 0.7071068 0.352539 0.983398
0 1 0 0.7071068 0 -0.7071068 0.368164 0.983398
0 2 0 0.5144958 -0.6859944 -0.5144958 0.368164 0.999023
-1 1 1 -0.7071068 0 0.7071068 0.352539 0.983398
0 1 1 0.7071068 0 0.7071068 0.368164 0.983398
0 2 1 0.4866643 -0.8111071 0.3244428 0.368164 0.999023
-1 2 1 -0.5144958 -0.6859944 0.5144958 0.352539 0.999023
-1 2 1 -0.5144958 -0.6859944 0.5144958 0.368164 0.983398
-1 2 0 -0.4574957 -0.7624929 -0.4574957 0.352539 0.983398
-1 2 0 -0.4574957 -0.7624929 -0.4574957 0.368164 0.983398
-1 3 0 -0.7844645 0.1961161 -0.5883484 0.368164 0.999023
0 2 0 0.5144958 -0.6859944 -0.5144958 0.352539 0.983398
0 2 1 0.4866643 -0.8111071 0.3244428 0.352539 0.983398
0 2 0 0.5144958 -0.6859944 -0.5144958 0.368164 0.983398
0 3 0 0.2425356 0 -0.9701425 0.368164 0.999023
-1 2 1 -0.5144958 -0.6859944 0.5144958 0.352539 0.983398
0 2 1 0.4866643 -0.8111071 0.3244428 0.368164 0.983398
0 3 1 0.6666667 -0.3333333 0.6666667 0.368164 0.999023
-1 3 1 -0.6882472 -0.2294157 0.6882472 0.352539 0.999023
-1 3 1 -0.6882472 -0.2294157 0.6882472 0.368164 0.983398
-1 3 0 -0.7844645 0.1961161 -0.5883484 0.352539 0.983398
-1 3 0 -0.7844645 0.1961161 -0.5883484 0.368164 0.983398
-1 4 0 -0.7071068 0 -0.7071068 0.368164 0.999023
0 3 0 0.2425356 0 -0.9701425 0.352539 0.983398
0 3 1 0.6666667 -0.3333333 0.6666667 0.352539 0.983398
0 3 0 0.2425356 0 -0.9701425 0.368164 0.983398
0 4 0 0.4364358 -0.2182179 -0.8728716 0.368164 0.999023
-1 3 1 -0.6882472 -0.2294157 0.6882472 0.352539 0.983398
0 3 1 0.6666667 -0.3333333 0.6666667 0.368164 0.983398
0 4 1 0.7276069 -0.4850713 0.4850713 0.368164 0.999023
-1 4 1 -0.7071068 0 0.7071068 0.352539 0.999023
-1 4 1 -0.7071068 0 0.7071068 0.368164 0.983398
-1 4 0 -0.7071068 0 -0.7071068 0.352539 0.983398
-1 4 0 -0.7071068 0 -0.7071068 0.368164 0.983398
-1 5 0 -0.7808688 0 -0.6246951 0.368164 0.999023
0 4 0 0.4364358 -0.2182179 -0.8728716 0.352539 0.983398
0 4 1 0.7276069 -0.4850713 0.4850713 0.352539 0.983398
0 4 0 0.4364358 -0.2182179 -0.8728716 0.368164 0.983398
0 5 0 0.5144958 0.6859944 -0.5144958 0.368164 0.999023
-1 5 1 -0.5570861 0.7427813 0.3713907 0.370117 0.983398
0 5 1 0.2672613 0.5345225 0.8017837 0.385742 0.983398
0 5 0 0.5144958 0.6859944 -0.5144958 0.385742 0.999023
-1 5 0 -0.7808688 0 -0.6246951 0.370117 0.999023
-1 4 1 -0.7071068 0 0.7071068 0.352539 0.983398
0 4 1 0.7276069 -0.4850713 0.4850713 0.368164 0.983398
0 5 1 0.2672613 0.5345225 0.8017837 0.368164 0.999023
-1 5 1 -0.5570861 0.7427813 0.3713907 0.352539 0.999023
-3 3 -1 -0.9128709 -0.3651484 -0.1825742 0.915039 0.983398
-3 3 -2 -0.4082483 -0.4082483 -0.8164966 0.915039 0.999023
-3 3 -2 -0.4082483 -0.4082483 -0.8164966 0.930664 0.983398
-3 4 -2 -0.8164966 0.4082483 -0.4082483 0.930664 0.999023
-2 3 -2 -0.4082483 -0.4082483 -0.8164966 0.915039 0.983398
-2 3 -1 -0.5345225 -0.8017837 -0.2672613 0.915039 0.983398
-2 3 -2 -0.4082483 -0.4082483 -0.8164966 0.930664 0.983398
-2 4 -2 -0.2294157 0.6882472 -0.6882472 0.930664 0.999023
-3 4 -1 -0.6882472 0.6882472 -0.2294157 0.915039 0.983398
-2 4 -1 -0.1622214 0.9733285 -0.1622214 0.930664 0.983398
-2 4 -1 -0.1622214 0.9733285 -0.1622214 0.930664 0.999023
-3 4 -1 -0.6882472 0.6882472 -0.2294157 0.915039 0.999023
-3 3 -1 -0.9128709 -0.3651484 -0.1825742 0.915039 0.999023
-3 2 0 -0.6882472 -0.6882472 -0.2294157 0.915039 0.983398
-3 2 -1 -0.4082483 -0.4082483 -0.8164966 0.915039 0.999023
-3 2 -1 -0.4082483 -0.4082483 -0.8164966 0.930664 0.983398
-3 3 -1 -0.9128709 -0.3651484 -0.1825742 0.930664 0.999023
-2 3 -1 -0.5345225 -0.8017837 -0.2672613 0.915039 0.999023
-2 2 -1 -0.3651484 -0.9128709 -0.1825742 0.915039 0.983398
-2 2 0 0 -1 0 0.915039 0.983398
-2 2 -1 -0.3651484 -0.9128709 -0.1825742 0.930664 0.983398
-2 3 -1 -0.5345225 -0.8017837 -0.2672613 0.930664 0.999023
-3 3 0 -0.9370426 -0.1561738 -0.3123476 0.915039 0.983398
-2 3 0 -0.6666667 -0.3333333 -0.6666667 0.930664 0.983398
-2 3 0 -0.6666667 -0.3333333 -0.6666667 0.930664 0.999023
-3 3 0 -0.9370426 -0.1561738 -0.3123476 0.915039 0.999023
-3 3 0 -0.9370426 -0.1561738 -0.3123476 0.930664 0.983398
-2 3 0 -0.6666667 -0.3333333 -0.6666667 0.915039 0.983398
-3 4 0 -0.6882472 0.6882472 -0.2294157 0.915039 0.983398
-2 4 0 -0.2981424 0.745356 -0.5962848 0.930664 0.983398
-2 4 0 -0.2981424 0.745356 -0.5962848 0.930664 0.999023
-3 4 0 -0.6882472 0.6882472 -0.2294157 0.915039 0.999023
-3 2 1 -0.7071068 -0.7071068 0 0.915039 0.983398
-3 2 0 -0.6882472 -0.6882472 -0.2294157 0.915039 0.999023
-2 2 0 0 -1 0 0.930664 0.999023
-2 2 1 0 -1 0 0.915039 0.983398
-3 3 1 -0.9733285 -0.1622214 -0.1622214 0.915039 0.983398
-2 3 1 -0.8944272 -0.4472136 0 0.930664 0.983398
-2 3 1 -0.8944272 -0.4472136 0 0.930664 0.999023
-3 3 1 -0.9733285 -0.1622214 -0.1622214 0.915039 0.999023
-3 3 1 -0.9733285 -0.1622214 -0.1622214 0.930664 0.983398
-2 3 1 -0.8944272 -0.4472136 0 0.915039 0.983398
-3 4 1 -0.6882472 0.6882472 -0.2294157 0.915039 0.983398
-2 4 1 -0.8728716 0.4364358 -0.2182179 0.930664 0.983398
-2 4 1 -0.8728716 0.4364358 -0.2182179 0.930664 0.999023
-3 4 1 -0.6882472 0.6882472 -0.2294157 0.915039 0.999023
-3 2 2 -0.7071068 -0.7071068 0 0.915039 0.983398
-3 2 1 -0.7071068 -0.7071068 0 0.915039 0.999023
-2 2 1 0 -1 0 0.930664 0.999023
-2 2 2 -0.1622214 -0.9733285 0.1622214 0.915039 0.983398
-3 3 2 -0.9486833 0 -0.3162278 0.915039 0.983398
-2 3 2 -0.904534 -0.3015113 -0.3015113 0.930664 0.983398
-2 3 2 -0.904534 -0.3015113 -0.3015113 0.930664 0.999023
-3 3 2 -0.9486833 0 -0.3162278 0.915039 0.999023
-3 3 2 -0.9486833 0 -0.3162278 0.930664 0.983398
-2 3 2 -0.904534 -0.3015113 -0.3015113 0.915039 0.983398
-3 4 2 -0.7071068 0.7071068 0 0.915039 0.983398
-2 4 2 -0.6963106 0.6963106 0.1740777 0.930664 0.983398
-2 4 2 -0.6963106 0.6963106 0.1740777 0.930664 0.999023
-3 4 2 -0.7071068 0.7071068 0 0.915039 0.999023
-3 2 3 -0.5773503 -0.5773503 0.5773503 0.915039 0.983398
-3 2 2 -0.7071068 -0.7071068 0 0.915039 0.999023
-2 2 2 -0.1622214 -0.9733285 0.1622214 0.930664 0.999023
-2 2 3 -0.2294157 -0.6882472 0.6882472 0.915039 0.983398
-3 3 3 -0.7071068 0 0.7071068 0.915039 0.983398
-2 3 3 -0.1622214 -0.1622214 0.9733285 0.930664 0.983398
-2 3 3 -0.1622214 -0.1622214 0.9733285 0.930664 0.999023
-3 3 3 -0.7071068 0 0.7071068 0.915039 0.999023
-3 3 3 -0.7071068 0 0.7071068 0.930664 0.983398
-2 3 3 -0.1622214 -0.1622214 0.9733285 0.915039 0.983398
-3 4 3 -0.4082483 0.8164966 0.4082483 0.915039 0.983398
-2 4 3 -0.2294157 0.6882472 0.6882472 0.930664 0.983398
-2 4 3 -0.2294157 0.6882472 0.6882472 0.930664 0.999023
-3 4 3 -0.4082483 0.8164966 0.4082483 0.915039 0.999023
-2 3 -2 -0.4082483 -0.4082483 -0.8164966 0.915039 0.999023
-2 2 -2 -0.4082483 -0.4082483 -0.8164966 0.915039 0.999023
-2 2 -2 -0.4082483 -0.4082483 -0.8164966 0.930664 0.983398
-1 2 -2 0 -0.7071068 -0.7071068 0.915039 0.983398
-1 2 -1 0 -0.9863939 -0.164399 0.915039 0.983398
-1 2 -2 0 -0.7071068 -0.7071068 0.930664 0.983398
-1 3 -2 0 -0.164399 -0.9863939 0.930664 0.999023
-1 3 -1 -0.7071068 -0.7071068 0 0.930664 0.983398
-1 3 -1 -0.7071068 -0.7071068 0 0.930664 0.999023
-1 3 -2 0 -0.164399 -0.9863939 0.915039 0.983398
-1 3 -1 -0.7071068 -0.7071068 0 0.915039 0.983398
-1 3 -2 0 -0.164399 -0.9863939 0.930664 0.983398
-1 4 -2 0 0.7071068 -0.7071068 0.930664 0.999023
-2 4 -1 -0.1622214 0.9733285 -0.1622214 0.915039 0.983398
-1 4 -1 -0.4082483 0.8164966 -0.4082483 0.930664 0.983398
-1 4 -1 -0.4082483 0.8164966 -0.4082483 0.930664 0.999023
-2 2 -1 -0.3651484 -0.9128709 -0.1825742 0.915039 0.999023
-1 2 -1 0 -0.9863939 -0.164399 0.930664 0.999023
-1 2 0 -0.4574957 -0.7624929 -0.4574957 0.930664 0.983398
-1 2 0 -0.4574957 -0.7624929 -0.4574957 0.915039 0.983398
-1 3 0 -0.7844645 0.1961161 -0.5883484 0.915039 0.999023
-1 3 0 -0.7844645 0.1961161 -0.5883484 0.930664 0.983398
-1 3 0 -0.7844645 0.1961161 -0.5883484 0.930664 0.999023
-1 3 0 -0.7844645 0.1961161 -0.5883484 0.915039 0.983398
-1 4 0 -0.7071068 0 -0.7071068 0.915039 0.999023
-2 4 0 -0.2981424 0.745356 -0.5962848 0.915039 0.983398
-1 4 0 -0.7071068 0 -0.7071068 0.930664 0.983398
-1 4 0 -0.7071068 0 -0.7071068 0.930664 0.999023
-2 2 0 0 -1 0 0.915039 0.999023
-1 2 0 -0.4574957 -0.7624929 -0.4574957 0.930664 0.999023
-1 2 1 -0.5144958 -0.6859944 0.5144958 0.930664 0.983398
-1 3 1 -0.6882472 -0.2294157 0.6882472 0.930664 0.983398
-1 3 1 -0.6882472 -0.2294157 0.6882472 0.930664 0.999023
-2 4 1 -0.8728716 0.4364358 -0.2182179 0.915039 0.983398
-1 4 1 -0.7071068 0 0.7071068 0.930664 0.983398
-1 4 1 -0.7071068 0 0.7071068 0.930664 0.999023
-2 5 0 -0.6882472 -0.2294157 -0.6882472 0.930664 0.999023
-1 5 0 -0.7808688 0 -0.6246951 0.915039 0.999023
-1 4 0 -0.7071068 0 -0.7071068 0.915039 0.983398
-2 5 1 -0.9284767 0 0.3713907 0.915039 0.983398
-1 5 1 -0.5570861 0.7427813 0.3713907 0.930664 0.983398
-1 5 0 -0.7808688 0 -0.6246951 0.930664 0.999023
-1 5 1 -0.5570861 0.7427813 0.3713907 0.930664 0.999023
-2 5 1 -0.9284767 0 0.3713907 0.915039 0.999023
-2 5 1 -0.9284767 0 0.3713907 0.930664 0.983398
-2 5 0 -0.6882472 -0.2294157 -0.6882472 0.915039 0.983398
-2 5 0 -0.6882472 -0.2294157 -0.6882472 0.930664 0.983398
-2 6 0 -0.8164966 0.4082483 -0.4082483 0.930664 0.999023
-1 5 0 -0.7808688 0 -0.6246951 0.915039 0.983398
-1 5 1 -0.5570861 0.7427813 0.3713907 0.915039 0.983398
-1 5 0 -0.7808688 0 -0.6246951 0.930664 0.983398
-1 6 0 -0.3244428 0.8111071 -0.4866643 0.930664 0.999023
-2 6 1 -0.4082483 0.8164966 0.4082483 0.915039 0.983398
-1 6 1 -0.5570861 0.7427813 0.3713907 0.930664 0.983398
-1 6 1 -0.5570861 0.7427813 0.3713907 0.930664 0.999023
-2 6 1 -0.4082483 0.8164966 0.4082483 0.915039 0.999023
-2 2 1 0 -1 0 0.915039 0.999023
-1 2 1 -0.5144958 -0.6859944 0.5144958 0.930664 0.999023
-1 3 1 -0.6882472 -0.2294157 0.6882472 0.915039 0.999023
-1 2 1 -0.5144958 -0.6859944 0.5144958 0.915039 0.983398
-1 2 2 0.164399 -0.9863939 0 0.915039 0.983398
-1 3 2 0.4082483 -0.4082483 -0.8164966 0.930664 0.983398
-1 3 2 0.4082483 -0.4082483 -0.8164966 0.930664 0.999023
-1 4 1 -0.7071068 0 0.7071068 0.915039 0.999023
-1 3 1 -0.6882472 -0.2294157 0.6882472 0.915039 0.983398
-1 3 2 0.4082483 -0.4082483 -0.8164966 0.915039 0.983398
-2 4 2 -0.6963106 0.6963106 0.1740777 0.915039 0.983398
-1 4 2 0 0.7071068 0.7071068 0.930664 0.983398
-1 4 2 0 0.7071068 0.7071068 0.930664 0.999023
-1 5 1 -0.5570861 0.7427813 0.3713907 0.915039 0.999023
-1 4 1 -0.7071068 0 0.7071068 0.915039 0.983398
-1 4 2 0 0.7071068 0.7071068 0.915039 0.983398
-2 5 2 -0.4082483 0.8164966 0.4082483 0.915039 0.983398
-1 5 2 -0.3651484 0.1825742 0.9128709 0.930664 0.983398
-1 5 2 -0.3651484 0.1825742 0.9128709 0.930664 0.999023
-2 5 2 -0.4082483 0.8164966 0.4082483 0.915039 0.999023
-2 2 2 -0.1622214 -0.9733285 0.1622214 0.915039 0.999023
-1 2 2 0.164399 -0.9863939 0 0.930664 0.999023
-1 2 3 0 -0.7071068 0.7071068 0.915039 0.983398
-1 3 3 -0.1622214 -0.1622214 0.9733285 0.930664 0.983398
-1 3 3 -0.1622214 -0.1622214 0.9733285 0.930664 0.999023
-1 3 3 -0.1622214 -0.1622214 0.9733285 0.915039 0.983398
-2 4 3 -0.2294157 0.6882472 0.6882472 0.915039 0.983398
-1 4 3 -0.2294157 0.6882472 0.6882472 0.930664 0.983398
-1 4 3 -0.2294157 0.6882472 0.6882472 0.930664 0.999023
-1 2 -2 0 -0.7071068 -0.7071068 0.915039 0.999023
0 2 -2 -0.2294157 -0.6882472 -0.6882472 0.915039 0.983398
0 2 -1 0 -0.9863939 -0.164399 0.915039 0.983398
0 2 -2 -0.2294157 -0.6882472 -0.6882472 0.930664 0.983398
0 3 -2 -0.164399 0 -0.9863939 0.930664 0.999023
0 3 -1 -0.5773503 -0.5773503 -0.5773503 0.930664 0.983398
0 3 -1 -0.5773503 -0.5773503 -0.5773503 0.930664 0.999023
0 3 -2 -0.164399 0 -0.9863939 0.915039 0.983398
0 3 -1 -0.5773503 -0.5773503 -0.5773503 0.915039 0.983398
0 3 -2 -0.164399 0 -0.9863939 0.930664 0.983398
0 4 -2 -0.2294157 0.6882472 -0.6882472 0.930664 0.999023
-1 4 -1 -0.4082483 0.8164966 -0.4082483 0.915039 0.983398
0 4 -1 -0.2672613 0.5345225 -0.8017837 0.930664 0.983398
0 4 -1 -0.2672613 0.5345225 -0.8017837 0.930664 0.999023
-1 2 -1 0 -0.9863939 -0.164399 0.915039 0.999023
0 2 -1 0 -0.9863939 -0.164399 0.930664 0.999023
0 2 0 0.5144958 -0.6859944 -0.5144958 0.930664 0.983398
0 2 0 0.5144958 -0.6859944 -0.5144958 0.915039 0.983398
0 3 0 0.2425356 0 -0.9701425 0.915039 0.999023
0 3 0 0.2425356 0 -0.9701425 0.930664 0.983398
0 3 0 0.2425356 0 -0.9701425 0.915039 0.983398
0 4 0 0.4364358 -0.2182179 -0.8728716 0.915039 0.999023
0 4 0 0.4364358 -0.2182179 -0.8728716 0.930664 0.983398
-1 5 -1 -0.7071068 0 -0.7071068 0.930664 0.999023
0 4 -1 -0.2672613 0.5345225 -0.8017837 0.915039 0.983398
0 4 0 0.4364358 -0.2182179 -0.8728716 0.915039 0.983398
0 5 -1 0.2357023 0.2357023 -0.9428091 0.930664 0.999023
0 5 0 0.5144958 0.6859944 -0.5144958 0.915039 0.999023
0 5 0 0.5144958 0.6859944 -0.5144958 0.930664 0.983398
-1 5 -1 -0.7071068 0 -0.7071068 0.915039 0.983398
-1 5 -1 -0.7071068 0 -0.7071068 0.930664 0.983398
-1 6 -1 -0.8164966 0.4082483 -0.4082483 0.930664 0.999023
0 5 -1 0.2357023 0.2357023 -0.9428091 0.915039 0.983398
0 5 0 0.5144958 0.6859944 -0.5144958 0.915039 0.983398
0 5 -1 0.2357023 0.2357023 -0.9428091 0.930664 0.983398
0 6 -1 0.5773503 0.5773503 -0.5773503 0.930664 0.999023
-1 6 0 -0.3244428 0.8111071 -0.4866643 0.915039 0.983398
0 6 0 0 0.9701425 -0.2425356 0.930664 0.983398
0 6 0 0 0.9701425 -0.2425356 0.930664 0.999023
0 5 1 0.2672613 0.5345225 0.8017837 0.915039 0.983398
-1 6 1 -0.5570861 0.7427813 0.3713907 0.915039 0.983398
0 6 1 0.1924501 0.9622505 0.1924501 0.930664 0.983398
0 5 1 0.2672613 0.5345225 0.8017837 0.930664 0.983398
0 6 1 0.1924501 0.9622505 0.1924501 0.930664 0.999023
-1 2 1 -0.5144958 -0.6859944 0.5144958 0.915039 0.999023
0 2 1 0.4866643 -0.8111071 0.3244428 0.930664 0.999023
0 2 2 -0.1622214 -0.9733285 0.1622214 0.915039 0.983398
0 2 1 0.4866643 -0.8111071 0.3244428 0.930664 0.983398
0 3 1 0.6666667 -0.3333333 0.6666667 0.930664 0.999023
0 3 2 -0.9486833 0 -0.3162278 0.930664 0.983398
0 3 2 -0.9486833 0 -0.3162278 0.930664 0.999023
0 3 2 -0.9486833 0 -0.3162278 0.915039 0.983398
0 3 1 0.6666667 -0.3333333 0.6666667 0.930664 0.983398
0 4 1 0.7276069 -0.4850713 0.4850713 0.930664 0.999023
0 4 2 -0.5773503 0.5773503 0.5773503 0.930664 0.983398
0 4 2 -0.5773503 0.5773503 0.5773503 0.930664 0.999023
0 4 2 -0.5773503 0.5773503 0.5773503 0.915039 0.983398
0 4 1 0.7276069 -0.4850713 0.4850713 0.930664 0.983398
0 5 1 0.2672613 0.5345225 0.8017837 0.930664 0.999023
-1 5 2 -0.3651484 0.1825742 0.9128709 0.915039 0.983398
0 5 2 0.2182179 0.4364358 0.8728716 0.930664 0.983398
0 5 2 0.2182179 0.4364358 0.8728716 0.930664 0.999023
0 5 2 0.2182179 0.4364358 0.8728716 0.915039 0.983398
-1 6 2 -0.4082483 0.8164966 0.4082483 0.915039 0.983398
0 6 2 0.4082483 0.4082483 0.8164966 0.930664 0.983398
0 6 2 0.4082483 0.4082483 0.8164966 0.930664 0.999023
-1 6 2 -0.4082483 0.8164966 0.4082483 0.915039 0.999023
-1 2 2 0.164399 -0.9863939 0 0.915039 0.999023
0 2 2 -0.1622214 -0.9733285 0.1622214 0.930664 0.999023
0 2 3 -0.2294157 -0.6882472 0.6882472 0.915039 0.983398
0 3 3 -0.164399 0 0.9863939 0.930664 0.983398
0 3 3 -0.164399 0 0.9863939 0.930664 0.999023
0 3 3 -0.164399 0 0.9863939 0.915039 0.983398
-1 4 3 -0.2294157 0.6882472 0.6882472 0.915039 0.983398
0 4 3 0 0.7071068 0.7071068 0.930664 0.983398
0 4 3 0 0.7071068 0.7071068 0.930664 0.999023
0 2 -2 -0.2294157 -0.6882472 -0.6882472 0.915039 0.999023
1 2 -2 0.4082483 -0.8164966 -0.4082483 0.915039 0.983398
1 2 -1 0.1961161 -0.7844645 -0.5883484 0.915039 0.983398
1 2 -2 0.4082483 -0.8164966 -0.4082483 0.930664 0.983398
1 3 -2 0.7071068 0 -0.7071068 0.930664 0.999023
1 3 -1 0.4364358 -0.2182179 -0.8728716 0.930664 0.983398
1 3 -1 0.4364358 -0.2182179 -0.8728716 0.930664 0.999023
1 3 -2 0.7071068 0 -0.7071068 0.915039 0.983398
1 3 -1 0.4364358 -0.2182179 -0.8728716 0.915039 0.983398
1 3 -2 0.7071068 0 -0.7071068 0.930664 0.983398
1 4 -2 0.5773503 0.5773503 -0.5773503 0.930664 0.999023
1 4 -1 0.4082483 0.4082483 -0.8164966 0.930664 0.983398
1 4 -1 0.4082483 0.4082483 -0.8164966 0.930664 0.999023
0 3 0 0.2425356 0 -0.9701425 0.930664 0.999023
0 2 -1 0 -0.9863939 -0.164399 0.915039 0.999023
1 2 -1 0.1961161 -0.7844645 -0.5883484 0.930664 0.999023
1 2 0 -0.3123476 -0.9370426 -0.1561738 0.915039 0.983398
1 3 0 -0.6666667 -0.3333333 -0.6666667 0.930664 0.983398
1 3 0 -0.6666667 -0.3333333 -0.6666667 0.930664 0.999023
0 4 0 0.4364358 -0.2182179 -0.8728716 0.930664 0.999023
1 3 0 -0.6666667 -0.3333333 -0.6666667 0.915039 0.983398
1 4 0 0.5345225 0.2672613 -0.8017837 0.930664 0.983398
1 4 0 0.5345225 0.2672613 -0.8017837 0.930664 0.999023
0 5 0 0.5144958 0.6859944 -0.5144958 0.930664 0.999023
1 4 -1 0.4082483 0.4082483 -0.8164966 0.915039 0.983398
1 4 0 0.5345225 0.2672613 -0.8017837 0.915039 0.983398
1 5 -1 0.5773503 0.5773503 -0.5773503 0.930664 0.999023
1 5 0 0.8728716 0.2182179 -0.4364358 0.930664 0.983398
1 5 0 0.8728716 0.2182179 -0.4364358 0.930664 0.999023
0 2 1 0.4866643 -0.8111071 0.3244428 0.915039 0.983398
0 2 0 0.5144958 -0.6859944 -0.5144958 0.915039 0.999023
1 2 0 -0.3123476 -0.9370426 -0.1561738 0.930664 0.999023
1 2 1 0 -0.9486833 -0.3162278 0.915039 0.983398
0 3 1 0.6666667 -0.3333333 0.6666667 0.915039 0.983398
1 3 1 0 -0.4472136 -0.8944272 0.930664 0.983398
1 3 1 0 -0.4472136 -0.8944272 0.930664 0.999023
0 3 1 0.6666667 -0.3333333 0.6666667 0.915039 0.999023
1 3 1 0 -0.4472136 -0.8944272 0.915039 0.983398
0 4 1 0.7276069 -0.4850713 0.4850713 0.915039 0.983398
1 4 1 0.8164966 0.4082483 -0.4082483 0.930664 0.983398
1 4 1 0.8164966 0.4082483 -0.4082483 0.930664 0.999023
0 4 1 0.7276069 -0.4850713 0.4850713 0.915039 0.999023
1 4 1 0.8164966 0.4082483 -0.4082483 0.915039 0.983398
1 5 1 0.9128709 0.3651484 0.1825742 0.930664 0.983398
1 5 1 0.9128709 0.3651484 0.1825742 0.930664 0.999023
0 5 1 0.2672613 0.5345225 0.8017837 0.915039 0.999023
1 5 0 0.8728716 0.2182179 -0.4364358 0.915039 0.983398
1 5 1 0.9128709 0.3651484 0.1825742 0.915039 0.983398
1 6 0 0.5773503 0.5773503 -0.5773503 0.930664 0.999023
0 6 1 0.1924501 0.9622505 0.1924501 0.915039 0.983398
1 6 1 0.4082483 0.4082483 0.8164966 0.930664 0.983398
1 6 1 0.4082483 0.4082483 0.8164966 0.930664 0.999023
0 2 1 0.4866643 -0.8111071 0.3244428 0.915039 0.999023
1 2 1 0 -0.9486833 -0.3162278 0.930664 0.999023
1 2 2 0 -1 0 0.915039 0.983398
1 3 2 -0.8164966 -0.4082483 -0.4082483 0.930664 0.983398
1 3 2 -0.8164966 -0.4082483 -0.4082483 0.930664 0.999023
1 3 2 -0.8164966 -0.4082483 -0.4082483 0.915039 0.983398
1 4 2 0.2425356 0.9701425 0 0.930664 0.983398
1 4 2 0.2425356 0.9701425 0 0.930664 0.999023
1 4 2 0.2425356 0.9701425 0 0.915039 0.983398
1 5 2 0.4082483 0.4082483 0.8164966 0.930664 0.983398
1 5 2 0.4082483 0.4082483 0.8164966 0.930664 0.999023
0 2 2 -0.1622214 -0.9733285 0.1622214 0.915039 0.999023
1 2 2 0 -1 0 0.930664 0.999023
1 2 3 0 -0.7071068 0.7071068 0.915039 0.983398
1 3 3 0 -0.164399 0.9863939 0.930664 0.983398
1 3 3 0 -0.164399 0.9863939 0.930664 0.999023
1 3 3 0 -0.164399 0.9863939 0.915039 0.983398
0 4 3 0 0.7071068 0.7071068 0.915039 0.983398
1 4 3 0 0.7071068 0.7071068 0.930664 0.983398
1 4 3 0 0.7071068 0.7071068 0.930664 0.999023
1 2 -1 0.1961161 -0.7844645 -0.5883484 0.915039 0.999023
2 2 -1 0.4082483 -0.8164966 -0.4082483 0.915039 0.983398
2 2 0 0.7071068 -0.7071068 0 0.915039 0.983398
2 2 -1 0.4082483 -0.8164966 -0.4082483 0.930664 0.983398
2 3 -1 0.7071068 0 -0.7071068 0.930664 0.999023
2 3 0 0.9863939 0.164399 0 0.930664 0.983398
2 3 0 0.9863939 0.164399 0 0.930664 0.999023
2 3 -1 0.7071068 0 -0.7071068 0.915039 0.983398
2 3 0 0.9863939 0.164399 0 0.915039 0.983398
2 3 -1 0.7071068 0 -0.7071068 0.930664 0.983398
2 4 -1 0.5773503 0.5773503 -0.5773503 0.930664 0.999023
2 4 0 0.7071068 0.7071068 0 0.930664 0.983398
2 4 0 0.7071068 0.7071068 0 0.930664 0.999023
1 2 0 -0.3123476 -0.9370426 -0.1561738 0.915039 0.999023
2 2 0 0.7071068 -0.7071068 0 0.930664 0.999023
2 2 1 0.7071068 -0.7071068 0 0.915039 0.983398
2 3 1 0.9863939 0.164399 0 0.930664 0.983398
2 3 1 0.9863939 0.164399 0 0.930664 0.999023
2 3 1 0.9863939 0.164399 0 0.915039 0.983398
2 4 1 0.7071068 0.7071068 0 0.930664 0.983398
2 4 1 0.7071068 0.7071068 0 0.930664 0.999023
1 2 1 0 -0.9486833 -0.3162278 0.915039 0.999023
2 2 1 0.7071068 -0.7071068 0 0.930664 0.999023
2 2 2 0.6882472 -0.6882472 0.2294157 0.915039 0.983398
2 3 2 0.9863939 -0.164399 0 0.930664 0.983398
2 3 2 0.9863939 -0.164399 0 0.930664 0.999023
2 3 2 0.9863939 -0.164399 0 0.915039 0.983398
2 4 2 0.6882472 0.6882472 -0.2294157 0.930664 0.983398
2 4 2 0.6882472 0.6882472 -0.2294157 0.930664 0.999023
1 2 2 0 -1 0 0.915039 0.999023
2 2 2 0.6882472 -0.6882472 0.2294157 0.930664 0.999023
2 2 3 0.8164966 -0.4082483 0.4082483 0.915039 0.983398
2 3 3 0.7071068 0 0.7071068 0.930664 0.983398
2 3 3 0.7071068 0 0.7071068 0.930664 0.999023
2 3 3 0.7071068 0 0.7071068 0.915039 0.983398
1 4 3 0 0.7071068 0.7071068 0.915039 0.983398
2 4 3 0.4082483 0.4082483 0.8164966 0.930664 0.983398
2 4 3 0.4082483 0.4082483 0.8164966 0.930664 0.999023
3 79 80 81 0 
3 79 81 78 0 
3 139 140 83 0 
3 139 83 82 0 
3 141 142 84 0 
3 141 84 143 0 
3 144 145 146 0 
3 144 146 85 0 
3 147 148 149 0 
3 147 149 150 0 
3 151 44 41 0 
3 151 41 152 0 
3 153 154 69 0 
3 153 69 155 0 
3 156 157 158 0 
3 156 158 86 0 
3 159 160 161 0 
3 159 161 162 0 
3 163 45 42 0 
3 163 42 164 0 
3 165 166 70 0 
3 165 70 167 0 
3 168 169 170 0 
3 168 170 87 0 
3 171 172 173 0 
3 171 173 174 0 
3 175 46 43 0 
3 175 43 176 0 
3 177 178 71 0 
3 177 71 179 0 
3 180 181 182 0 
3 180 182 88 0 
3 183 184 185 0 
3 183 185 186 0 
3 187 50 49 0 
3 187 49 188 0 
3 189 190 74 0 
3 189 74 191 0 
3 192 193 194 0 
3 192 194 89 0 
3 195 196 197 0 
3 195 197 198 0 
3 199 200 201 0 
3 199 201 202 0 
3 1 2 3 1 
3 1 3 0 1 
3 203 204 5 1 
3 203 5 4 1 
3 205 206 6 1 
3 205 6 207 1 
3 208 209 210 1 
3 208 210 7 1 
3 211 212 210 1 
3 211 210 3 1 
3 203 4 213 1 
3 203 213 214 1 
3 9 10 215 1 
3 9 215 8 1 
3 216 217 12 1 
3 216 12 11 1 
3 218 219 220 1 
3 218 220 221 1 
3 222 223 224 1 
3 222 224 13 1 
3 225 226 224 1 
3 225 224 215 1 
3 216 11 227 1 
3 216 227 228 1 
3 229 14 214 1 
3 229 214 203 1 
3 225 215 224 1 
3 225 224 226 1 
3 1 2 7 1 
3 1 7 208 1 
3 230 4 213 1 
3 230 213 15 1 
3 231 232 213 1 
3 231 213 214 1 
3 225 226 233 1 
3 225 233 234 1 
3 16 17 228 1 
3 16 228 216 1 
3 235 236 237 1 
3 235 237 18 1 
3 9 10 13 1 
3 9 13 222 1 
3 238 11 227 1 
3 238 227 19 1 
3 239 240 227 1 
3 239 227 228 1 
3 235 18 241 1 
3 235 241 242 1 
3 243 20 234 1 
3 243 234 225 1 
3 239 228 227 1 
3 239 227 240 1 
3 229 14 15 1 
3 229 15 230 1 
3 244 226 233 1 
3 244 233 21 1 
3 245 246 233 1 
3 245 233 234 1 
3 239 240 247 1 
3 239 247 248 1 
3 22 23 242 1 
3 22 242 235 1 
3 249 250 251 1 
3 249 251 24 1 
3 16 17 19 1 
3 16 19 238 1 
3 252 18 241 1 
3 252 241 25 1 
3 253 254 241 1 
3 253 241 242 1 
3 249 24 255 1 
3 249 255 256 1 
3 257 26 248 1 
3 257 248 239 1 
3 253 242 241 1 
3 253 241 254 1 
3 243 20 21 1 
3 243 21 244 1 
3 258 240 247 1 
3 258 247 27 1 
3 259 260 247 1 
3 259 247 248 1 
3 253 254 261 1 
3 253 261 262 1 
3 28 29 256 1 
3 28 256 249 1 
3 263 264 265 1 
3 263 265 30 1 
3 22 23 25 1 
3 22 25 252 1 
3 266 24 255 1 
3 266 255 31 1 
3 267 268 255 1 
3 267 255 256 1 
3 263 30 269 1 
3 263 269 270 1 
3 271 32 262 1 
3 271 262 253 1 
3 267 256 255 1 
3 267 255 268 1 
3 257 26 27 1 
3 257 27 258 1 
3 272 254 261 1 
3 272 261 33 1 
3 273 274 261 1 
3 273 261 262 1 
3 267 268 275 1 
3 267 275 276 1 
3 223 224 277 1 
3 223 277 34 1 
3 221 278 36 1 
3 221 36 35 1 
3 279 5 37 1 
3 279 37 280 1 
3 281 282 283 1 
3 281 283 38 1 
3 208 284 283 1 
3 208 283 277 1 
3 221 35 285 1 
3 221 285 220 1 
3 4 213 6 1 
3 4 6 207 1 
3 208 277 283 1 
3 208 283 284 1 
3 209 210 39 1 
3 209 39 286 1 
3 287 288 289 1 
3 287 289 40 1 
3 290 291 289 1 
3 290 289 6 1 
3 208 284 292 1 
3 208 292 7 1 
3 11 227 220 1 
3 11 220 221 1 
3 222 293 294 1 
3 222 294 295 1 
3 223 224 38 1 
3 223 38 281 1 
3 296 35 285 1 
3 296 285 297 1 
3 230 298 285 1 
3 230 285 220 1 
3 222 295 299 1 
3 222 299 13 1 
3 226 233 7 1 
3 226 7 208 1 
3 230 220 285 1 
3 230 285 298 1 
3 4 213 40 1 
3 4 40 287 1 
3 300 284 292 1 
3 300 292 301 1 
3 302 303 292 1 
3 302 292 7 1 
3 230 298 304 1 
3 230 304 15 1 
3 18 241 13 1 
3 18 13 222 1 
3 238 305 306 1 
3 238 306 307 1 
3 11 227 297 1 
3 11 297 296 1 
3 244 308 299 1 
3 244 299 13 1 
3 238 307 309 1 
3 238 309 19 1 
3 240 247 15 1 
3 240 15 230 1 
3 244 13 299 1 
3 244 299 308 1 
3 226 233 301 1 
3 226 301 300 1 
3 310 311 304 1 
3 310 304 15 1 
3 244 308 312 1 
3 244 312 21 1 
3 246 47 48 1 
3 246 48 302 1 
3 310 15 304 1 
3 310 304 311 1 
3 232 313 314 1 
3 232 314 315 1 
3 316 317 318 1 
3 316 318 48 1 
3 310 311 319 1 
3 310 319 320 1 
3 321 51 52 1 
3 321 52 322 1 
3 316 48 318 1 
3 316 318 317 1 
3 323 324 53 1 
3 323 53 325 1 
3 326 327 328 1 
3 326 328 54 1 
3 329 330 328 1 
3 329 328 52 1 
3 316 317 331 1 
3 316 331 332 1 
3 24 255 19 1 
3 24 19 238 1 
3 252 333 334 1 
3 252 334 55 1 
3 18 241 335 1 
3 18 335 336 1 
3 337 307 309 1 
3 337 309 56 1 
3 258 338 309 1 
3 258 309 19 1 
3 252 55 339 1 
3 252 339 25 1 
3 254 261 21 1 
3 254 21 244 1 
3 258 19 309 1 
3 258 309 338 1 
3 240 247 340 1 
3 240 340 341 1 
3 342 308 312 1 
3 342 312 57 1 
3 343 344 312 1 
3 343 312 21 1 
3 258 338 345 1 
3 258 345 27 1 
3 260 58 320 1 
3 260 320 310 1 
3 343 21 312 1 
3 343 312 344 1 
3 246 47 346 1 
3 246 346 347 1 
3 348 311 319 1 
3 348 319 59 1 
3 349 350 319 1 
3 349 319 320 1 
3 343 344 351 1 
3 343 351 352 1 
3 30 269 25 1 
3 30 25 252 1 
3 266 353 354 1 
3 266 354 60 1 
3 24 255 56 1 
3 24 56 337 1 
3 355 55 339 1 
3 355 339 61 1 
3 272 356 339 1 
3 272 339 25 1 
3 266 60 357 1 
3 266 357 31 1 
3 268 275 27 1 
3 268 27 258 1 
3 272 25 339 1 
3 272 339 356 1 
3 254 261 57 1 
3 254 57 342 1 
3 358 338 345 1 
3 358 345 62 1 
3 359 360 345 1 
3 359 345 27 1 
3 272 356 361 1 
3 272 361 33 1 
3 35 285 37 1 
3 35 37 280 1 
3 281 362 64 1 
3 281 64 63 1 
3 282 283 65 1 
3 282 65 363 1 
3 364 365 366 1 
3 364 366 66 1 
3 287 367 366 1 
3 287 366 37 1 
3 281 63 368 1 
3 281 368 38 1 
3 284 292 39 1 
3 284 39 286 1 
3 287 37 366 1 
3 287 366 367 1 
3 288 289 67 1 
3 288 67 369 1 
3 370 371 372 1 
3 370 372 68 1 
3 373 374 372 1 
3 373 372 39 1 
3 287 367 375 1 
3 287 375 40 1 
3 295 299 38 1 
3 295 38 281 1 
3 296 376 377 1 
3 296 377 378 1 
3 35 285 66 1 
3 35 66 364 1 
3 379 63 368 1 
3 379 368 380 1 
3 300 381 368 1 
3 300 368 38 1 
3 298 304 40 1 
3 298 40 287 1 
3 300 38 368 1 
3 300 368 381 1 
3 284 292 68 1 
3 284 68 370 1 
3 382 367 375 1 
3 382 375 383 1 
3 315 384 375 1 
3 315 375 40 1 
3 303 318 72 1 
3 303 72 373 1 
3 315 40 375 1 
3 315 375 384 1 
3 291 385 73 1 
3 291 73 386 1 
3 387 374 388 1 
3 387 388 389 1 
3 325 390 388 1 
3 325 388 72 1 
3 327 328 75 1 
3 327 75 391 1 
3 325 72 388 1 
3 325 388 390 1 
3 392 393 76 1 
3 392 76 394 1 
3 395 396 397 1 
3 395 397 77 1 
3 398 399 397 1 
3 398 397 75 1 
3 325 390 400 1 
3 325 400 53 1 
3 317 331 53 1 
3 317 53 325 1 
3 327 328 77 1 
3 327 77 395 1 
3 401 390 400 1 
3 401 400 90 1 
3 402 403 400 1 
3 402 400 53 1 
3 326 404 405 1 
3 326 405 54 1 
3 55 339 335 1 
3 55 335 336 1 
3 337 406 407 1 
3 337 407 91 1 
3 408 409 410 1 
3 408 410 92 1 
3 342 411 410 1 
3 342 410 335 1 
3 337 91 412 1 
3 337 412 56 1 
3 338 345 340 1 
3 338 340 341 1 
3 342 335 410 1 
3 342 410 411 1 
3 413 414 415 1 
3 413 415 93 1 
3 348 416 415 1 
3 348 415 340 1 
3 342 411 417 1 
3 342 417 57 1 
3 344 351 346 1 
3 344 346 347 1 
3 348 340 415 1 
3 348 415 416 1 
3 418 419 420 1 
3 418 420 94 1 
3 421 422 420 1 
3 421 420 346 1 
3 348 416 423 1 
3 348 423 59 1 
3 350 95 54 1 
3 350 54 326 1 
3 421 346 420 1 
3 421 420 422 1 
3 317 331 90 1 
3 317 90 401 1 
3 424 404 405 1 
3 424 405 96 1 
3 425 426 405 1 
3 425 405 54 1 
3 421 422 427 1 
3 421 427 428 1 
3 60 357 56 1 
3 60 56 337 1 
3 355 429 430 1 
3 355 430 97 1 
3 55 339 92 1 
3 55 92 408 1 
3 431 91 412 1 
3 431 412 98 1 
3 358 432 412 1 
3 358 412 56 1 
3 355 97 433 1 
3 355 433 61 1 
3 356 361 57 1 
3 356 57 342 1 
3 358 56 412 1 
3 358 412 432 1 
3 338 345 93 1 
3 338 93 413 1 
3 434 411 417 1 
3 434 417 99 1 
3 435 436 417 1 
3 435 417 57 1 
3 358 432 437 1 
3 358 437 62 1 
3 63 368 65 1 
3 63 65 363 1 
3 364 438 101 1 
3 364 101 100 1 
3 365 366 102 1 
3 365 102 439 1 
3 440 441 442 1 
3 440 442 103 1 
3 370 443 442 1 
3 370 442 65 1 
3 364 100 444 1 
3 364 444 66 1 
3 367 375 67 1 
3 367 67 369 1 
3 370 65 442 1 
3 370 442 443 1 
3 371 372 104 1 
3 371 104 445 1 
3 446 447 448 1 
3 446 448 105 1 
3 386 449 448 1 
3 386 448 67 1 
3 370 443 450 1 
3 370 450 68 1 
3 378 451 66 1 
3 378 66 364 1 
3 379 452 453 1 
3 379 453 106 1 
3 63 368 103 1 
3 63 103 440 1 
3 454 100 444 1 
3 454 444 107 1 
3 382 455 444 1 
3 382 444 66 1 
3 379 106 456 1 
3 379 456 380 1 
3 381 457 68 1 
3 381 68 370 1 
3 382 66 444 1 
3 382 444 455 1 
3 367 375 105 1 
3 367 105 446 1 
3 458 443 450 1 
3 458 450 108 1 
3 387 459 450 1 
3 387 450 68 1 
3 382 455 460 1 
3 382 460 383 1 
3 384 461 73 1 
3 384 73 386 1 
3 387 68 450 1 
3 387 450 459 1 
3 374 388 109 1 
3 374 109 462 1 
3 463 449 464 1 
3 463 464 110 1 
3 395 465 464 1 
3 395 464 73 1 
3 387 459 466 1 
3 387 466 389 1 
3 467 468 469 1 
3 467 469 111 1 
3 378 451 107 1 
3 378 107 454 1 
3 470 106 456 1 
3 470 456 112 1 
3 471 472 456 1 
3 471 456 380 1 
3 467 111 473 1 
3 467 473 474 1 
3 471 380 456 1 
3 471 456 472 1 
3 381 457 108 1 
3 381 108 458 1 
3 475 455 460 1 
3 475 460 113 1 
3 476 477 460 1 
3 476 460 383 1 
3 471 472 478 1 
3 471 478 479 1 
3 476 383 460 1 
3 476 460 477 1 
3 384 461 110 1 
3 384 110 463 1 
3 480 459 466 1 
3 480 466 114 1 
3 401 481 466 1 
3 401 466 389 1 
3 476 477 482 1 
3 476 482 483 1 
3 404 405 77 1 
3 404 77 395 1 
3 401 389 466 1 
3 401 466 481 1 
3 390 400 115 1 
3 390 115 484 1 
3 485 465 486 1 
3 485 486 116 1 
3 487 488 486 1 
3 487 486 77 1 
3 401 481 489 1 
3 401 489 90 1 
3 91 412 474 1 
3 91 474 467 1 
3 408 490 491 1 
3 408 491 117 1 
3 409 410 112 1 
3 409 112 470 1 
3 492 111 473 1 
3 492 473 118 1 
3 413 493 473 1 
3 413 473 474 1 
3 408 117 494 1 
3 408 494 92 1 
3 411 417 479 1 
3 411 479 471 1 
3 413 474 473 1 
3 413 473 493 1 
3 414 415 113 1 
3 414 113 475 1 
3 495 472 478 1 
3 495 478 119 1 
3 418 496 478 1 
3 418 478 479 1 
3 413 493 497 1 
3 413 497 93 1 
3 416 423 483 1 
3 416 483 476 1 
3 418 479 478 1 
3 418 478 496 1 
3 419 420 114 1 
3 419 114 480 1 
3 498 477 482 1 
3 498 482 120 1 
3 424 499 482 1 
3 424 482 483 1 
3 418 496 500 1 
3 418 500 94 1 
3 97 433 92 1 
3 97 92 408 1 
3 431 501 502 1 
3 431 502 121 1 
3 91 412 118 1 
3 91 118 492 1 
3 503 117 494 1 
3 503 494 122 1 
3 434 504 494 1 
3 434 494 92 1 
3 431 121 505 1 
3 431 505 98 1 
3 432 437 93 1 
3 432 93 413 1 
3 434 92 494 1 
3 434 494 504 1 
3 411 417 119 1 
3 411 119 495 1 
3 506 493 497 1 
3 506 497 123 1 
3 507 508 497 1 
3 507 497 93 1 
3 434 504 509 1 
3 434 509 99 1 
3 106 456 103 1 
3 106 103 440 1 
3 454 510 125 1 
3 454 125 124 1 
3 100 444 126 1 
3 100 126 511 1 
3 512 513 514 1 
3 512 514 127 1 
3 458 515 514 1 
3 458 514 103 1 
3 454 124 516 1 
3 454 516 107 1 
3 455 460 105 1 
3 455 105 446 1 
3 458 103 514 1 
3 458 514 515 1 
3 443 450 128 1 
3 443 128 517 1 
3 518 519 520 1 
3 518 520 129 1 
3 463 521 520 1 
3 463 520 105 1 
3 458 515 522 1 
3 458 522 108 1 
3 111 473 107 1 
3 111 107 454 1 
3 470 523 524 1 
3 470 524 130 1 
3 106 456 127 1 
3 106 127 512 1 
3 525 124 516 1 
3 525 516 131 1 
3 475 526 516 1 
3 475 516 107 1 
3 470 130 527 1 
3 470 527 112 1 
3 472 478 108 1 
3 472 108 458 1 
3 475 107 516 1 
3 475 516 526 1 
3 455 460 129 1 
3 455 129 518 1 
3 528 515 522 1 
3 528 522 132 1 
3 480 529 522 1 
3 480 522 108 1 
3 475 526 530 1 
3 475 530 113 1 
3 117 494 112 1 
3 117 112 470 1 
3 492 531 532 1 
3 492 532 133 1 
3 111 473 131 1 
3 111 131 525 1 
3 533 130 527 1 
3 533 527 134 1 
3 495 534 527 1 
3 495 527 112 1 
3 492 133 535 1 
3 492 535 118 1 
3 493 497 113 1 
3 493 113 475 1 
3 495 112 527 1 
3 495 527 534 1 
3 472 478 132 1 
3 472 132 528 1 
3 536 526 530 1 
3 536 530 135 1 
3 498 537 530 1 
3 498 530 113 1 
3 495 534 538 1 
3 495 538 119 1 
3 121 505 118 1 
3 121 118 492 1 
3 503 539 540 1 
3 503 540 136 1 
3 117 494 134 1 
3 117 134 533 1 
3 541 133 535 1 
3 541 535 137 1 
3 506 542 535 1 
3 506 535 118 1 
3 503 136 543 1 
3 503 543 122 1 
3 504 509 119 1 
3 504 119 495 1 
3 506 118 535 1 
3 506 535 542 1 
3 493 497 135 1 
3 493 135 536 1 
3 544 534 538 1 
3 544 538 138 1 
3 545 546 538 1 
3 545 538 119 1 
3 506 542 547 1 
3 506 547 123 1 
