ply
format ascii 1.0
comment VCGLIB generated
element vertex 4
property float x
property float y
property float z
property float nx
property float ny
property float nz
property float texture_u
property float texture_v
element face 2
property list uchar int vertex_indices
end_header
0.5 -0.002396017 2.185569e-08 0 -8.742278e-08 -2 0 -9e-08
-0.5 -0.002396017 2.185569e-08 0 -4.371139e-08 -1 1 -4e-08
-0.5 0.997604 -2.18557e-08 0 -8.742278e-08 -2 1 -9e-08
0.5 0.997604 -2.18557e-08 0 -4.371139e-08 -1 0 -4e-08
3 0 1 2 
3 0 2 3 
